<svg width="580" height="350" viewBox="0 0 580 350" fill="none" xmlns="http://www.w3.org/2000/svg">
<path d="M0 20C0 8.9543 8.95431 0 20 0H560C571.046 0 580 8.95431 580 20V330C580 341.046 571.046 350 560 350H20C8.95432 350 0 341.046 0 330V20Z" fill="white"/>
<path d="M20 0.5H560C570.77 0.5 579.5 9.23045 579.5 20V330C579.5 340.77 570.77 349.5 560 349.5H20C9.23046 349.5 0.5 340.77 0.5 330V20C0.5 9.23045 9.23045 0.5 20 0.5Z" stroke="black" stroke-opacity="0.5"/>
<line x1="530.5" y1="50" x2="530.5" y2="350" stroke="black" stroke-opacity="0.2"/>
<path d="M0 110L580 110" stroke="black" stroke-opacity="0.5"/>
<path d="M0 230L580 230" stroke="black" stroke-opacity="0.5"/>
<line y1="49.5" x2="580" y2="49.5" stroke="black" stroke-opacity="0.5"/>
<path d="M330 0L330 350" stroke="black" stroke-opacity="0.5"/>
<line x1="80.5" y1="2.18557e-08" x2="80.5" y2="350" stroke="black" stroke-opacity="0.5"/>
<path d="M174.402 22.4531C174.336 21.8329 174.056 21.3499 173.564 21.0043C173.076 20.6586 172.442 20.4858 171.661 20.4858C171.111 20.4858 170.64 20.5687 170.247 20.7344C169.854 20.9001 169.554 21.125 169.345 21.4091C169.137 21.6932 169.03 22.0175 169.026 22.3821C169.026 22.6851 169.094 22.9479 169.232 23.1705C169.374 23.393 169.565 23.5824 169.807 23.7386C170.048 23.8902 170.316 24.018 170.609 24.1222C170.903 24.2263 171.199 24.3139 171.497 24.3849L172.861 24.7259C173.41 24.8537 173.938 25.0265 174.445 25.2443C174.956 25.4621 175.413 25.7367 175.815 26.0682C176.223 26.3996 176.545 26.7997 176.781 27.2685C177.018 27.7372 177.136 28.2865 177.136 28.9162C177.136 29.7685 176.919 30.5189 176.483 31.1676C176.047 31.8116 175.418 32.3158 174.594 32.6804C173.775 33.0402 172.783 33.2202 171.618 33.2202C170.486 33.2202 169.504 33.045 168.67 32.6946C167.842 32.3442 167.193 31.8329 166.724 31.1605C166.26 30.4882 166.009 29.669 165.972 28.7031H168.564C168.602 29.2098 168.758 29.6312 169.033 29.9673C169.307 30.3035 169.665 30.5545 170.105 30.7202C170.55 30.8859 171.047 30.9688 171.597 30.9688C172.17 30.9688 172.671 30.8835 173.102 30.7131C173.538 30.5379 173.879 30.2964 174.125 29.9886C174.371 29.6761 174.497 29.3116 174.501 28.8949C174.497 28.5161 174.385 28.2036 174.168 27.9574C173.95 27.7064 173.644 27.4981 173.251 27.3324C172.863 27.1619 172.409 27.0104 171.888 26.8778L170.233 26.4517C169.035 26.1439 168.088 25.6776 167.392 25.0526C166.701 24.4228 166.355 23.5871 166.355 22.5455C166.355 21.6884 166.587 20.938 167.051 20.294C167.52 19.6501 168.157 19.1506 168.962 18.7955C169.767 18.4356 170.678 18.2557 171.696 18.2557C172.728 18.2557 173.633 18.4356 174.409 18.7955C175.19 19.1506 175.804 19.6454 176.249 20.2798C176.694 20.9096 176.923 21.634 176.938 22.4531H174.402ZM182.12 18.4545V33H179.485V18.4545H182.12ZM196.927 18.4545V33H194.583L187.729 23.0923H187.609V33H184.974V18.4545H187.332L194.178 28.3693H194.306V18.4545H196.927ZM209.542 23.0994C209.424 22.7159 209.261 22.3726 209.052 22.0696C208.849 21.7618 208.602 21.4991 208.314 21.2812C208.029 21.0634 207.703 20.9001 207.333 20.7912C206.964 20.6776 206.562 20.6207 206.126 20.6207C205.345 20.6207 204.649 20.8172 204.038 21.2102C203.427 21.6032 202.947 22.1809 202.596 22.9432C202.251 23.7008 202.078 24.6241 202.078 25.7131C202.078 26.8116 202.251 27.742 202.596 28.5043C202.942 29.2666 203.422 29.8466 204.038 30.2443C204.654 30.6373 205.368 30.8338 206.183 30.8338C206.922 30.8338 207.561 30.6918 208.1 30.4077C208.645 30.1236 209.064 29.7211 209.358 29.2003C209.651 28.6747 209.798 28.0592 209.798 27.3537L210.395 27.446H206.446V25.3864H212.348V27.1335C212.348 28.3788 212.083 29.456 211.552 30.3651C211.022 31.2741 210.293 31.9749 209.365 32.4673C208.437 32.955 207.371 33.1989 206.169 33.1989C204.829 33.1989 203.652 32.8982 202.639 32.2969C201.63 31.6908 200.842 30.8314 200.274 29.7188C199.71 28.6013 199.429 27.2756 199.429 25.7415C199.429 24.5672 199.594 23.5185 199.926 22.5952C200.262 21.6719 200.731 20.8883 201.332 20.2443C201.933 19.5956 202.639 19.1032 203.449 18.767C204.258 18.4261 205.139 18.2557 206.091 18.2557C206.895 18.2557 207.646 18.3741 208.342 18.6108C209.038 18.8428 209.656 19.1742 210.196 19.6051C210.74 20.036 211.188 20.5473 211.538 21.1392C211.888 21.7311 212.118 22.3845 212.227 23.0994H209.542ZM214.896 33V18.4545H217.531V30.7912H223.937V33H214.896ZM226.224 33V18.4545H235.684V20.6634H228.859V24.6122H235.194V26.821H228.859V30.7912H235.741V33H226.224Z" fill="black"/>
<path d="M416.597 33V18.4545H422.051C423.169 18.4545 424.106 18.6629 424.864 19.0795C425.626 19.4962 426.201 20.0691 426.59 20.7983C426.983 21.5227 427.179 22.3466 427.179 23.2699C427.179 24.2027 426.983 25.0312 426.59 25.7557C426.197 26.4801 425.617 27.0507 424.85 27.4673C424.083 27.8793 423.138 28.0852 422.016 28.0852H418.401V25.919H421.661C422.314 25.919 422.849 25.8054 423.266 25.5781C423.682 25.3509 423.99 25.0384 424.189 24.6406C424.393 24.2429 424.494 23.786 424.494 23.2699C424.494 22.7538 424.393 22.2992 424.189 21.9062C423.99 21.5133 423.68 21.2079 423.259 20.9901C422.842 20.7675 422.305 20.6562 421.646 20.6562H419.232V33H416.597ZM429.468 33V18.4545H432.103V30.7912H438.509V33H429.468ZM449.965 18.4545H452.6V27.9574C452.6 28.9991 452.354 29.9152 451.861 30.706C451.374 31.4967 450.687 32.1146 449.802 32.5597C448.916 33 447.882 33.2202 446.698 33.2202C445.51 33.2202 444.473 33 443.587 32.5597C442.702 32.1146 442.015 31.4967 441.528 30.706C441.04 29.9152 440.796 28.9991 440.796 27.9574V18.4545H443.431V27.7372C443.431 28.3433 443.564 28.883 443.829 29.3565C444.099 29.83 444.477 30.2017 444.965 30.4716C445.453 30.7367 446.03 30.8693 446.698 30.8693C447.366 30.8693 447.943 30.7367 448.431 30.4716C448.923 30.2017 449.302 29.83 449.567 29.3565C449.832 28.883 449.965 28.3433 449.965 27.7372V18.4545ZM455.464 33V18.4545H460.919C462.036 18.4545 462.973 18.6487 463.731 19.0369C464.493 19.4252 465.069 19.9697 465.457 20.6705C465.85 21.3665 466.046 22.1785 466.046 23.1065C466.046 24.0393 465.847 24.849 465.45 25.5355C465.057 26.2173 464.477 26.7453 463.71 27.1193C462.943 27.4886 462 27.6733 460.883 27.6733H456.998V25.4858H460.528C461.181 25.4858 461.716 25.3958 462.133 25.2159C462.55 25.0312 462.857 24.7637 463.056 24.4134C463.26 24.0582 463.362 23.6226 463.362 23.1065C463.362 22.5904 463.26 22.1501 463.056 21.7855C462.853 21.4162 462.543 21.1368 462.126 20.9474C461.709 20.7533 461.172 20.6562 460.514 20.6562H458.099V33H455.464ZM462.978 26.4091L466.579 33H463.639L460.102 26.4091H462.978ZM470.34 33H467.527L472.648 18.4545H475.901L481.029 33H478.216L474.331 21.4375H474.218L470.34 33ZM470.432 27.2969H478.102V29.4134H470.432V27.2969ZM482.944 33V18.4545H485.579V30.7912H491.986V33H482.944Z" fill="black"/>
<path d="M80 0H560C571.046 0 580 8.95431 580 20V50H80V0Z" fill="#3EB489" fill-opacity="0.15"/>
<path d="M0 50H80V350H20C8.95431 350 0 341.046 0 330V50Z" fill="#D9D9D9" fill-opacity="0.35"/>
<rect x="451" y="248" width="20" height="20" fill="white"/>
<rect x="451.5" y="248.5" width="19" height="19" stroke="black" stroke-opacity="0.5"/>
<rect x="421" y="248" width="20" height="20" fill="white"/>
<rect x="421.5" y="248.5" width="19" height="19" stroke="black" stroke-opacity="0.5"/>
<line x1="397.983" y1="240.026" x2="403.786" y2="237.32" stroke="black" stroke-opacity="0.5" stroke-width="1.5"/>
<line x1="398.317" y1="239.954" x2="404.12" y2="242.66" stroke="black" stroke-opacity="0.5" stroke-width="1.5"/>
<rect x="391" y="248" width="20" height="20" fill="white"/>
<rect x="391.5" y="248.5" width="19" height="19" stroke="black" stroke-opacity="0.5"/>
<ellipse cx="430.818" cy="278" rx="1.81818" ry="2" fill="#8B0000"/>
<ellipse cx="430.818" cy="273" rx="1.81818" ry="2" fill="#8B0000"/>
<path d="M380.623 250.022V265H378.377V250.022H380.623Z" fill="#8B0000"/>
<ellipse cx="373.818" cy="258" rx="1.81818" ry="2" fill="#8B0000"/>
<path d="M489.123 250.022V257.896H486.877V250.022H489.123Z" fill="#8B0000"/>
<path d="M484 273H492" stroke="#8B0000" stroke-width="2"/>
<path d="M457 273H465" stroke="#8B0000" stroke-width="2"/>
<rect x="451" y="129" width="20" height="20" fill="white"/>
<rect x="451.5" y="129.5" width="19" height="19" stroke="black" stroke-opacity="0.5"/>
<rect x="421" y="129" width="20" height="20" fill="white"/>
<rect x="421.5" y="129.5" width="19" height="19" stroke="black" stroke-opacity="0.5"/>
<line x1="397.983" y1="121.026" x2="403.786" y2="118.32" stroke="black" stroke-opacity="0.5" stroke-width="1.5"/>
<line x1="398.317" y1="120.954" x2="404.12" y2="123.66" stroke="black" stroke-opacity="0.5" stroke-width="1.5"/>
<rect x="391" y="129" width="20" height="20" fill="white"/>
<rect x="391.5" y="129.5" width="19" height="19" stroke="black" stroke-opacity="0.5"/>
<ellipse cx="430.818" cy="159" rx="1.81818" ry="2" fill="#8B0000"/>
<ellipse cx="430.818" cy="154" rx="1.81818" ry="2" fill="#8B0000"/>
<path d="M484.399 144.681C484.122 145.503 483.683 146.097 483.081 146.463C482.478 146.821 481.53 147 480.236 147H480.102V144.925H480.31C480.871 144.925 481.319 144.819 481.652 144.607C481.978 144.396 482.21 144.074 482.348 143.643C482.486 143.204 482.556 142.54 482.556 141.653V134.097H480.236V132.022H488.33C490.576 132.022 492.187 132.502 493.164 133.462C494.14 134.415 494.628 136.001 494.628 138.223V147H492.382V138.199C492.382 136.701 492.077 135.643 491.467 135.025C490.865 134.406 489.811 134.097 488.305 134.097H484.802V141.202C484.802 142.699 484.667 143.859 484.399 144.681Z" fill="#8B0000"/>
<ellipse cx="488.318" cy="139" rx="1.81818" ry="2" fill="black" fill-opacity="0.5"/>
<path d="M380.623 131.022V146H378.377V131.022H380.623Z" fill="#8B0000"/>
<ellipse cx="373.818" cy="139" rx="1.81818" ry="2" fill="#8B0000"/>
<path d="M484 154H492" stroke="#8B0000" stroke-width="2"/>
<path d="M457 154H465" stroke="#8B0000" stroke-width="2"/>
<ellipse cx="466.818" cy="103" rx="1.81818" ry="2" fill="#8B0000"/>
<ellipse cx="466.818" cy="98" rx="1.81818" ry="2" fill="#8B0000"/>
<rect x="451" y="71" width="20" height="20" fill="white"/>
<rect x="451.5" y="71.5" width="19" height="19" stroke="black" stroke-opacity="0.5"/>
<rect x="421" y="71" width="20" height="20" fill="white"/>
<rect x="421.5" y="71.5" width="19" height="19" stroke="black" stroke-opacity="0.5"/>
<path d="M411.898 74.0176V89.7598H410.102V74.0176H411.898Z" fill="#8B0000"/>
<circle cx="411" cy="68" r="2" fill="#8B0000"/>
<line x1="427.983" y1="63.0261" x2="433.786" y2="60.3203" stroke="black" stroke-opacity="0.5" stroke-width="1.5"/>
<line x1="428.317" y1="62.9537" x2="434.12" y2="65.6595" stroke="black" stroke-opacity="0.5" stroke-width="1.5"/>
<rect x="381" y="71" width="20" height="20" fill="white"/>
<rect x="381.5" y="71.5" width="19" height="19" stroke="black" stroke-opacity="0.5"/>
<path d="M486.856 79.8203V89H480.008V86.9248H484.61V80.4551C484.61 79.1367 484.545 78.2049 484.415 77.6597C484.285 77.0981 484.057 76.6994 483.731 76.4634C483.414 76.2192 482.954 76.0972 482.352 76.0972H480.704V74.022H482.279C483.581 74.022 484.533 74.201 485.135 74.5591C485.737 74.9253 486.173 75.5234 486.441 76.3535C486.718 77.1755 486.856 78.3311 486.856 79.8203Z" fill="#8B0000"/>
<path d="M480 98H488" stroke="#8B0000" stroke-width="2"/>
<path d="M454 98H462" stroke="#8B0000" stroke-width="2"/>
<rect x="193" y="307" width="20" height="20" fill="white"/>
<rect x="193.5" y="307.5" width="19" height="19" stroke="black" stroke-opacity="0.5"/>
<rect x="163" y="307" width="20" height="20" fill="white"/>
<rect x="163.5" y="307.5" width="19" height="19" stroke="black" stroke-opacity="0.5"/>
<line x1="169.983" y1="299.026" x2="175.786" y2="296.32" stroke="black" stroke-opacity="0.5" stroke-width="1.5"/>
<line x1="170.317" y1="298.954" x2="176.12" y2="301.66" stroke="black" stroke-opacity="0.5" stroke-width="1.5"/>
<path d="M226.399 322.681C226.122 323.503 225.683 324.097 225.081 324.463C224.478 324.821 223.53 325 222.236 325H222.102V322.925H222.31C222.871 322.925 223.319 322.819 223.652 322.607C223.978 322.396 224.21 322.074 224.348 321.643C224.486 321.204 224.556 320.54 224.556 319.653V312.097H222.236V310.022H230.33C232.576 310.022 234.187 310.502 235.164 311.462C236.14 312.415 236.628 314.001 236.628 316.223V325H234.382V316.199C234.382 314.701 234.077 313.643 233.467 313.025C232.865 312.406 231.811 312.097 230.305 312.097H226.802V319.202C226.802 320.699 226.667 321.859 226.399 322.681Z" fill="#8B0000"/>
<ellipse cx="230.318" cy="317" rx="1.81818" ry="2" fill="black" fill-opacity="0.5"/>
<ellipse cx="208.818" cy="337" rx="1.81818" ry="2" fill="#8B0000"/>
<ellipse cx="208.818" cy="332" rx="1.81818" ry="2" fill="#8B0000"/>
<path d="M153.898 310.018V325.76H152.102V310.018H153.898Z" fill="#8B0000"/>
<circle cx="153" cy="304" r="2" fill="#8B0000"/>
<rect x="123" y="307" width="20" height="20" fill="white"/>
<rect x="123.5" y="307.5" width="19" height="19" stroke="black" stroke-opacity="0.5"/>
<path d="M197 332H205" stroke="#8B0000" stroke-width="2"/>
<path d="M226 332H234" stroke="#8B0000" stroke-width="2"/>
<rect x="193" y="247" width="20" height="20" fill="white"/>
<rect x="193.5" y="247.5" width="19" height="19" stroke="black" stroke-opacity="0.5"/>
<rect x="163" y="247" width="20" height="20" fill="white"/>
<rect x="163.5" y="247.5" width="19" height="19" stroke="black" stroke-opacity="0.5"/>
<line x1="169.983" y1="239.026" x2="175.786" y2="236.32" stroke="black" stroke-opacity="0.5" stroke-width="1.5"/>
<line x1="170.317" y1="238.954" x2="176.12" y2="241.66" stroke="black" stroke-opacity="0.5" stroke-width="1.5"/>
<path d="M197 272H205" stroke="#8B0000" stroke-width="2"/>
<path d="M221 272H229" stroke="#8B0000" stroke-width="2"/>
<path d="M225.623 250.022V257.896H223.377V250.022H225.623Z" fill="#8B0000"/>
<ellipse cx="208.818" cy="277" rx="1.81818" ry="2" fill="#8B0000"/>
<ellipse cx="208.818" cy="272" rx="1.81818" ry="2" fill="#8B0000"/>
<path d="M153.898 250.018V265.76H152.102V250.018H153.898Z" fill="#8B0000"/>
<circle cx="153" cy="244" r="2" fill="#8B0000"/>
<rect x="123" y="247" width="20" height="20" fill="white"/>
<rect x="123.5" y="247.5" width="19" height="19" stroke="black" stroke-opacity="0.5"/>
<rect x="193" y="187" width="20" height="20" fill="white"/>
<rect x="193.5" y="187.5" width="19" height="19" stroke="black" stroke-opacity="0.5"/>
<rect x="163" y="187" width="20" height="20" fill="white"/>
<rect x="163.5" y="187.5" width="19" height="19" stroke="black" stroke-opacity="0.5"/>
<line x1="139.983" y1="179.026" x2="145.786" y2="176.32" stroke="black" stroke-opacity="0.5" stroke-width="1.5"/>
<line x1="140.317" y1="178.954" x2="146.12" y2="181.66" stroke="black" stroke-opacity="0.5" stroke-width="1.5"/>
<rect x="133" y="187" width="20" height="20" fill="white"/>
<rect x="133.5" y="187.5" width="19" height="19" stroke="black" stroke-opacity="0.5"/>
<ellipse cx="172.818" cy="217" rx="1.81818" ry="2" fill="#8B0000"/>
<ellipse cx="172.818" cy="212" rx="1.81818" ry="2" fill="#8B0000"/>
<path d="M226.399 202.681C226.122 203.503 225.683 204.097 225.081 204.463C224.478 204.821 223.53 205 222.236 205H222.102V202.925H222.31C222.871 202.925 223.319 202.819 223.652 202.607C223.978 202.396 224.21 202.074 224.348 201.643C224.486 201.204 224.556 200.54 224.556 199.653V192.097H222.236V190.022H230.33C232.576 190.022 234.187 190.502 235.164 191.462C236.14 192.415 236.628 194.001 236.628 196.223V205H234.382V196.199C234.382 194.701 234.077 193.643 233.467 193.025C232.865 192.406 231.811 192.097 230.305 192.097H226.802V199.202C226.802 200.699 226.667 201.859 226.399 202.681Z" fill="#8B0000"/>
<ellipse cx="230.318" cy="197" rx="1.81818" ry="2" fill="black" fill-opacity="0.5"/>
<ellipse cx="142.818" cy="212" rx="1.81818" ry="2" fill="#8B0000"/>
<path d="M122.623 189.022V196.896H120.377V189.022H122.623Z" fill="#8B0000"/>
<path d="M226 212H234" stroke="#8B0000" stroke-width="2"/>
<path d="M199 212H207" stroke="#8B0000" stroke-width="2"/>
<rect x="194" y="129" width="20" height="20" fill="white"/>
<rect x="194.5" y="129.5" width="19" height="19" stroke="black" stroke-opacity="0.5"/>
<rect x="164" y="129" width="20" height="20" fill="white"/>
<rect x="164.5" y="129.5" width="19" height="19" stroke="black" stroke-opacity="0.5"/>
<line x1="170.983" y1="121.026" x2="176.786" y2="118.32" stroke="black" stroke-opacity="0.5" stroke-width="1.5"/>
<line x1="171.317" y1="120.954" x2="177.12" y2="123.66" stroke="black" stroke-opacity="0.5" stroke-width="1.5"/>
<path d="M227.399 144.681C227.122 145.503 226.683 146.097 226.081 146.463C225.478 146.821 224.53 147 223.236 147H223.102V144.925H223.31C223.871 144.925 224.319 144.819 224.652 144.607C224.978 144.396 225.21 144.074 225.348 143.643C225.486 143.204 225.556 142.54 225.556 141.653V134.097H223.236V132.022H231.33C233.576 132.022 235.187 132.502 236.164 133.462C237.14 134.415 237.628 136.001 237.628 138.223V147H235.382V138.199C235.382 136.701 235.077 135.643 234.467 135.025C233.865 134.406 232.811 134.097 231.305 134.097H227.802V141.202C227.802 142.699 227.667 143.859 227.399 144.681Z" fill="#8B0000"/>
<ellipse cx="231.318" cy="139" rx="1.81818" ry="2" fill="black" fill-opacity="0.5"/>
<ellipse cx="209.818" cy="159" rx="1.81818" ry="2" fill="#8B0000"/>
<ellipse cx="209.818" cy="154" rx="1.81818" ry="2" fill="#8B0000"/>
<path d="M154.898 132.018V147.76H153.102V132.018H154.898Z" fill="#8B0000"/>
<circle cx="154" cy="126" r="2" fill="#8B0000"/>
<rect x="124" y="129" width="20" height="20" fill="white"/>
<rect x="124.5" y="129.5" width="19" height="19" stroke="black" stroke-opacity="0.5"/>
<path d="M227 154H235" stroke="#8B0000" stroke-width="2"/>
<path d="M198 154H206" stroke="#8B0000" stroke-width="2"/>
<rect x="194" y="71" width="20" height="20" fill="white"/>
<rect x="194.5" y="71.5" width="19" height="19" stroke="black" stroke-opacity="0.5"/>
<rect x="164" y="71" width="20" height="20" fill="white"/>
<rect x="164.5" y="71.5" width="19" height="19" stroke="black" stroke-opacity="0.5"/>
<path d="M154.898 74.0176V89.7598H153.102V74.0176H154.898Z" fill="#8B0000"/>
<circle cx="154" cy="68" r="2" fill="#8B0000"/>
<line x1="170.983" y1="63.0261" x2="176.786" y2="60.3203" stroke="black" stroke-opacity="0.5" stroke-width="1.5"/>
<line x1="171.317" y1="62.9537" x2="177.12" y2="65.6595" stroke="black" stroke-opacity="0.5" stroke-width="1.5"/>
<rect x="124" y="71" width="20" height="20" fill="white"/>
<rect x="124.5" y="71.5" width="19" height="19" stroke="black" stroke-opacity="0.5"/>
<path d="M226.301 84.0806L225.325 89H222.957L223.982 84.1294C224.275 82.7297 224.543 81.745 224.788 81.1753C225.032 80.5975 225.337 80.1296 225.703 79.7715C226.077 79.4134 226.578 79.1082 227.205 78.856L223.677 74.022H226.448L231.953 81.6025C232.563 81.0329 233.048 80.3452 233.406 79.5396C233.772 78.7257 234.012 77.7939 234.126 76.7441L234.407 74.022H236.726L236.445 76.6953C236.356 77.5905 236.193 78.3758 235.957 79.0513C235.794 79.5151 235.599 79.9587 235.371 80.3818C235.143 80.7969 234.85 81.2282 234.492 81.6758C234.142 82.1234 233.687 82.6239 233.125 83.1772L237.532 89H234.675L228.23 80.2476C227.579 80.5649 227.115 81.1143 226.838 81.8955C226.757 82.099 226.672 82.3838 226.582 82.75C226.501 83.1162 226.407 83.5597 226.301 84.0806Z" fill="#8B0000"/>
<ellipse cx="226.818" cy="98" rx="1.81818" ry="2" fill="#8B0000"/>
<ellipse cx="233.182" cy="98" rx="1.81818" ry="2" fill="#8B0000"/>
<ellipse cx="229.818" cy="103" rx="1.81818" ry="2" fill="#8B0000"/>
<ellipse cx="197.818" cy="98" rx="1.81818" ry="2" fill="#8B0000"/>
<ellipse cx="204.182" cy="98" rx="1.81818" ry="2" fill="#8B0000"/>
<ellipse cx="200.818" cy="103" rx="1.81818" ry="2" fill="#8B0000"/>
<ellipse cx="210.818" cy="103" rx="1.81818" ry="2" fill="#8B0000"/>
<ellipse cx="210.818" cy="98" rx="1.81818" ry="2" fill="#8B0000"/>
<path d="M37.0955 72.4545V87H34.4606V75.0185H34.3754L30.9734 77.1918V74.777L34.5884 72.4545H37.0955ZM46.2717 74.4858L44.5032 74.6207C44.4558 74.4077 44.3304 74.2135 44.1268 74.0384C43.9232 73.8632 43.632 73.7756 43.2532 73.7756C42.9502 73.7756 42.6826 73.8419 42.4506 73.9744C42.2186 74.1023 42.1026 74.2822 42.1026 74.5142C42.1026 74.6941 42.176 74.8433 42.3228 74.9616C42.4743 75.0753 42.7205 75.17 43.0614 75.2457L44.3612 75.5156C45.024 75.6529 45.5354 75.8826 45.8952 76.2045C46.2598 76.5265 46.4421 76.9574 46.4421 77.4972C46.4421 77.9706 46.3024 78.3849 46.0231 78.7401C45.7437 79.0952 45.3626 79.3722 44.8796 79.571C44.3967 79.7699 43.8474 79.8693 43.2319 79.8693C42.2991 79.8693 41.5487 79.6728 40.9805 79.2798C40.4123 78.8868 40.0832 78.3494 39.9933 77.6676L41.8896 77.5256C41.9558 77.8333 42.105 78.063 42.337 78.2145C42.569 78.3613 42.8673 78.4347 43.2319 78.4347C43.587 78.4347 43.8806 78.366 44.1126 78.2287C44.3493 78.0866 44.4677 77.9044 44.4677 77.6818C44.4677 77.5066 44.3919 77.3575 44.2404 77.2344C44.0936 77.1113 43.8545 77.0166 43.5231 76.9503L42.266 76.6946C41.5605 76.5526 41.0373 76.3063 40.6964 75.956C40.3602 75.6056 40.1921 75.1605 40.1921 74.6207C40.1921 73.9247 40.4691 73.3755 41.0231 72.973C41.5818 72.5705 42.3157 72.3693 43.2248 72.3693C44.1339 72.3693 44.8441 72.5634 45.3555 72.9517C45.8716 73.3352 46.177 73.8466 46.2717 74.4858ZM51.5682 72.4545V73.9247H47.2358V72.4545H51.5682ZM48.2443 70.7216H50.1832V77.4901C50.1832 77.7741 50.2472 77.9683 50.375 78.0724C50.5028 78.1719 50.6709 78.2216 50.8793 78.2216C50.9787 78.2216 51.071 78.2145 51.1562 78.2003C51.2462 78.1861 51.3196 78.1742 51.3764 78.1648L51.6889 79.6349C51.5705 79.6681 51.4261 79.7036 51.2557 79.7415C51.09 79.7746 50.8793 79.7936 50.6236 79.7983C49.9228 79.822 49.3499 79.6705 48.9048 79.3438C48.4645 79.017 48.2443 78.4915 48.2443 77.767V70.7216Z" fill="black"/>
<line x1="280.5" y1="50" x2="280.5" y2="350" stroke="black" stroke-opacity="0.2"/>
<path d="M298.042 77.0132V81.7373H296.694V77.0132H298.042ZM303.953 80.4922V86H299.844V84.7549H302.605V80.873C302.605 80.082 302.566 79.5229 302.488 79.1958C302.41 78.8589 302.273 78.6196 302.078 78.478C301.887 78.3315 301.611 78.2583 301.25 78.2583H300.261V77.0132H301.206C301.987 77.0132 302.559 77.1206 302.92 77.3354C303.281 77.5552 303.542 77.9141 303.704 78.4121C303.87 78.9053 303.953 79.5986 303.953 80.4922ZM307.651 83.0483L307.065 86H305.645L306.26 83.0776C306.436 82.2378 306.597 81.647 306.743 81.3052C306.89 80.9585 307.073 80.6777 307.292 80.4629C307.517 80.248 307.817 80.0649 308.193 79.9136L306.077 77.0132H307.739L311.042 81.5615C311.409 81.2197 311.699 80.8071 311.914 80.3237C312.134 79.8354 312.278 79.2764 312.346 78.6465L312.515 77.0132H313.906L313.738 78.6172C313.684 79.1543 313.586 79.6255 313.445 80.0308C313.347 80.3091 313.23 80.5752 313.093 80.8291C312.957 81.0781 312.781 81.3369 312.566 81.6055C312.356 81.874 312.083 82.1743 311.746 82.5063L314.39 86H312.676L308.809 80.7485C308.418 80.939 308.14 81.2686 307.974 81.7373C307.925 81.8594 307.874 82.0303 307.82 82.25C307.771 82.4697 307.715 82.7358 307.651 83.0483Z" fill="black"/>
<path d="M298.665 138.734V144H297.31V138.719C297.31 137.821 297.126 137.186 296.76 136.815C296.399 136.444 295.771 136.258 294.878 136.258H291.465V135.013H294.9C295.798 135.013 296.523 135.14 297.075 135.394C297.627 135.643 298.03 136.041 298.284 136.588C298.538 137.13 298.665 137.845 298.665 138.734ZM292.959 138.163V144H291.611V138.163H292.959ZM302.883 142.608C302.717 143.102 302.454 143.458 302.092 143.678C301.731 143.893 301.162 144 300.386 144H300.305V142.755H300.43C300.767 142.755 301.035 142.691 301.235 142.564C301.431 142.438 301.57 142.245 301.653 141.986C301.736 141.722 301.777 141.324 301.777 140.792V136.258H300.386V135.013H305.242C306.589 135.013 307.556 135.301 308.142 135.877C308.728 136.449 309.021 137.401 309.021 138.734V144H307.673V138.719C307.673 137.821 307.49 137.186 307.124 136.815C306.763 136.444 306.13 136.258 305.227 136.258H303.125V140.521C303.125 141.419 303.044 142.115 302.883 142.608ZM312.72 141.048L312.134 144H310.713L311.328 141.078C311.504 140.238 311.665 139.647 311.812 139.305C311.958 138.958 312.141 138.678 312.361 138.463C312.585 138.248 312.886 138.065 313.262 137.914L311.145 135.013H312.808L316.111 139.562C316.477 139.22 316.768 138.807 316.982 138.324C317.202 137.835 317.346 137.276 317.415 136.646L317.583 135.013H318.975L318.806 136.617C318.752 137.154 318.655 137.625 318.513 138.031C318.416 138.309 318.298 138.575 318.162 138.829C318.025 139.078 317.849 139.337 317.634 139.605C317.424 139.874 317.151 140.174 316.814 140.506L319.458 144H317.744L313.877 138.749C313.486 138.939 313.208 139.269 313.042 139.737C312.993 139.859 312.942 140.03 312.888 140.25C312.839 140.47 312.783 140.736 312.72 141.048Z" fill="black"/>
<path d="M296.579 260.048L295.993 263H294.572L295.188 260.078C295.363 259.238 295.524 258.647 295.671 258.305C295.817 257.958 296 257.678 296.22 257.463C296.445 257.248 296.745 257.065 297.121 256.914L295.004 254.013H296.667L299.97 258.562C300.336 258.22 300.627 257.807 300.842 257.324C301.062 256.835 301.206 256.276 301.274 255.646L301.442 254.013H302.834L302.666 255.617C302.612 256.154 302.514 256.625 302.373 257.031C302.275 257.309 302.158 257.575 302.021 257.829C301.884 258.078 301.708 258.337 301.494 258.605C301.284 258.874 301.01 259.174 300.673 259.506L303.317 263H301.604L297.736 257.749C297.346 257.939 297.067 258.269 296.901 258.737C296.853 258.859 296.801 259.03 296.748 259.25C296.699 259.47 296.643 259.736 296.579 260.048ZM306.13 254.013V263H304.782V254.013H306.13ZM315.717 257.734V263H314.362V257.719C314.362 256.821 314.179 256.186 313.813 255.815C313.452 255.444 312.824 255.258 311.931 255.258H308.518V254.013H311.953C312.851 254.013 313.576 254.14 314.128 254.394C314.68 254.643 315.083 255.041 315.336 255.588C315.59 256.13 315.717 256.845 315.717 257.734ZM310.012 257.163V263H308.664V257.163H310.012Z" fill="black"/>
<path d="M553.128 256.734V262H545.431V253.013H549.364C550.711 253.013 551.676 253.301 552.257 253.877C552.838 254.454 553.128 255.406 553.128 256.734ZM546.778 260.755H551.773V256.719C551.773 255.831 551.593 255.198 551.231 254.822C550.875 254.446 550.248 254.258 549.349 254.258H546.778V260.755ZM562.65 256.734V262H561.295V256.719C561.295 255.821 561.112 255.186 560.746 254.815C560.384 254.444 559.757 254.258 558.863 254.258H555.45V253.013H558.885C559.784 253.013 560.509 253.14 561.061 253.394C561.612 253.643 562.015 254.041 562.269 254.588C562.523 255.13 562.65 255.845 562.65 256.734ZM556.944 256.163V262H555.597V256.163H556.944Z" fill="black"/>
<path d="M549.92 314.013V325.82H548.573V314.013H549.92ZM559.508 317.734V323H558.153V317.719C558.153 316.821 557.97 316.186 557.604 315.815C557.242 315.444 556.615 315.258 555.721 315.258H552.308V314.013H555.743C556.642 314.013 557.367 314.14 557.918 314.394C558.47 314.643 558.873 315.041 559.127 315.588C559.381 316.13 559.508 316.845 559.508 317.734ZM553.802 317.163V323H552.455V317.163H553.802Z" fill="black"/>
<path d="M296.579 320.048L295.993 323H294.572L295.188 320.078C295.363 319.238 295.524 318.647 295.671 318.305C295.817 317.958 296 317.678 296.22 317.463C296.445 317.248 296.745 317.065 297.121 316.914L295.004 314.013H296.667L299.97 318.562C300.336 318.22 300.627 317.807 300.842 317.324C301.062 316.835 301.206 316.276 301.274 315.646L301.442 314.013H302.834L302.666 315.617C302.612 316.154 302.514 316.625 302.373 317.031C302.275 317.309 302.158 317.575 302.021 317.829C301.884 318.078 301.708 318.337 301.494 318.605C301.284 318.874 301.01 319.174 300.673 319.506L303.317 323H301.604L297.736 317.749C297.346 317.939 297.067 318.269 296.901 318.737C296.853 318.859 296.801 319.03 296.748 319.25C296.699 319.47 296.643 319.736 296.579 320.048ZM306.13 314.013V318.737H304.782V314.013H306.13ZM315.717 317.734V323H314.362V317.719C314.362 316.821 314.179 316.186 313.813 315.815C313.452 315.444 312.824 315.258 311.931 315.258H308.518V314.013H311.953C312.851 314.013 313.576 314.14 314.128 314.394C314.68 314.643 315.083 315.041 315.336 315.588C315.59 316.13 315.717 316.845 315.717 317.734ZM310.012 317.163V323H308.664V317.163H310.012Z" fill="black"/>
<path d="M298.13 200.608C297.964 201.102 297.7 201.458 297.339 201.678C296.978 201.893 296.409 202 295.632 202H295.552V200.755H295.676C296.013 200.755 296.282 200.691 296.482 200.564C296.677 200.438 296.816 200.245 296.899 199.986C296.982 199.722 297.024 199.324 297.024 198.792V194.258H295.632V193.013H300.488C301.836 193.013 302.803 193.301 303.389 193.877C303.975 194.449 304.268 195.401 304.268 196.734V202H302.92V196.719C302.92 195.821 302.737 195.186 302.371 194.815C302.009 194.444 301.377 194.258 300.474 194.258H298.372V198.521C298.372 199.419 298.291 200.115 298.13 200.608ZM307.966 199.048L307.38 202H305.959L306.575 199.078C306.75 198.238 306.912 197.647 307.058 197.305C307.205 196.958 307.388 196.678 307.607 196.463C307.832 196.248 308.132 196.065 308.508 195.914L306.392 193.013H308.054L311.357 197.562C311.724 197.22 312.014 196.807 312.229 196.324C312.449 195.835 312.593 195.276 312.661 194.646L312.83 193.013H314.221L314.053 194.617C313.999 195.154 313.901 195.625 313.76 196.031C313.662 196.309 313.545 196.575 313.408 196.829C313.271 197.078 313.096 197.337 312.881 197.605C312.671 197.874 312.397 198.174 312.061 198.506L314.705 202H312.991L309.124 196.749C308.733 196.939 308.455 197.269 308.289 197.737C308.24 197.859 308.188 198.03 308.135 198.25C308.086 198.47 308.03 198.736 307.966 199.048Z" fill="black"/>
<path d="M540.183 77.0132V86H538.835V77.0132H540.183ZM546.094 80.4922V86H541.985V84.7549H544.746V80.873C544.746 80.082 544.707 79.5229 544.629 79.1958C544.551 78.8589 544.414 78.6196 544.219 78.478C544.028 78.3315 543.752 78.2583 543.391 78.2583H542.402V77.0132H543.347C544.128 77.0132 544.7 77.1206 545.061 77.3354C545.422 77.5552 545.684 77.9141 545.845 78.4121C546.011 78.9053 546.094 79.5986 546.094 80.4922ZM554.619 80.7192C554.619 79.8306 554.438 79.1982 554.077 78.8223C553.721 78.4463 553.093 78.2583 552.195 78.2583H549.924V86H548.577V77.0132H552.209C553.557 77.0132 554.521 77.3013 555.103 77.8774C555.684 78.4536 555.974 79.4058 555.974 80.7339V86H554.619V80.7192ZM561.812 80.4922V86H557.703V84.7549H560.464V80.873C560.464 80.082 560.425 79.5229 560.347 79.1958C560.269 78.8589 560.132 78.6196 559.937 78.478C559.746 78.3315 559.47 78.2583 559.109 78.2583H558.12V77.0132H559.065C559.846 77.0132 560.417 77.1206 560.779 77.3354C561.14 77.5552 561.401 77.9141 561.562 78.4121C561.729 78.9053 561.812 79.5986 561.812 80.4922ZM565.51 83.0483L564.924 86H563.503L564.119 83.0776C564.294 82.2378 564.456 81.647 564.602 81.3052C564.749 80.9585 564.932 80.6777 565.151 80.4629C565.376 80.248 565.676 80.0649 566.052 79.9136L563.936 77.0132H565.598L568.901 81.5615C569.268 81.2197 569.558 80.8071 569.773 80.3237C569.993 79.8354 570.137 79.2764 570.205 78.6465L570.374 77.0132H571.765L571.597 78.6172C571.543 79.1543 571.445 79.6255 571.304 80.0308C571.206 80.3091 571.089 80.5752 570.952 80.8291C570.815 81.0781 570.64 81.3369 570.425 81.6055C570.215 81.874 569.941 82.1743 569.604 82.5063L572.249 86H570.535L566.667 80.7485C566.277 80.939 565.999 81.2686 565.833 81.7373C565.784 81.8594 565.732 82.0303 565.679 82.25C565.63 82.4697 565.574 82.7358 565.51 83.0483Z" fill="black"/>
<path d="M548.487 140.734V146H540.789V137.013H544.722C546.07 137.013 547.034 137.301 547.615 137.877C548.196 138.454 548.487 139.406 548.487 140.734ZM542.137 144.755H547.132V140.719C547.132 139.831 546.951 139.198 546.59 138.822C546.233 138.446 545.606 138.258 544.708 138.258H542.137V144.755ZM552.72 144.608C552.554 145.102 552.291 145.458 551.929 145.678C551.568 145.893 550.999 146 550.223 146H550.142V144.755H550.267C550.604 144.755 550.872 144.691 551.072 144.564C551.268 144.438 551.407 144.245 551.49 143.986C551.573 143.722 551.614 143.324 551.614 142.792V138.258H550.223V137.013H555.079C556.426 137.013 557.393 137.301 557.979 137.877C558.565 138.449 558.858 139.401 558.858 140.734V146H557.51V140.719C557.51 139.821 557.327 139.186 556.961 138.815C556.6 138.444 555.967 138.258 555.064 138.258H552.962V142.521C552.962 143.419 552.881 144.115 552.72 144.608ZM562.557 143.048L561.971 146H560.55L561.165 143.078C561.341 142.238 561.502 141.647 561.648 141.305C561.795 140.958 561.978 140.678 562.198 140.463C562.422 140.248 562.723 140.065 563.099 139.914L560.982 137.013H562.645L565.948 141.562C566.314 141.22 566.604 140.807 566.819 140.324C567.039 139.835 567.183 139.276 567.251 138.646L567.42 137.013H568.812L568.643 138.617C568.589 139.154 568.492 139.625 568.35 140.031C568.252 140.309 568.135 140.575 567.999 140.829C567.862 141.078 567.686 141.337 567.471 141.605C567.261 141.874 566.988 142.174 566.651 142.506L569.295 146H567.581L563.714 140.749C563.323 140.939 563.045 141.269 562.879 141.737C562.83 141.859 562.779 142.03 562.725 142.25C562.676 142.47 562.62 142.736 562.557 143.048Z" fill="black"/>
<path d="M545.279 193.013V204.82H543.931V193.013H545.279ZM549.578 200.608C549.412 201.102 549.148 201.458 548.787 201.678C548.426 201.893 547.857 202 547.081 202H547V200.755H547.125C547.461 200.755 547.73 200.691 547.93 200.564C548.125 200.438 548.265 200.245 548.348 199.986C548.431 199.722 548.472 199.324 548.472 198.792V194.258H547.081V193.013H551.937C553.284 193.013 554.251 193.301 554.837 193.877C555.423 194.449 555.716 195.401 555.716 196.734V202H554.368V196.719C554.368 195.821 554.185 195.186 553.819 194.815C553.458 194.444 552.825 194.258 551.922 194.258H549.82V198.521C549.82 199.419 549.739 200.115 549.578 200.608ZM559.415 199.048L558.829 202H557.408L558.023 199.078C558.199 198.238 558.36 197.647 558.506 197.305C558.653 196.958 558.836 196.678 559.056 196.463C559.28 196.248 559.581 196.065 559.957 195.914L557.84 193.013H559.502L562.806 197.562C563.172 197.22 563.462 196.807 563.677 196.324C563.897 195.835 564.041 195.276 564.109 194.646L564.278 193.013H565.669L565.501 194.617C565.447 195.154 565.35 195.625 565.208 196.031C565.11 196.309 564.993 196.575 564.856 196.829C564.72 197.078 564.544 197.337 564.329 197.605C564.119 197.874 563.846 198.174 563.509 198.506L566.153 202H564.439L560.572 196.749C560.181 196.939 559.903 197.269 559.737 197.737C559.688 197.859 559.637 198.03 559.583 198.25C559.534 198.47 559.478 198.736 559.415 199.048Z" fill="black"/>
<path d="M12.7321 182V180.097L17.7818 175.146C18.2647 174.659 18.6672 174.225 18.9892 173.847C19.3111 173.468 19.5526 173.101 19.7136 172.746C19.8746 172.391 19.9551 172.012 19.9551 171.609C19.9551 171.15 19.8509 170.757 19.6426 170.43C19.4342 170.099 19.1478 169.843 18.7832 169.663C18.4186 169.483 18.0043 169.393 17.5403 169.393C17.0621 169.393 16.6431 169.493 16.2832 169.692C15.9234 169.886 15.644 170.163 15.4451 170.523C15.251 170.883 15.1539 171.311 15.1539 171.808H12.6468C12.6468 170.885 12.8575 170.082 13.2789 169.401C13.7003 168.719 14.2804 168.191 15.019 167.817C15.7624 167.443 16.6146 167.256 17.5758 167.256C18.5512 167.256 19.4082 167.438 20.1468 167.803C20.8855 168.167 21.4584 168.667 21.8656 169.301C22.2775 169.936 22.4835 170.66 22.4835 171.474C22.4835 172.019 22.3793 172.554 22.171 173.08C21.9627 173.605 21.5957 174.187 21.0701 174.827C20.5493 175.466 19.8178 176.24 18.8755 177.149L16.3684 179.699V179.798H22.7037V182H12.7321ZM26.6099 170.537V174.727H24.671V167.455H26.5176V168.726H26.6028C26.7638 168.309 27.0337 167.98 27.4125 167.739C27.796 167.492 28.2553 167.369 28.7903 167.369C29.5337 167.369 30.135 167.611 30.5943 168.094C31.0583 168.577 31.2903 169.249 31.2903 170.111V174.727H29.3514V170.445C29.3514 169.985 29.2306 169.628 28.9892 169.372C28.7524 169.116 28.4305 168.989 28.0233 168.989C27.6113 168.989 27.2728 169.124 27.0076 169.393C26.7425 169.663 26.6099 170.045 26.6099 170.537ZM39.6745 174.727H37.7711V173.584H37.6788C37.5936 173.75 37.4705 173.932 37.3095 174.131C37.1485 174.33 36.9307 174.5 36.6561 174.642C36.3862 174.784 36.0405 174.855 35.6191 174.855C35.0652 174.855 34.5633 174.713 34.1135 174.429C33.6636 174.14 33.3062 173.716 33.041 173.158C32.7806 172.599 32.6504 171.915 32.6504 171.105C32.6504 170.286 32.7853 169.599 33.0552 169.045C33.3251 168.487 33.685 168.068 34.1348 167.788C34.5846 167.509 35.0794 167.369 35.6191 167.369C36.0311 167.369 36.3743 167.44 36.649 167.582C36.9236 167.72 37.1414 167.89 37.3024 168.094C37.4681 168.293 37.5936 168.482 37.6788 168.662H37.7427V165.04H39.6745V174.727ZM37.7853 171.091C37.7853 170.442 37.648 169.919 37.3734 169.521C37.1035 169.119 36.7153 168.918 36.2086 168.918C35.6878 168.918 35.2924 169.124 35.0225 169.536C34.7574 169.947 34.6248 170.466 34.6248 171.091C34.6248 171.522 34.6864 171.903 34.8095 172.234C34.9326 172.566 35.1101 172.826 35.3422 173.016C35.5789 173.2 35.8677 173.293 36.2086 173.293C36.5401 173.293 36.8242 173.2 37.0609 173.016C37.2976 172.831 37.4776 172.575 37.6007 172.249C37.7238 171.917 37.7853 171.531 37.7853 171.091Z" fill="black"/>
<path d="M58.3464 145V134.091H60.8038V135.945H60.9316C61.1589 135.32 61.5353 134.832 62.0609 134.482C62.5865 134.126 63.2138 133.949 63.943 133.949C64.6816 133.949 65.3043 134.129 65.8109 134.489C66.3223 134.844 66.6821 135.329 66.8904 135.945H67.0041C67.2456 135.339 67.6528 134.856 68.2257 134.496C68.8033 134.131 69.4875 133.949 70.2782 133.949C71.282 133.949 72.1011 134.266 72.7356 134.901C73.3701 135.535 73.6873 136.461 73.6873 137.678V145H71.1092V138.075C71.1092 137.398 70.9293 136.903 70.5694 136.591C70.2096 136.274 69.7692 136.115 69.2484 136.115C68.6281 136.115 68.1428 136.309 67.7924 136.697C67.4468 137.081 67.274 137.58 67.274 138.196V145H64.7527V137.969C64.7527 137.405 64.5822 136.955 64.2413 136.619C63.9051 136.283 63.4648 136.115 62.9203 136.115C62.551 136.115 62.2148 136.21 61.9118 136.399C61.6087 136.584 61.3672 136.847 61.1873 137.188C61.0074 137.524 60.9174 137.917 60.9174 138.366V145H58.3464Z" fill="black"/>
<path d="M69.0771 194.091V196.08H62.6282V194.091H69.0771ZM64.2404 205V193.061C64.2404 192.327 64.3919 191.716 64.695 191.229C65.0027 190.741 65.4147 190.376 65.9308 190.135C66.4469 189.893 67.0198 189.773 67.6495 189.773C68.0946 189.773 68.4899 189.808 68.8356 189.879C69.1812 189.95 69.4369 190.014 69.6026 190.071L69.0913 192.06C68.9824 192.027 68.8451 191.993 68.6793 191.96C68.5136 191.922 68.329 191.903 68.1254 191.903C67.6471 191.903 67.3086 192.019 67.1097 192.251C66.9156 192.479 66.8185 192.805 66.8185 193.232V205H64.2404Z" fill="black"/>
<line x1="50.5" y1="110" x2="50.5" y2="230" stroke="black" stroke-opacity="0.35"/>
<path d="M19.6046 302.199C18.5819 302.199 17.6728 302.024 16.8773 301.673C16.0866 301.323 15.4616 300.835 15.0023 300.21C14.543 299.585 14.2992 298.863 14.2708 298.044H16.9412C16.9649 298.437 17.0951 298.78 17.3319 299.074C17.5686 299.363 17.8835 299.588 18.2765 299.749C18.6694 299.91 19.1098 299.99 19.5975 299.99C20.1183 299.99 20.58 299.9 20.9824 299.72C21.3849 299.536 21.6998 299.28 21.927 298.953C22.1543 298.626 22.2656 298.25 22.2608 297.824C22.2656 297.384 22.1519 296.995 21.9199 296.659C21.6879 296.323 21.3517 296.06 20.9114 295.871C20.4758 295.681 19.9502 295.587 19.3347 295.587H18.0492V293.555H19.3347C19.8413 293.555 20.284 293.468 20.6628 293.293C21.0463 293.117 21.347 292.871 21.5648 292.554C21.7826 292.232 21.8891 291.86 21.8844 291.439C21.8891 291.027 21.7968 290.67 21.6074 290.366C21.4228 290.059 21.16 289.82 20.8191 289.649C20.4829 289.479 20.0875 289.393 19.633 289.393C19.1879 289.393 18.776 289.474 18.3972 289.635C18.0184 289.796 17.713 290.026 17.481 290.324C17.249 290.617 17.1259 290.968 17.1117 291.375H14.5762C14.5951 290.561 14.8295 289.846 15.2793 289.23C15.7338 288.61 16.3399 288.127 17.0975 287.781C17.8551 287.431 18.705 287.256 19.6472 287.256C20.6178 287.256 21.4606 287.438 22.1756 287.803C22.8953 288.162 23.4516 288.648 23.8446 289.259C24.2376 289.869 24.4341 290.544 24.4341 291.283C24.4389 292.102 24.1974 292.788 23.7097 293.342C23.2267 293.896 22.5923 294.259 21.8063 294.429V294.543C22.829 294.685 23.6126 295.063 24.1571 295.679C24.7064 296.29 24.9786 297.05 24.9739 297.959C24.9739 298.773 24.7419 299.502 24.2779 300.146C23.8186 300.786 23.1841 301.287 22.3745 301.652C21.5695 302.017 20.6462 302.199 19.6046 302.199ZM26.9288 294.727V287.455H28.818V288.697H28.889C29.0169 288.262 29.2394 287.93 29.5566 287.703C29.8786 287.471 30.2432 287.355 30.6504 287.355C30.854 287.355 31.0339 287.381 31.1902 287.433C31.3511 287.481 31.4979 287.547 31.6305 287.632L31.0481 289.223C30.9487 289.18 30.8398 289.145 30.7214 289.116C30.6078 289.083 30.4847 289.067 30.3521 289.067C29.9402 289.067 29.5898 289.209 29.301 289.493C29.0121 289.777 28.8677 290.137 28.8677 290.572V294.727H26.9288ZM39.0222 294.727H37.1188V293.584H37.0265C36.9412 293.75 36.8181 293.932 36.6571 294.131C36.4962 294.33 36.2783 294.5 36.0037 294.642C35.7338 294.784 35.3882 294.855 34.9668 294.855C34.4128 294.855 33.9109 294.713 33.4611 294.429C33.0113 294.14 32.6538 293.716 32.3887 293.158C32.1283 292.599 31.998 291.915 31.998 291.105C31.998 290.286 32.133 289.599 32.4029 289.045C32.6728 288.487 33.0326 288.068 33.4824 287.788C33.9322 287.509 34.427 287.369 34.9668 287.369C35.3787 287.369 35.722 287.44 35.9966 287.582C36.2712 287.72 36.4891 287.89 36.65 288.094C36.8158 288.293 36.9412 288.482 37.0265 288.662H37.0904V285.04H39.0222V294.727ZM37.133 291.091C37.133 290.442 36.9957 289.919 36.7211 289.521C36.4512 289.119 36.0629 288.918 35.5563 288.918C35.0355 288.918 34.6401 289.124 34.3702 289.536C34.1051 289.947 33.9725 290.466 33.9725 291.091C33.9725 291.522 34.034 291.903 34.1571 292.234C34.2802 292.566 34.4578 292.826 34.6898 293.016C34.9266 293.2 35.2154 293.293 35.5563 293.293C35.8877 293.293 36.1718 293.2 36.4086 293.016C36.6453 292.831 36.8252 292.575 36.9483 292.249C37.0714 291.917 37.133 291.531 37.133 291.091Z" fill="black"/>
<path d="M58.3464 265V254.091H60.8038V255.945H60.9316C61.1589 255.32 61.5353 254.832 62.0609 254.482C62.5865 254.126 63.2138 253.949 63.943 253.949C64.6816 253.949 65.3043 254.129 65.8109 254.489C66.3223 254.844 66.6821 255.329 66.8904 255.945H67.0041C67.2456 255.339 67.6528 254.856 68.2257 254.496C68.8033 254.131 69.4875 253.949 70.2782 253.949C71.282 253.949 72.1011 254.266 72.7356 254.901C73.3701 255.535 73.6873 256.461 73.6873 257.678V265H71.1092V258.075C71.1092 257.398 70.9293 256.903 70.5694 256.591C70.2096 256.274 69.7692 256.115 69.2484 256.115C68.6281 256.115 68.1428 256.309 67.7924 256.697C67.4468 257.081 67.274 257.58 67.274 258.196V265H64.7527V257.969C64.7527 257.405 64.5822 256.955 64.2413 256.619C63.9051 256.283 63.4648 256.115 62.9203 256.115C62.551 256.115 62.2148 256.21 61.9118 256.399C61.6087 256.584 61.3672 256.847 61.1873 257.188C61.0074 257.524 60.9174 257.917 60.9174 258.366V265H58.3464Z" fill="black"/>
<path d="M69.0771 314.091V316.08H62.6282V314.091H69.0771ZM64.2404 325V313.061C64.2404 312.327 64.3919 311.716 64.695 311.229C65.0027 310.741 65.4147 310.376 65.9308 310.135C66.4469 309.893 67.0198 309.773 67.6495 309.773C68.0946 309.773 68.4899 309.808 68.8356 309.879C69.1812 309.95 69.4369 310.014 69.6026 310.071L69.0913 312.06C68.9824 312.027 68.8451 311.993 68.6793 311.96C68.5136 311.922 68.329 311.903 68.1254 311.903C67.6471 311.903 67.3086 312.019 67.1097 312.251C66.9156 312.479 66.8185 312.805 66.8185 313.232V325H64.2404Z" fill="black"/>
<line x1="50.5" y1="230" x2="50.5" y2="350" stroke="black" stroke-opacity="0.35"/>
</svg>
