<svg width="96" height="23" viewBox="0 0 96 23" fill="none" xmlns="http://www.w3.org/2000/svg">
<path d="M8.63379 11.6807V18H7.00781V11.6631C7.00781 10.5967 6.79102 9.83789 6.35742 9.38672C5.92969 8.93555 5.17676 8.70996 4.09863 8.70996H0.802734V7.21582H4.11621C5.19434 7.21582 6.06445 7.36816 6.72656 7.67285C7.38867 7.97168 7.87207 8.44922 8.17676 9.10547C8.48145 9.75586 8.63379 10.6143 8.63379 11.6807ZM18.7684 16.2102L18.6661 16.9006C18.5937 17.3864 18.4829 17.9062 18.3337 18.4602C18.1888 19.0142 18.0376 19.5362 17.8799 20.0263C17.7222 20.5163 17.5922 20.9063 17.49 21.196H16.3394C16.3948 20.9233 16.4672 20.5632 16.5567 20.1158C16.6462 19.6683 16.7357 19.1676 16.8252 18.6136C16.9189 18.0639 16.9956 17.5014 17.0553 16.9261L17.132 16.2102H18.7684ZM20.543 16.5762C22.166 16.5762 23.4375 16.4268 24.3574 16.1279L21.0967 7.21582H22.8809L25.7637 15.4424C26.3145 15.0498 26.7568 14.5254 27.0908 13.8691C27.4307 13.207 27.6768 12.3398 27.8291 11.2676C27.9873 10.1953 28.0664 8.84473 28.0664 7.21582H29.7627C29.7627 9.92285 29.4756 12.0439 28.9014 13.5791C28.5146 14.5986 27.9727 15.4424 27.2754 16.1104C26.5781 16.7725 25.6787 17.2822 24.5771 17.6396C23.4814 17.9912 22.1367 18.208 20.543 18.29V16.5762ZM39.3524 16.2102L39.2501 16.9006C39.1776 17.3864 39.0669 17.9062 38.9177 18.4602C38.7728 19.0142 38.6215 19.5362 38.4639 20.0263C38.3062 20.5163 38.1762 20.9063 38.074 21.196H36.9234C36.9788 20.9233 37.0512 20.5632 37.1407 20.1158C37.2302 19.6683 37.3197 19.1676 37.4092 18.6136C37.5029 18.0639 37.5796 17.5014 37.6393 16.9261L37.716 16.2102H39.3524ZM49.5469 11.6631C49.5469 10.5967 49.3301 9.83789 48.8965 9.38672C48.4688 8.93555 47.7158 8.70996 46.6377 8.70996H43.9131V18H42.2959V7.21582H46.6553C48.2725 7.21582 49.4297 7.56152 50.127 8.25293C50.8242 8.94434 51.1729 10.0869 51.1729 11.6807V18H49.5469V11.6631ZM61.3074 16.2102L61.2052 16.9006C61.1327 17.3864 61.0219 17.9062 60.8728 18.4602C60.7279 19.0142 60.5766 19.5362 60.4189 20.0263C60.2613 20.5163 60.1313 20.9063 60.029 21.196H58.8785C58.9339 20.9233 59.0063 20.5632 59.0958 20.1158C59.1853 19.6683 59.2748 19.1676 59.3643 18.6136C59.458 18.0639 59.5347 17.5014 59.5944 16.9261L59.6711 16.2102H61.3074ZM72.6973 11.6807V18H71.0713V11.6631C71.0713 10.585 70.8516 9.82324 70.4121 9.37793C69.9785 8.93262 69.2256 8.70996 68.1533 8.70996H64.0576V7.21582H68.1797C69.2578 7.21582 70.1279 7.36816 70.79 7.67285C71.4521 7.97168 71.9355 8.44922 72.2402 9.10547C72.5449 9.75586 72.6973 10.6143 72.6973 11.6807ZM65.8506 10.9951V18H64.2334V10.9951H65.8506ZM82.8231 16.2102L82.7208 16.9006C82.6483 17.3864 82.5376 17.9062 82.3884 18.4602C82.2435 19.0142 82.0922 19.5362 81.9346 20.0263C81.7769 20.5163 81.6469 20.9063 81.5447 21.196H80.3941C80.4495 20.9233 80.5219 20.5632 80.6114 20.1158C80.7009 19.6683 80.7904 19.1676 80.8799 18.6136C80.9736 18.0639 81.0503 17.5014 81.11 16.9261L81.1867 16.2102H82.8231ZM87.2256 14.458L86.5225 18H84.8174L85.5557 14.4932C85.7666 13.4854 85.96 12.7764 86.1357 12.3662C86.3115 11.9502 86.5312 11.6133 86.7949 11.3555C87.0645 11.0977 87.4248 10.8779 87.876 10.6963L85.3359 7.21582H87.3311L91.2949 12.6738C91.7344 12.2637 92.083 11.7686 92.3408 11.1885C92.6045 10.6025 92.7773 9.93164 92.8594 9.17578L93.0615 7.21582H94.7314L94.5293 9.14062C94.4648 9.78516 94.3477 10.3506 94.1777 10.8369C94.0605 11.1709 93.9199 11.4902 93.7559 11.7949C93.5918 12.0938 93.3809 12.4043 93.123 12.7266C92.8711 13.0488 92.543 13.4092 92.1387 13.8076L95.3115 18H93.2549L88.6143 11.6982C88.1455 11.9268 87.8115 12.3223 87.6123 12.8848C87.5537 13.0312 87.4922 13.2363 87.4277 13.5C87.3691 13.7637 87.3018 14.083 87.2256 14.458Z" fill="#8B0000"/>
</svg>
