<svg width="580" height="170" viewBox="0 0 580 170" fill="none" xmlns="http://www.w3.org/2000/svg">
<path d="M0 20C0 8.9543 8.95431 0 20 0H560C571.046 0 580 8.95431 580 20V150C580 161.046 571.046 170 560 170H20C8.95432 170 0 161.046 0 150V20Z" fill="white"/>
<path d="M0.5 20C0.5 9.23045 9.23045 0.5 20 0.5H560C570.77 0.5 579.5 9.23045 579.5 20V150C579.5 160.77 570.77 169.5 560 169.5H20C9.23046 169.5 0.5 160.77 0.5 150V20Z" stroke="black" stroke-opacity="0.5"/>
<path d="M0 110L330 110" stroke="black" stroke-opacity="0.5"/>
<line y1="49.5" x2="580" y2="49.5" stroke="black" stroke-opacity="0.5"/>
<path d="M330 1.85774e-08L330 170" stroke="black" stroke-opacity="0.5"/>
<line x1="80.5" y1="2.18557e-08" x2="80.5" y2="170" stroke="black" stroke-opacity="0.5"/>
<path d="M174.402 22.4531C174.336 21.8329 174.056 21.3499 173.564 21.0043C173.076 20.6586 172.442 20.4858 171.661 20.4858C171.111 20.4858 170.64 20.5687 170.247 20.7344C169.854 20.9001 169.554 21.125 169.345 21.4091C169.137 21.6932 169.03 22.0175 169.026 22.3821C169.026 22.6851 169.094 22.9479 169.232 23.1705C169.374 23.393 169.565 23.5824 169.807 23.7386C170.048 23.8902 170.316 24.018 170.609 24.1222C170.903 24.2263 171.199 24.3139 171.497 24.3849L172.861 24.7259C173.41 24.8537 173.938 25.0265 174.445 25.2443C174.956 25.4621 175.413 25.7367 175.815 26.0682C176.223 26.3996 176.545 26.7997 176.781 27.2685C177.018 27.7372 177.136 28.2865 177.136 28.9162C177.136 29.7685 176.919 30.5189 176.483 31.1676C176.047 31.8116 175.418 32.3158 174.594 32.6804C173.775 33.0402 172.783 33.2202 171.618 33.2202C170.486 33.2202 169.504 33.045 168.67 32.6946C167.842 32.3442 167.193 31.8329 166.724 31.1605C166.26 30.4882 166.009 29.669 165.972 28.7031H168.564C168.602 29.2098 168.758 29.6312 169.033 29.9673C169.307 30.3035 169.665 30.5545 170.105 30.7202C170.55 30.8859 171.047 30.9688 171.597 30.9688C172.17 30.9688 172.671 30.8835 173.102 30.7131C173.538 30.5379 173.879 30.2964 174.125 29.9886C174.371 29.6761 174.497 29.3116 174.501 28.8949C174.497 28.5161 174.385 28.2036 174.168 27.9574C173.95 27.7064 173.644 27.4981 173.251 27.3324C172.863 27.1619 172.409 27.0104 171.888 26.8778L170.233 26.4517C169.035 26.1439 168.088 25.6776 167.392 25.0526C166.701 24.4228 166.355 23.5871 166.355 22.5455C166.355 21.6884 166.587 20.938 167.051 20.294C167.52 19.6501 168.157 19.1506 168.962 18.7955C169.767 18.4356 170.678 18.2557 171.696 18.2557C172.728 18.2557 173.633 18.4356 174.409 18.7955C175.19 19.1506 175.804 19.6454 176.249 20.2798C176.694 20.9096 176.923 21.634 176.938 22.4531H174.402ZM182.12 18.4545V33H179.485V18.4545H182.12ZM196.927 18.4545V33H194.583L187.729 23.0923H187.609V33H184.974V18.4545H187.332L194.178 28.3693H194.306V18.4545H196.927ZM209.542 23.0994C209.424 22.7159 209.261 22.3726 209.052 22.0696C208.849 21.7618 208.602 21.4991 208.314 21.2812C208.029 21.0634 207.703 20.9001 207.333 20.7912C206.964 20.6776 206.562 20.6207 206.126 20.6207C205.345 20.6207 204.649 20.8172 204.038 21.2102C203.427 21.6032 202.947 22.1809 202.596 22.9432C202.251 23.7008 202.078 24.6241 202.078 25.7131C202.078 26.8116 202.251 27.742 202.596 28.5043C202.942 29.2666 203.422 29.8466 204.038 30.2443C204.654 30.6373 205.368 30.8338 206.183 30.8338C206.922 30.8338 207.561 30.6918 208.1 30.4077C208.645 30.1236 209.064 29.7211 209.358 29.2003C209.651 28.6747 209.798 28.0592 209.798 27.3537L210.395 27.446H206.446V25.3864H212.348V27.1335C212.348 28.3788 212.083 29.456 211.552 30.3651C211.022 31.2741 210.293 31.9749 209.365 32.4673C208.437 32.955 207.371 33.1989 206.169 33.1989C204.829 33.1989 203.652 32.8982 202.639 32.2969C201.63 31.6908 200.842 30.8314 200.274 29.7188C199.71 28.6013 199.429 27.2756 199.429 25.7415C199.429 24.5672 199.594 23.5185 199.926 22.5952C200.262 21.6719 200.731 20.8883 201.332 20.2443C201.933 19.5956 202.639 19.1032 203.449 18.767C204.258 18.4261 205.139 18.2557 206.091 18.2557C206.895 18.2557 207.646 18.3741 208.342 18.6108C209.038 18.8428 209.656 19.1742 210.196 19.6051C210.74 20.036 211.188 20.5473 211.538 21.1392C211.888 21.7311 212.118 22.3845 212.227 23.0994H209.542ZM214.896 33V18.4545H217.531V30.7912H223.937V33H214.896ZM226.224 33V18.4545H235.684V20.6634H228.859V24.6122H235.194V26.821H228.859V30.7912H235.741V33H226.224Z" fill="black"/>
<path d="M416.597 33V18.4545H422.051C423.169 18.4545 424.106 18.6629 424.864 19.0795C425.626 19.4962 426.201 20.0691 426.59 20.7983C426.983 21.5227 427.179 22.3466 427.179 23.2699C427.179 24.2027 426.983 25.0312 426.59 25.7557C426.197 26.4801 425.617 27.0507 424.85 27.4673C424.083 27.8793 423.138 28.0852 422.016 28.0852H418.401V25.919H421.661C422.314 25.919 422.849 25.8054 423.266 25.5781C423.682 25.3509 423.99 25.0384 424.189 24.6406C424.393 24.2429 424.494 23.786 424.494 23.2699C424.494 22.7538 424.393 22.2992 424.189 21.9062C423.99 21.5133 423.68 21.2079 423.259 20.9901C422.842 20.7675 422.305 20.6562 421.646 20.6562H419.232V33H416.597ZM429.468 33V18.4545H432.103V30.7912H438.509V33H429.468ZM449.965 18.4545H452.6V27.9574C452.6 28.9991 452.354 29.9152 451.861 30.706C451.374 31.4967 450.687 32.1146 449.802 32.5597C448.916 33 447.882 33.2202 446.698 33.2202C445.51 33.2202 444.473 33 443.587 32.5597C442.702 32.1146 442.015 31.4967 441.528 30.706C441.04 29.9152 440.796 28.9991 440.796 27.9574V18.4545H443.431V27.7372C443.431 28.3433 443.564 28.883 443.829 29.3565C444.099 29.83 444.477 30.2017 444.965 30.4716C445.453 30.7367 446.03 30.8693 446.698 30.8693C447.366 30.8693 447.943 30.7367 448.431 30.4716C448.923 30.2017 449.302 29.83 449.567 29.3565C449.832 28.883 449.965 28.3433 449.965 27.7372V18.4545ZM455.464 33V18.4545H460.919C462.036 18.4545 462.973 18.6487 463.731 19.0369C464.493 19.4252 465.069 19.9697 465.457 20.6705C465.85 21.3665 466.046 22.1785 466.046 23.1065C466.046 24.0393 465.847 24.849 465.45 25.5355C465.057 26.2173 464.477 26.7453 463.71 27.1193C462.943 27.4886 462 27.6733 460.883 27.6733H456.998V25.4858H460.528C461.181 25.4858 461.716 25.3958 462.133 25.2159C462.55 25.0312 462.857 24.7637 463.056 24.4134C463.26 24.0582 463.362 23.6226 463.362 23.1065C463.362 22.5904 463.26 22.1501 463.056 21.7855C462.853 21.4162 462.543 21.1368 462.126 20.9474C461.709 20.7533 461.172 20.6562 460.514 20.6562H458.099V33H455.464ZM462.978 26.4091L466.579 33H463.639L460.102 26.4091H462.978ZM470.34 33H467.527L472.648 18.4545H475.901L481.029 33H478.216L474.331 21.4375H474.218L470.34 33ZM470.432 27.2969H478.102V29.4134H470.432V27.2969ZM482.944 33V18.4545H485.579V30.7912H491.986V33H482.944Z" fill="black"/>
<path d="M33.3464 87V76.0909H35.8038V77.9446H35.9316C36.1589 77.3196 36.5353 76.8319 37.0609 76.4815C37.5865 76.1264 38.2138 75.9489 38.943 75.9489C39.6816 75.9489 40.3043 76.1288 40.8109 76.4886C41.3223 76.8437 41.6821 77.3291 41.8904 77.9446H42.0041C42.2456 77.3385 42.6528 76.8556 43.2257 76.4957C43.8033 76.1312 44.4875 75.9489 45.2782 75.9489C46.282 75.9489 47.1011 76.2661 47.7356 76.9006C48.3701 77.535 48.6873 78.4607 48.6873 79.6776V87H46.1092V80.0753C46.1092 79.3982 45.9293 78.9034 45.5694 78.5909C45.2096 78.2737 44.7692 78.1151 44.2484 78.1151C43.6281 78.1151 43.1428 78.3092 42.7924 78.6974C42.4468 79.081 42.274 79.5805 42.274 80.196V87H39.7527V79.9688C39.7527 79.4053 39.5822 78.9555 39.2413 78.6193C38.9051 78.2831 38.4648 78.1151 37.9203 78.1151C37.551 78.1151 37.2148 78.2098 36.9118 78.3991C36.6087 78.5838 36.3672 78.8466 36.1873 79.1875C36.0074 79.5237 35.9174 79.9167 35.9174 80.3665V87H33.3464Z" fill="black"/>
<path d="M44.0771 135.091V137.08H37.6282V135.091H44.0771ZM39.2404 146V134.061C39.2404 133.327 39.3919 132.716 39.695 132.229C40.0027 131.741 40.4147 131.376 40.9308 131.135C41.4469 130.893 42.0198 130.773 42.6495 130.773C43.0946 130.773 43.4899 130.808 43.8356 130.879C44.1812 130.95 44.4369 131.014 44.6026 131.071L44.0913 133.06C43.9824 133.027 43.8451 132.993 43.6793 132.96C43.5136 132.922 43.329 132.903 43.1254 132.903C42.6471 132.903 42.3086 133.019 42.1097 133.251C41.9156 133.479 41.8185 133.805 41.8185 134.232V146H39.2404Z" fill="black"/>
<path d="M80 0H560C571.046 0 580 8.95431 580 20V50H80V0Z" fill="#3EB489" fill-opacity="0.15"/>
<path d="M0 50H80V170H20C8.95431 170 0 161.046 0 150V50Z" fill="#D9D9D9" fill-opacity="0.35"/>
<rect x="460" y="72" width="20" height="20" fill="white"/>
<rect x="460.5" y="72.5" width="19" height="19" stroke="black" stroke-opacity="0.5"/>
<line x1="466.983" y1="64.0261" x2="472.786" y2="61.3203" stroke="black" stroke-opacity="0.5" stroke-width="1.5"/>
<line x1="467.317" y1="63.9537" x2="473.12" y2="66.6595" stroke="black" stroke-opacity="0.5" stroke-width="1.5"/>
<rect x="421" y="72" width="20" height="20" fill="white"/>
<rect x="421.5" y="72.5" width="19" height="19" stroke="black" stroke-opacity="0.5"/>
<path d="M412.623 75.022V90H410.377V75.022H412.623Z" fill="#8B0000"/>
<ellipse cx="405.818" cy="82" rx="1.81818" ry="2" fill="#8B0000"/>
<path d="M491 97H499" stroke="#8B0000" stroke-width="2"/>
<path d="M500.933 81.2231V90H498.674V81.1987C498.674 79.7013 498.369 78.6434 497.759 78.0249C497.157 77.4064 496.111 77.0972 494.622 77.0972H488.933V75.022H494.658C496.156 75.022 497.364 75.2336 498.284 75.6567C499.203 76.0718 499.875 76.735 500.298 77.6465C500.721 78.5498 500.933 79.742 500.933 81.2231ZM491.423 80.271V90H489.177V80.271H491.423Z" fill="#8B0000"/>
<ellipse cx="470.318" cy="97" rx="1.81818" ry="2" fill="#8B0000"/>
<path d="M451.623 73.022V80.8955H449.377V73.022H451.623Z" fill="#8B0000"/>
<ellipse cx="470.318" cy="82" rx="1.81818" ry="2" fill="black" fill-opacity="0.5"/>
<rect x="193" y="129" width="20" height="20" fill="white"/>
<rect x="193.5" y="129.5" width="19" height="19" stroke="black" stroke-opacity="0.5"/>
<line x1="199.983" y1="121.026" x2="205.786" y2="118.32" stroke="black" stroke-opacity="0.5" stroke-width="1.5"/>
<line x1="200.317" y1="120.954" x2="206.12" y2="123.66" stroke="black" stroke-opacity="0.5" stroke-width="1.5"/>
<rect x="154" y="129" width="20" height="20" fill="white"/>
<rect x="154.5" y="129.5" width="19" height="19" stroke="black" stroke-opacity="0.5"/>
<ellipse cx="164.318" cy="154" rx="1.81818" ry="2" fill="#8B0000"/>
<path d="M145.623 130.022V137.896H143.377V130.022H145.623Z" fill="#8B0000"/>
<ellipse cx="203.318" cy="154" rx="1.81818" ry="2" fill="#8B0000"/>
<path d="M184.623 130.022V137.896H182.377V130.022H184.623Z" fill="#8B0000"/>
<path d="M225 154H233" stroke="#8B0000" stroke-width="2"/>
<path d="M234.933 138.223V147H232.674V138.199C232.674 136.701 232.369 135.643 231.759 135.025C231.157 134.406 230.111 134.097 228.622 134.097H222.933V132.022H228.658C230.156 132.022 231.364 132.234 232.284 132.657C233.203 133.072 233.875 133.735 234.298 134.646C234.721 135.55 234.933 136.742 234.933 138.223ZM225.423 137.271V147H223.177V137.271H225.423Z" fill="#8B0000"/>
<ellipse cx="203.318" cy="139" rx="1.81818" ry="2" fill="black" fill-opacity="0.5"/>
<rect x="193" y="72" width="20" height="20" fill="white"/>
<rect x="193.5" y="72.5" width="19" height="19" stroke="black" stroke-opacity="0.5"/>
<rect x="163" y="72" width="20" height="20" fill="white"/>
<rect x="163.5" y="72.5" width="19" height="19" stroke="black" stroke-opacity="0.5"/>
<line x1="199.983" y1="64.0261" x2="205.786" y2="61.3203" stroke="black" stroke-opacity="0.5" stroke-width="1.5"/>
<line x1="200.317" y1="63.9537" x2="206.12" y2="66.6595" stroke="black" stroke-opacity="0.5" stroke-width="1.5"/>
<path d="M225 97H233" stroke="#8B0000" stroke-width="2"/>
<path d="M234.933 81.2231V90H232.674V81.1987C232.674 79.7013 232.369 78.6434 231.759 78.0249C231.157 77.4064 230.111 77.0972 228.622 77.0972H222.933V75.022H228.658C230.156 75.022 231.364 75.2336 232.284 75.6567C233.203 76.0718 233.875 76.735 234.298 77.6465C234.721 78.5498 234.933 79.742 234.933 81.2231ZM225.423 80.271V90H223.177V80.271H225.423Z" fill="#8B0000"/>
<ellipse cx="199.818" cy="97" rx="1.81818" ry="2" fill="#8B0000"/>
<ellipse cx="206.182" cy="97" rx="1.81818" ry="2" fill="#8B0000"/>
<ellipse cx="203.318" cy="82" rx="1.81818" ry="2" fill="black" fill-opacity="0.5"/>
</svg>
