<svg width="631" height="350" viewBox="0 0 631 350" fill="none" xmlns="http://www.w3.org/2000/svg">
<path d="M0 20C0 8.9543 8.95431 0 20 0H610C621.046 0 630 8.95431 630 20V330C630 341.046 621.046 350 610 350H20C8.9543 350 0 341.046 0 330V20Z" fill="white"/>
<path d="M20 0.5H610C620.77 0.5 629.5 9.23045 629.5 20V330C629.5 340.77 620.77 349.5 610 349.5H20C9.23045 349.5 0.5 340.77 0.5 330V20C0.5 9.23045 9.23045 0.5 20 0.5Z" stroke="black" stroke-opacity="0.5"/>
<line x1="571.5" y1="50" x2="571.5" y2="350" stroke="black" stroke-opacity="0.2"/>
<path d="M1 110L631 110" stroke="black" stroke-opacity="0.5"/>
<path d="M1 230L631 230" stroke="black" stroke-opacity="0.5"/>
<line x1="1" y1="49.5" x2="631" y2="49.5" stroke="black" stroke-opacity="0.5"/>
<path d="M356 0L356 350" stroke="black" stroke-opacity="0.5"/>
<line x1="81.5" y1="2.18557e-08" x2="81.5" y2="350" stroke="black" stroke-opacity="0.5"/>
<path d="M175.402 22.4531C175.336 21.8329 175.056 21.3499 174.564 21.0043C174.076 20.6586 173.442 20.4858 172.661 20.4858C172.111 20.4858 171.64 20.5687 171.247 20.7344C170.854 20.9001 170.554 21.125 170.345 21.4091C170.137 21.6932 170.03 22.0175 170.026 22.3821C170.026 22.6851 170.094 22.9479 170.232 23.1705C170.374 23.393 170.565 23.5824 170.807 23.7386C171.048 23.8902 171.316 24.018 171.609 24.1222C171.903 24.2263 172.199 24.3139 172.497 24.3849L173.861 24.7259C174.41 24.8537 174.938 25.0265 175.445 25.2443C175.956 25.4621 176.413 25.7367 176.815 26.0682C177.223 26.3996 177.545 26.7997 177.781 27.2685C178.018 27.7372 178.136 28.2865 178.136 28.9162C178.136 29.7685 177.919 30.5189 177.483 31.1676C177.047 31.8116 176.418 32.3158 175.594 32.6804C174.775 33.0402 173.783 33.2202 172.618 33.2202C171.486 33.2202 170.504 33.045 169.67 32.6946C168.842 32.3442 168.193 31.8329 167.724 31.1605C167.26 30.4882 167.009 29.669 166.972 28.7031H169.564C169.602 29.2098 169.758 29.6312 170.033 29.9673C170.307 30.3035 170.665 30.5545 171.105 30.7202C171.55 30.8859 172.047 30.9688 172.597 30.9688C173.17 30.9688 173.671 30.8835 174.102 30.7131C174.538 30.5379 174.879 30.2964 175.125 29.9886C175.371 29.6761 175.497 29.3116 175.501 28.8949C175.497 28.5161 175.385 28.2036 175.168 27.9574C174.95 27.7064 174.644 27.4981 174.251 27.3324C173.863 27.1619 173.409 27.0104 172.888 26.8778L171.233 26.4517C170.035 26.1439 169.088 25.6776 168.392 25.0526C167.701 24.4228 167.355 23.5871 167.355 22.5455C167.355 21.6884 167.587 20.938 168.051 20.294C168.52 19.6501 169.157 19.1506 169.962 18.7955C170.767 18.4356 171.678 18.2557 172.696 18.2557C173.728 18.2557 174.633 18.4356 175.409 18.7955C176.19 19.1506 176.804 19.6454 177.249 20.2798C177.694 20.9096 177.923 21.634 177.938 22.4531H175.402ZM183.12 18.4545V33H180.485V18.4545H183.12ZM197.927 18.4545V33H195.583L188.729 23.0923H188.609V33H185.974V18.4545H188.332L195.178 28.3693H195.306V18.4545H197.927ZM210.542 23.0994C210.424 22.7159 210.261 22.3726 210.052 22.0696C209.849 21.7618 209.602 21.4991 209.314 21.2812C209.029 21.0634 208.703 20.9001 208.333 20.7912C207.964 20.6776 207.562 20.6207 207.126 20.6207C206.345 20.6207 205.649 20.8172 205.038 21.2102C204.427 21.6032 203.947 22.1809 203.596 22.9432C203.251 23.7008 203.078 24.6241 203.078 25.7131C203.078 26.8116 203.251 27.742 203.596 28.5043C203.942 29.2666 204.422 29.8466 205.038 30.2443C205.654 30.6373 206.368 30.8338 207.183 30.8338C207.922 30.8338 208.561 30.6918 209.1 30.4077C209.645 30.1236 210.064 29.7211 210.358 29.2003C210.651 28.6747 210.798 28.0592 210.798 27.3537L211.395 27.446H207.446V25.3864H213.348V27.1335C213.348 28.3788 213.083 29.456 212.552 30.3651C212.022 31.2741 211.293 31.9749 210.365 32.4673C209.437 32.955 208.371 33.1989 207.169 33.1989C205.829 33.1989 204.652 32.8982 203.639 32.2969C202.63 31.6908 201.842 30.8314 201.274 29.7188C200.71 28.6013 200.429 27.2756 200.429 25.7415C200.429 24.5672 200.594 23.5185 200.926 22.5952C201.262 21.6719 201.731 20.8883 202.332 20.2443C202.933 19.5956 203.639 19.1032 204.449 18.767C205.258 18.4261 206.139 18.2557 207.091 18.2557C207.895 18.2557 208.646 18.3741 209.342 18.6108C210.038 18.8428 210.656 19.1742 211.196 19.6051C211.74 20.036 212.188 20.5473 212.538 21.1392C212.888 21.7311 213.118 22.3845 213.227 23.0994H210.542ZM215.896 33V18.4545H218.531V30.7912H224.937V33H215.896ZM227.224 33V18.4545H236.684V20.6634H229.859V24.6122H236.194V26.821H229.859V30.7912H236.741V33H227.224Z" fill="black"/>
<path d="M417.597 33V18.4545H423.051C424.169 18.4545 425.106 18.6629 425.864 19.0795C426.626 19.4962 427.201 20.0691 427.59 20.7983C427.983 21.5227 428.179 22.3466 428.179 23.2699C428.179 24.2027 427.983 25.0312 427.59 25.7557C427.197 26.4801 426.617 27.0507 425.85 27.4673C425.083 27.8793 424.138 28.0852 423.016 28.0852H419.401V25.919H422.661C423.314 25.919 423.849 25.8054 424.266 25.5781C424.682 25.3509 424.99 25.0384 425.189 24.6406C425.393 24.2429 425.494 23.786 425.494 23.2699C425.494 22.7538 425.393 22.2992 425.189 21.9062C424.99 21.5133 424.68 21.2079 424.259 20.9901C423.842 20.7675 423.305 20.6562 422.646 20.6562H420.232V33H417.597ZM430.468 33V18.4545H433.103V30.7912H439.509V33H430.468ZM450.965 18.4545H453.6V27.9574C453.6 28.9991 453.354 29.9152 452.861 30.706C452.374 31.4967 451.687 32.1146 450.802 32.5597C449.916 33 448.882 33.2202 447.698 33.2202C446.51 33.2202 445.473 33 444.587 32.5597C443.702 32.1146 443.015 31.4967 442.528 30.706C442.04 29.9152 441.796 28.9991 441.796 27.9574V18.4545H444.431V27.7372C444.431 28.3433 444.564 28.883 444.829 29.3565C445.099 29.83 445.477 30.2017 445.965 30.4716C446.453 30.7367 447.03 30.8693 447.698 30.8693C448.366 30.8693 448.943 30.7367 449.431 30.4716C449.923 30.2017 450.302 29.83 450.567 29.3565C450.832 28.883 450.965 28.3433 450.965 27.7372V18.4545ZM456.464 33V18.4545H461.919C463.036 18.4545 463.973 18.6487 464.731 19.0369C465.493 19.4252 466.069 19.9697 466.457 20.6705C466.85 21.3665 467.046 22.1785 467.046 23.1065C467.046 24.0393 466.847 24.849 466.45 25.5355C466.057 26.2173 465.477 26.7453 464.71 27.1193C463.943 27.4886 463 27.6733 461.883 27.6733H457.998V25.4858H461.528C462.181 25.4858 462.716 25.3958 463.133 25.2159C463.55 25.0312 463.857 24.7637 464.056 24.4134C464.26 24.0582 464.362 23.6226 464.362 23.1065C464.362 22.5904 464.26 22.1501 464.056 21.7855C463.853 21.4162 463.543 21.1368 463.126 20.9474C462.709 20.7533 462.172 20.6562 461.514 20.6562H459.099V33H456.464ZM463.978 26.4091L467.579 33H464.639L461.102 26.4091H463.978ZM471.34 33H468.527L473.648 18.4545H476.901L482.029 33H479.216L475.331 21.4375H475.218L471.34 33ZM471.432 27.2969H479.102V29.4134H471.432V27.2969ZM483.944 33V18.4545H486.579V30.7912H492.986V33H483.944Z" fill="black"/>
<path d="M81 0H611C622.046 0 631 8.95431 631 20V50H81V0Z" fill="#3EB489" fill-opacity="0.15"/>
<path d="M1 50H81V350H21C9.95431 350 1 341.046 1 330V50Z" fill="#D9D9D9" fill-opacity="0.35"/>
<rect x="515" y="275" width="20" height="20" fill="white"/>
<rect x="515.5" y="275.5" width="19" height="19" stroke="black" stroke-opacity="0.5"/>
<rect x="487" y="275" width="20" height="20" fill="white"/>
<rect x="487.5" y="275.5" width="19" height="19" stroke="black" stroke-opacity="0.5"/>
<rect x="459" y="275" width="20" height="20" fill="white"/>
<rect x="459.5" y="275.5" width="19" height="19" stroke="black" stroke-opacity="0.5"/>
<line x1="409.983" y1="267.026" x2="415.786" y2="264.32" stroke="black" stroke-opacity="0.5" stroke-width="1.5"/>
<line x1="410.317" y1="266.954" x2="416.12" y2="269.66" stroke="black" stroke-opacity="0.5" stroke-width="1.5"/>
<rect x="431" y="275" width="20" height="20" fill="white"/>
<rect x="431.5" y="275.5" width="19" height="19" stroke="black" stroke-opacity="0.5"/>
<rect x="403" y="275" width="20" height="20" fill="white"/>
<rect x="403.5" y="275.5" width="19" height="19" stroke="black" stroke-opacity="0.5"/>
<ellipse cx="469.318" cy="306" rx="1.81818" ry="2" fill="#8B0000"/>
<ellipse cx="469.318" cy="301" rx="1.81818" ry="2" fill="#8B0000"/>
<ellipse cx="441.318" cy="306" rx="1.81818" ry="2" fill="#8B0000"/>
<ellipse cx="441.318" cy="301" rx="1.81818" ry="2" fill="#8B0000"/>
<ellipse cx="524.818" cy="306" rx="1.81818" ry="2" fill="#8B0000"/>
<ellipse cx="524.818" cy="301" rx="1.81818" ry="2" fill="#8B0000"/>
<path d="M395.623 278.022V293H393.377V278.022H395.623Z" fill="#8B0000"/>
<ellipse cx="388.818" cy="286" rx="1.81818" ry="2" fill="#8B0000"/>
<ellipse cx="547.818" cy="300" rx="1.81818" ry="2" fill="#8B0000"/>
<path d="M553.933 284.223V293H551.674V284.199C551.674 282.701 551.369 281.643 550.759 281.025C550.157 280.406 549.111 280.097 547.622 280.097H541.933V278.022H547.658C549.156 278.022 550.364 278.234 551.284 278.657C552.203 279.072 552.875 279.735 553.298 280.646C553.721 281.55 553.933 282.742 553.933 284.223ZM544.423 283.271V293H542.177V283.271H544.423Z" fill="#8B0000"/>
<path d="M493 300H501" stroke="#8B0000" stroke-width="2"/>
<ellipse cx="441.318" cy="285" rx="1.81818" ry="2" fill="black" fill-opacity="0.5"/>
<ellipse cx="497.318" cy="285" rx="1.81818" ry="2" fill="black" fill-opacity="0.5"/>
<rect x="515" y="186" width="20" height="20" fill="white"/>
<rect x="515.5" y="186.5" width="19" height="19" stroke="black" stroke-opacity="0.5"/>
<rect x="487" y="186" width="20" height="20" fill="white"/>
<rect x="487.5" y="186.5" width="19" height="19" stroke="black" stroke-opacity="0.5"/>
<rect x="459" y="186" width="20" height="20" fill="white"/>
<rect x="459.5" y="186.5" width="19" height="19" stroke="black" stroke-opacity="0.5"/>
<rect x="431" y="186" width="20" height="20" fill="white"/>
<rect x="431.5" y="186.5" width="19" height="19" stroke="black" stroke-opacity="0.5"/>
<line x1="385.983" y1="178.026" x2="391.786" y2="175.32" stroke="black" stroke-opacity="0.5" stroke-width="1.5"/>
<line x1="386.317" y1="177.954" x2="392.12" y2="180.66" stroke="black" stroke-opacity="0.5" stroke-width="1.5"/>
<rect x="403" y="186" width="20" height="20" fill="white"/>
<rect x="403.5" y="186.5" width="19" height="19" stroke="black" stroke-opacity="0.5"/>
<path d="M385.399 201.681C385.122 202.503 384.683 203.097 384.081 203.463C383.478 203.821 382.53 204 381.236 204H381.102V201.925H381.31C381.871 201.925 382.319 201.819 382.652 201.607C382.978 201.396 383.21 201.074 383.348 200.643C383.486 200.204 383.556 199.54 383.556 198.653V191.097H381.236V189.022H389.33C391.576 189.022 393.187 189.502 394.164 190.462C395.14 191.415 395.628 193.001 395.628 195.223V204H393.382V195.199C393.382 193.701 393.077 192.643 392.467 192.025C391.865 191.406 390.811 191.097 389.305 191.097H385.802V198.202C385.802 199.699 385.667 200.859 385.399 201.681Z" fill="#8B0000"/>
<path d="M374.623 189.022V208.7H372.377V189.022H374.623Z" fill="#8B0000"/>
<ellipse cx="385.818" cy="211" rx="1.81818" ry="2" fill="#8B0000"/>
<ellipse cx="392.182" cy="211" rx="1.81818" ry="2" fill="#8B0000"/>
<ellipse cx="388.818" cy="216" rx="1.81818" ry="2" fill="#8B0000"/>
<ellipse cx="389.318" cy="196" rx="1.81818" ry="2" fill="black" fill-opacity="0.5"/>
<path d="M437.5 211H445.5" stroke="#8B0000" stroke-width="2"/>
<path d="M493 211H501" stroke="#8B0000" stroke-width="2"/>
<ellipse cx="413.318" cy="216" rx="1.81818" ry="2" fill="#8B0000"/>
<ellipse cx="413.318" cy="211" rx="1.81818" ry="2" fill="#8B0000"/>
<ellipse cx="469.318" cy="216" rx="1.81818" ry="2" fill="#8B0000"/>
<ellipse cx="469.318" cy="211" rx="1.81818" ry="2" fill="#8B0000"/>
<ellipse cx="524.818" cy="216" rx="1.81818" ry="2" fill="#8B0000"/>
<ellipse cx="524.818" cy="211" rx="1.81818" ry="2" fill="#8B0000"/>
<ellipse cx="547.818" cy="211" rx="1.81818" ry="2" fill="#8B0000"/>
<path d="M553.933 195.223V204H551.674V195.199C551.674 193.701 551.369 192.643 550.759 192.025C550.157 191.406 549.111 191.097 547.622 191.097H541.933V189.022H547.658C549.156 189.022 550.364 189.234 551.284 189.657C552.203 190.072 552.875 190.735 553.298 191.646C553.721 192.55 553.933 193.742 553.933 195.223ZM544.423 194.271V204H542.177V194.271H544.423Z" fill="#8B0000"/>
<ellipse cx="441.318" cy="196" rx="1.81818" ry="2" fill="black" fill-opacity="0.5"/>
<ellipse cx="497.318" cy="196" rx="1.81818" ry="2" fill="black" fill-opacity="0.5"/>
<rect x="515" y="129" width="20" height="20" fill="white"/>
<rect x="515.5" y="129.5" width="19" height="19" stroke="black" stroke-opacity="0.5"/>
<rect x="487" y="129" width="20" height="20" fill="white"/>
<rect x="487.5" y="129.5" width="19" height="19" stroke="black" stroke-opacity="0.5"/>
<rect x="459" y="129" width="20" height="20" fill="white"/>
<rect x="459.5" y="129.5" width="19" height="19" stroke="black" stroke-opacity="0.5"/>
<rect x="431" y="129" width="20" height="20" fill="white"/>
<rect x="431.5" y="129.5" width="19" height="19" stroke="black" stroke-opacity="0.5"/>
<line x1="385.983" y1="121.026" x2="391.786" y2="118.32" stroke="black" stroke-opacity="0.5" stroke-width="1.5"/>
<line x1="386.317" y1="120.954" x2="392.12" y2="123.66" stroke="black" stroke-opacity="0.5" stroke-width="1.5"/>
<rect x="403" y="129" width="20" height="20" fill="white"/>
<rect x="403.5" y="129.5" width="19" height="19" stroke="black" stroke-opacity="0.5"/>
<path d="M385.399 144.681C385.122 145.503 384.683 146.097 384.081 146.463C383.478 146.821 382.53 147 381.236 147H381.102V144.925H381.31C381.871 144.925 382.319 144.819 382.652 144.607C382.978 144.396 383.21 144.074 383.348 143.643C383.486 143.204 383.556 142.54 383.556 141.653V134.097H381.236V132.022H389.33C391.576 132.022 393.187 132.502 394.164 133.462C395.14 134.415 395.628 136.001 395.628 138.223V147H393.382V138.199C393.382 136.701 393.077 135.643 392.467 135.025C391.865 134.406 390.811 134.097 389.305 134.097H385.802V141.202C385.802 142.699 385.667 143.859 385.399 144.681Z" fill="#8B0000"/>
<path d="M375.97 138.223V147H363.14V132.022H369.695C371.941 132.022 373.549 132.502 374.517 133.462C375.486 134.423 375.97 136.01 375.97 138.223ZM365.386 144.925H373.711V138.199C373.711 136.718 373.41 135.664 372.808 135.037C372.214 134.41 371.168 134.097 369.671 134.097H365.386V144.925Z" fill="#8B0000"/>
<ellipse cx="385.818" cy="154" rx="1.81818" ry="2" fill="#8B0000"/>
<ellipse cx="392.182" cy="154" rx="1.81818" ry="2" fill="#8B0000"/>
<ellipse cx="388.818" cy="159" rx="1.81818" ry="2" fill="#8B0000"/>
<ellipse cx="389.318" cy="139" rx="1.81818" ry="2" fill="black" fill-opacity="0.5"/>
<path d="M437 154H445" stroke="#8B0000" stroke-width="2"/>
<path d="M493 154H501" stroke="#8B0000" stroke-width="2"/>
<ellipse cx="413.318" cy="159" rx="1.81818" ry="2" fill="#8B0000"/>
<ellipse cx="413.318" cy="154" rx="1.81818" ry="2" fill="#8B0000"/>
<ellipse cx="524.818" cy="159" rx="1.81818" ry="2" fill="#8B0000"/>
<ellipse cx="524.818" cy="154" rx="1.81818" ry="2" fill="#8B0000"/>
<ellipse cx="469.318" cy="159" rx="1.81818" ry="2" fill="#8B0000"/>
<ellipse cx="469.318" cy="154" rx="1.81818" ry="2" fill="#8B0000"/>
<ellipse cx="547.818" cy="154" rx="1.81818" ry="2" fill="#8B0000"/>
<path d="M553.933 138.223V147H551.674V138.199C551.674 136.701 551.369 135.643 550.759 135.025C550.157 134.406 549.111 134.097 547.622 134.097H541.933V132.022H547.658C549.156 132.022 550.364 132.234 551.284 132.657C552.203 133.072 552.875 133.735 553.298 134.646C553.721 135.55 553.933 136.742 553.933 138.223ZM544.423 137.271V147H542.177V137.271H544.423Z" fill="#8B0000"/>
<ellipse cx="441.318" cy="139" rx="1.81818" ry="2" fill="black" fill-opacity="0.5"/>
<ellipse cx="497.318" cy="139" rx="1.81818" ry="2" fill="black" fill-opacity="0.5"/>
<rect x="515" y="69" width="20" height="20" fill="white"/>
<rect x="515.5" y="69.5" width="19" height="19" stroke="black" stroke-opacity="0.5"/>
<path d="M487 69H507V89H487V69Z" fill="white"/>
<path d="M487.5 69.5H506.5V88.5H487.5V69.5Z" stroke="black" stroke-opacity="0.5"/>
<path d="M431 69H451V89H431V69Z" fill="white"/>
<path d="M431.5 69.5H450.5V88.5H431.5V69.5Z" stroke="black" stroke-opacity="0.5"/>
<path d="M459 69H479V89H459V69Z" fill="white"/>
<path d="M459.5 69.5H478.5V88.5H459.5V69.5Z" stroke="black" stroke-opacity="0.5"/>
<path d="M395.856 77.8203V87H389.008V84.9248H393.61V78.4551C393.61 77.1367 393.545 76.2049 393.415 75.6597C393.285 75.0981 393.057 74.6994 392.731 74.4634C392.414 74.2192 391.954 74.0972 391.352 74.0972H389.704V72.022H391.279C392.581 72.022 393.533 72.201 394.135 72.5591C394.737 72.9253 395.173 73.5234 395.441 74.3535C395.718 75.1755 395.856 76.3311 395.856 77.8203Z" fill="#8B0000"/>
<path d="M381.623 72.022V87H379.377V72.022H381.623Z" fill="#8B0000"/>
<rect x="403" y="69" width="20" height="20" fill="white"/>
<rect x="403.5" y="69.5" width="19" height="19" stroke="black" stroke-opacity="0.5"/>
<line x1="437.983" y1="61.0261" x2="443.786" y2="58.3203" stroke="black" stroke-opacity="0.5" stroke-width="1.5"/>
<line x1="438.317" y1="60.9537" x2="444.12" y2="63.6595" stroke="black" stroke-opacity="0.5" stroke-width="1.5"/>
<path d="M437 94H445" stroke="#8B0000" stroke-width="2"/>
<path d="M493 94H501" stroke="#8B0000" stroke-width="2"/>
<ellipse cx="412.818" cy="99" rx="1.81818" ry="2" fill="#8B0000"/>
<ellipse cx="412.818" cy="94" rx="1.81818" ry="2" fill="#8B0000"/>
<ellipse cx="524.818" cy="99" rx="1.81818" ry="2" fill="#8B0000"/>
<ellipse cx="524.818" cy="94" rx="1.81818" ry="2" fill="#8B0000"/>
<ellipse cx="469.318" cy="99" rx="1.81818" ry="2" fill="#8B0000"/>
<ellipse cx="469.318" cy="94" rx="1.81818" ry="2" fill="#8B0000"/>
<ellipse cx="374.818" cy="80" rx="1.81818" ry="2" fill="#8B0000"/>
<ellipse cx="441.318" cy="79" rx="1.81818" ry="2" fill="black" fill-opacity="0.5"/>
<ellipse cx="497.318" cy="79" rx="1.81818" ry="2" fill="black" fill-opacity="0.5"/>
<ellipse cx="547.818" cy="94" rx="1.81818" ry="2" fill="#8B0000"/>
<path d="M553.933 78.2231V87H551.674V78.1987C551.674 76.7013 551.369 75.6434 550.759 75.0249C550.157 74.4064 549.111 74.0972 547.622 74.0972H541.933V72.022H547.658C549.156 72.022 550.364 72.2336 551.284 72.6567C552.203 73.0718 552.875 73.735 553.298 74.6465C553.721 75.5498 553.933 76.742 553.933 78.2231ZM544.423 77.271V87H542.177V77.271H544.423Z" fill="#8B0000"/>
<rect x="245" y="307" width="20" height="20" fill="white"/>
<rect x="245.5" y="307.5" width="19" height="19" stroke="black" stroke-opacity="0.5"/>
<rect x="215" y="307" width="20" height="20" fill="white"/>
<rect x="215.5" y="307.5" width="19" height="19" stroke="black" stroke-opacity="0.5"/>
<rect x="185" y="307" width="20" height="20" fill="white"/>
<rect x="185.5" y="307.5" width="19" height="19" stroke="black" stroke-opacity="0.5"/>
<rect x="158" y="307" width="20" height="20" fill="white"/>
<rect x="158.5" y="307.5" width="19" height="19" stroke="black" stroke-opacity="0.5"/>
<line x1="134.983" y1="299.026" x2="140.786" y2="296.32" stroke="black" stroke-opacity="0.5" stroke-width="1.5"/>
<line x1="135.317" y1="298.954" x2="141.12" y2="301.66" stroke="black" stroke-opacity="0.5" stroke-width="1.5"/>
<rect x="128" y="307" width="20" height="20" fill="white"/>
<rect x="128.5" y="307.5" width="19" height="19" stroke="black" stroke-opacity="0.5"/>
<path d="M138 338V332" stroke="#8B0000" stroke-width="2"/>
<path d="M134 332H142" stroke="#8B0000" stroke-width="2"/>
<ellipse cx="168.318" cy="338" rx="1.81818" ry="2" fill="#8B0000"/>
<ellipse cx="168.318" cy="333" rx="1.81818" ry="2" fill="#8B0000"/>
<ellipse cx="195.318" cy="338" rx="1.81818" ry="2" fill="#8B0000"/>
<ellipse cx="195.318" cy="333" rx="1.81818" ry="2" fill="#8B0000"/>
<ellipse cx="254.818" cy="338" rx="1.81818" ry="2" fill="#8B0000"/>
<ellipse cx="254.818" cy="333" rx="1.81818" ry="2" fill="#8B0000"/>
<path d="M117.933 316.223V325H115.674V316.199C115.674 314.701 115.369 313.643 114.759 313.025C114.157 312.406 113.111 312.097 111.622 312.097H105.933V310.022H111.658C113.156 310.022 114.364 310.234 115.284 310.657C116.203 311.072 116.875 311.735 117.298 312.646C117.721 313.55 117.933 314.742 117.933 316.223ZM108.423 315.271V325H106.177V315.271H108.423Z" fill="#8B0000"/>
<ellipse cx="280.818" cy="333" rx="1.81818" ry="2" fill="#8B0000"/>
<path d="M286.933 316.223V325H284.674V316.199C284.674 314.701 284.369 313.643 283.759 313.025C283.157 312.406 282.111 312.097 280.622 312.097H274.933V310.022H280.658C282.156 310.022 283.364 310.234 284.284 310.657C285.203 311.072 285.875 311.735 286.298 312.646C286.721 313.55 286.933 314.742 286.933 316.223ZM277.423 315.271V325H275.177V315.271H277.423Z" fill="#8B0000"/>
<ellipse cx="168.318" cy="317" rx="1.81818" ry="2" fill="black" fill-opacity="0.5"/>
<ellipse cx="225.318" cy="317" rx="1.81818" ry="2" fill="black" fill-opacity="0.5"/>
<path d="M221 333H229" stroke="#8B0000" stroke-width="2"/>
<rect x="245" y="247" width="20" height="20" fill="white"/>
<rect x="245.5" y="247.5" width="19" height="19" stroke="black" stroke-opacity="0.5"/>
<rect x="216" y="247" width="20" height="20" fill="white"/>
<rect x="216.5" y="247.5" width="19" height="19" stroke="black" stroke-opacity="0.5"/>
<rect x="187" y="247" width="20" height="20" fill="white"/>
<rect x="187.5" y="247.5" width="19" height="19" stroke="black" stroke-opacity="0.5"/>
<rect x="158" y="247" width="20" height="20" fill="white"/>
<rect x="158.5" y="247.5" width="19" height="19" stroke="black" stroke-opacity="0.5"/>
<line x1="164.983" y1="239.026" x2="170.786" y2="236.32" stroke="black" stroke-opacity="0.5" stroke-width="1.5"/>
<line x1="165.317" y1="238.954" x2="171.12" y2="241.66" stroke="black" stroke-opacity="0.5" stroke-width="1.5"/>
<rect x="129" y="247" width="20" height="20" fill="white"/>
<rect x="129.5" y="247.5" width="19" height="19" stroke="black" stroke-opacity="0.5"/>
<ellipse cx="164.818" cy="272" rx="1.81818" ry="2" fill="#8B0000"/>
<ellipse cx="171.182" cy="272" rx="1.81818" ry="2" fill="#8B0000"/>
<ellipse cx="254.818" cy="277" rx="1.81818" ry="2" fill="#8B0000"/>
<ellipse cx="254.818" cy="272" rx="1.81818" ry="2" fill="#8B0000"/>
<ellipse cx="197.318" cy="277" rx="1.81818" ry="2" fill="#8B0000"/>
<ellipse cx="197.318" cy="272" rx="1.81818" ry="2" fill="#8B0000"/>
<ellipse cx="280.818" cy="271" rx="1.81818" ry="2" fill="#8B0000"/>
<path d="M286.933 255.223V264H284.674V255.199C284.674 253.701 284.369 252.643 283.759 252.025C283.157 251.406 282.111 251.097 280.622 251.097H274.933V249.022H280.658C282.156 249.022 283.364 249.234 284.284 249.657C285.203 250.072 285.875 250.735 286.298 251.646C286.721 252.55 286.933 253.742 286.933 255.223ZM277.423 254.271V264H275.177V254.271H277.423Z" fill="#8B0000"/>
<path d="M222 272H230" stroke="#8B0000" stroke-width="2"/>
<path d="M170.136 257C170.136 258.105 169.322 259 168.318 259C167.314 259 166.5 258.105 166.5 257C166.5 255.895 167.314 255 168.318 255C169.322 255 170.136 255.895 170.136 257Z" fill="black" fill-opacity="0.5"/>
<path d="M228.136 257C228.136 258.105 227.322 259 226.318 259C225.314 259 224.5 258.105 224.5 257C224.5 255.895 225.314 255 226.318 255C227.322 255 228.136 255.895 228.136 257Z" fill="black" fill-opacity="0.5"/>
<rect x="245" y="187" width="20" height="20" fill="white"/>
<rect x="245.5" y="187.5" width="19" height="19" stroke="black" stroke-opacity="0.5"/>
<rect x="216" y="187" width="20" height="20" fill="white"/>
<rect x="216.5" y="187.5" width="19" height="19" stroke="black" stroke-opacity="0.5"/>
<rect x="187" y="187" width="20" height="20" fill="white"/>
<rect x="187.5" y="187.5" width="19" height="19" stroke="black" stroke-opacity="0.5"/>
<rect x="158" y="187" width="20" height="20" fill="white"/>
<rect x="158.5" y="187.5" width="19" height="19" stroke="black" stroke-opacity="0.5"/>
<line x1="164.983" y1="179.026" x2="170.786" y2="176.32" stroke="black" stroke-opacity="0.5" stroke-width="1.5"/>
<line x1="165.317" y1="178.954" x2="171.12" y2="181.66" stroke="black" stroke-opacity="0.5" stroke-width="1.5"/>
<rect x="129" y="187" width="20" height="20" fill="white"/>
<rect x="129.5" y="187.5" width="19" height="19" stroke="black" stroke-opacity="0.5"/>
<path d="M105.399 202.681C105.122 203.503 104.683 204.097 104.081 204.463C103.478 204.821 102.53 205 101.236 205H101.102V202.925H101.31C101.871 202.925 102.319 202.819 102.652 202.607C102.978 202.396 103.21 202.074 103.348 201.643C103.486 201.204 103.556 200.54 103.556 199.653V192.097H101.236V190.022H109.33C111.576 190.022 113.187 190.502 114.164 191.462C115.14 192.415 115.628 194.001 115.628 196.223V205H113.382V196.199C113.382 194.701 113.077 193.643 112.467 193.025C111.865 192.406 110.811 192.097 109.305 192.097H105.802V199.202C105.802 200.699 105.667 201.859 105.399 202.681Z" fill="#8B0000"/>
<ellipse cx="109.318" cy="197" rx="1.81818" ry="2" fill="black" fill-opacity="0.5"/>
<ellipse cx="139.318" cy="217" rx="1.81818" ry="2" fill="#8B0000"/>
<ellipse cx="139.318" cy="212" rx="1.81818" ry="2" fill="#8B0000"/>
<ellipse cx="254.818" cy="217" rx="1.81818" ry="2" fill="#8B0000"/>
<ellipse cx="254.818" cy="212" rx="1.81818" ry="2" fill="#8B0000"/>
<ellipse cx="197.318" cy="217" rx="1.81818" ry="2" fill="#8B0000"/>
<ellipse cx="197.318" cy="212" rx="1.81818" ry="2" fill="#8B0000"/>
<ellipse cx="108.818" cy="217" rx="1.81818" ry="2" fill="#8B0000"/>
<ellipse cx="108.818" cy="212" rx="1.81818" ry="2" fill="#8B0000"/>
<ellipse cx="279.818" cy="213" rx="1.81818" ry="2" fill="#8B0000"/>
<path d="M285.933 195.223V204H283.674V195.199C283.674 193.701 283.369 192.643 282.759 192.025C282.157 191.406 281.111 191.097 279.622 191.097H273.933V189.022H279.658C281.156 189.022 282.364 189.234 283.284 189.657C284.203 190.072 284.875 190.735 285.298 191.646C285.721 192.55 285.933 193.742 285.933 195.223ZM276.423 194.271V204H274.177V194.271H276.423Z" fill="#8B0000"/>
<ellipse cx="168.318" cy="197" rx="1.81818" ry="2" fill="black" fill-opacity="0.5"/>
<ellipse cx="226.318" cy="197" rx="1.81818" ry="2" fill="black" fill-opacity="0.5"/>
<path d="M164 212H172" stroke="#8B0000" stroke-width="2"/>
<path d="M222 212H230" stroke="#8B0000" stroke-width="2"/>
<rect x="245" y="129" width="20" height="20" fill="white"/>
<rect x="245.5" y="129.5" width="19" height="19" stroke="black" stroke-opacity="0.5"/>
<rect x="216" y="129" width="20" height="20" fill="white"/>
<rect x="216.5" y="129.5" width="19" height="19" stroke="black" stroke-opacity="0.5"/>
<rect x="187" y="129" width="20" height="20" fill="white"/>
<rect x="187.5" y="129.5" width="19" height="19" stroke="black" stroke-opacity="0.5"/>
<rect x="158" y="129" width="20" height="20" fill="white"/>
<rect x="158.5" y="129.5" width="19" height="19" stroke="black" stroke-opacity="0.5"/>
<line x1="164.983" y1="121.026" x2="170.786" y2="118.32" stroke="black" stroke-opacity="0.5" stroke-width="1.5"/>
<line x1="165.317" y1="120.954" x2="171.12" y2="123.66" stroke="black" stroke-opacity="0.5" stroke-width="1.5"/>
<rect x="129" y="129" width="20" height="20" fill="white"/>
<rect x="129.5" y="129.5" width="19" height="19" stroke="black" stroke-opacity="0.5"/>
<path d="M110.399 144.681C110.122 145.503 109.683 146.097 109.081 146.463C108.478 146.821 107.53 147 106.236 147H106.102V144.925H106.31C106.871 144.925 107.319 144.819 107.652 144.607C107.978 144.396 108.21 144.074 108.348 143.643C108.486 143.204 108.556 142.54 108.556 141.653V134.097H106.236V132.022H114.33C116.576 132.022 118.187 132.502 119.164 133.462C120.14 134.415 120.628 136.001 120.628 138.223V147H118.382V138.199C118.382 136.701 118.077 135.643 117.467 135.025C116.865 134.406 115.811 134.097 114.305 134.097H110.802V141.202C110.802 142.699 110.667 143.859 110.399 144.681Z" fill="#8B0000"/>
<ellipse cx="114.318" cy="139" rx="1.81818" ry="2" fill="black" fill-opacity="0.5"/>
<path d="M164 154H172" stroke="#8B0000" stroke-width="2"/>
<path d="M222 154H230" stroke="#8B0000" stroke-width="2"/>
<ellipse cx="139.318" cy="159" rx="1.81818" ry="2" fill="#8B0000"/>
<ellipse cx="139.318" cy="154" rx="1.81818" ry="2" fill="#8B0000"/>
<ellipse cx="254.818" cy="159" rx="1.81818" ry="2" fill="#8B0000"/>
<ellipse cx="254.818" cy="154" rx="1.81818" ry="2" fill="#8B0000"/>
<ellipse cx="197.318" cy="159" rx="1.81818" ry="2" fill="#8B0000"/>
<ellipse cx="197.318" cy="154" rx="1.81818" ry="2" fill="#8B0000"/>
<path d="M114 160V154" stroke="#8B0000" stroke-width="2"/>
<path d="M110 154H118" stroke="#8B0000" stroke-width="2"/>
<ellipse cx="168.318" cy="139" rx="1.81818" ry="2" fill="black" fill-opacity="0.5"/>
<ellipse cx="226.318" cy="139" rx="1.81818" ry="2" fill="black" fill-opacity="0.5"/>
<ellipse cx="279.818" cy="155" rx="1.81818" ry="2" fill="#8B0000"/>
<path d="M285.933 138.223V147H283.674V138.199C283.674 136.701 283.369 135.643 282.759 135.025C282.157 134.406 281.111 134.097 279.622 134.097H273.933V132.022H279.658C281.156 132.022 282.364 132.234 283.284 132.657C284.203 133.072 284.875 133.735 285.298 134.646C285.721 135.55 285.933 136.742 285.933 138.223ZM276.423 137.271V147H274.177V137.271H276.423Z" fill="#8B0000"/>
<path d="M100.623 72.022V79.8955H98.377V72.022H100.623Z" fill="#8B0000"/>
<ellipse cx="114.318" cy="96" rx="1.81818" ry="2" fill="#8B0000"/>
<ellipse cx="279.818" cy="96" rx="1.81818" ry="2" fill="#8B0000"/>
<rect x="216" y="71" width="20" height="20" fill="white"/>
<rect x="216.5" y="71.5" width="19" height="19" stroke="black" stroke-opacity="0.5"/>
<rect x="245" y="71" width="20" height="20" fill="white"/>
<rect x="245.5" y="71.5" width="19" height="19" stroke="black" stroke-opacity="0.5"/>
<rect x="187" y="71" width="20" height="20" fill="white"/>
<rect x="187.5" y="71.5" width="19" height="19" stroke="black" stroke-opacity="0.5"/>
<rect x="158" y="71" width="20" height="20" fill="white"/>
<rect x="158.5" y="71.5" width="19" height="19" stroke="black" stroke-opacity="0.5"/>
<line x1="164.983" y1="63.0261" x2="170.786" y2="60.3203" stroke="black" stroke-opacity="0.5" stroke-width="1.5"/>
<line x1="165.317" y1="62.9537" x2="171.12" y2="65.6595" stroke="black" stroke-opacity="0.5" stroke-width="1.5"/>
<rect x="129" y="71" width="20" height="20" fill="white"/>
<rect x="129.5" y="71.5" width="19" height="19" stroke="black" stroke-opacity="0.5"/>
<path d="M110.399 86.6807C110.122 87.5026 109.683 88.0967 109.081 88.4629C108.478 88.821 107.53 89 106.236 89H106.102V86.9248H106.31C106.871 86.9248 107.319 86.819 107.652 86.6074C107.978 86.3958 108.21 86.0744 108.348 85.6431C108.486 85.2036 108.556 84.5404 108.556 83.6533V76.0972H106.236V74.022H114.33C116.576 74.022 118.187 74.5021 119.164 75.4624C120.14 76.4146 120.628 78.0015 120.628 80.2231V89H118.382V80.1987C118.382 78.7013 118.077 77.6434 117.467 77.0249C116.865 76.4064 115.811 76.0972 114.305 76.0972H110.802V83.2017C110.802 84.6991 110.667 85.8587 110.399 86.6807Z" fill="#8B0000"/>
<path d="M285.933 80.2231V89H283.674V80.1987C283.674 78.7013 283.369 77.6434 282.759 77.0249C282.157 76.4064 281.111 76.0972 279.622 76.0972H273.933V74.022H279.658C281.156 74.022 282.364 74.2336 283.284 74.6567C284.203 75.0718 284.875 75.735 285.298 76.6465C285.721 77.5498 285.933 78.742 285.933 80.2231ZM276.423 79.271V89H274.177V79.271H276.423Z" fill="#8B0000"/>
<ellipse cx="114.318" cy="81" rx="1.81818" ry="2" fill="black" fill-opacity="0.5"/>
<ellipse cx="168.318" cy="81" rx="1.81818" ry="2" fill="black" fill-opacity="0.5"/>
<ellipse cx="226.318" cy="81" rx="1.81818" ry="2" fill="black" fill-opacity="0.5"/>
<path d="M222 96H230" stroke="#8B0000" stroke-width="2"/>
<path d="M164 96H172" stroke="#8B0000" stroke-width="2"/>
<ellipse cx="139.318" cy="101" rx="1.81818" ry="2" fill="#8B0000"/>
<ellipse cx="139.318" cy="96" rx="1.81818" ry="2" fill="#8B0000"/>
<ellipse cx="254.818" cy="101" rx="1.81818" ry="2" fill="#8B0000"/>
<ellipse cx="254.818" cy="96" rx="1.81818" ry="2" fill="#8B0000"/>
<ellipse cx="197.318" cy="101" rx="1.81818" ry="2" fill="#8B0000"/>
<ellipse cx="197.318" cy="96" rx="1.81818" ry="2" fill="#8B0000"/>
<path d="M38.0955 72.4545V87H35.4606V75.0185H35.3754L31.9734 77.1918V74.777L35.5884 72.4545H38.0955ZM47.2717 74.4858L45.5032 74.6207C45.4558 74.4077 45.3304 74.2135 45.1268 74.0384C44.9232 73.8632 44.632 73.7756 44.2532 73.7756C43.9502 73.7756 43.6826 73.8419 43.4506 73.9744C43.2186 74.1023 43.1026 74.2822 43.1026 74.5142C43.1026 74.6941 43.176 74.8433 43.3228 74.9616C43.4743 75.0753 43.7205 75.17 44.0614 75.2457L45.3612 75.5156C46.024 75.6529 46.5354 75.8826 46.8952 76.2045C47.2598 76.5265 47.4421 76.9574 47.4421 77.4972C47.4421 77.9706 47.3024 78.3849 47.0231 78.7401C46.7437 79.0952 46.3626 79.3722 45.8796 79.571C45.3967 79.7699 44.8474 79.8693 44.2319 79.8693C43.2991 79.8693 42.5487 79.6728 41.9805 79.2798C41.4123 78.8868 41.0832 78.3494 40.9933 77.6676L42.8896 77.5256C42.9558 77.8333 43.105 78.063 43.337 78.2145C43.569 78.3613 43.8673 78.4347 44.2319 78.4347C44.587 78.4347 44.8806 78.366 45.1126 78.2287C45.3493 78.0866 45.4677 77.9044 45.4677 77.6818C45.4677 77.5066 45.3919 77.3575 45.2404 77.2344C45.0936 77.1113 44.8545 77.0166 44.5231 76.9503L43.266 76.6946C42.5605 76.5526 42.0373 76.3063 41.6964 75.956C41.3602 75.6056 41.1921 75.1605 41.1921 74.6207C41.1921 73.9247 41.4691 73.3755 42.0231 72.973C42.5818 72.5705 43.3157 72.3693 44.2248 72.3693C45.1339 72.3693 45.8441 72.5634 46.3555 72.9517C46.8716 73.3352 47.177 73.8466 47.2717 74.4858ZM52.5682 72.4545V73.9247H48.2358V72.4545H52.5682ZM49.2443 70.7216H51.1832V77.4901C51.1832 77.7741 51.2472 77.9683 51.375 78.0724C51.5028 78.1719 51.6709 78.2216 51.8793 78.2216C51.9787 78.2216 52.071 78.2145 52.1562 78.2003C52.2462 78.1861 52.3196 78.1742 52.3764 78.1648L52.6889 79.6349C52.5705 79.6681 52.4261 79.7036 52.2557 79.7415C52.09 79.7746 51.8793 79.7936 51.6236 79.7983C50.9228 79.822 50.3499 79.6705 49.9048 79.3438C49.4645 79.017 49.2443 78.4915 49.2443 77.767V70.7216Z" fill="black"/>
<line x1="301.5" y1="50" x2="301.5" y2="350" stroke="black" stroke-opacity="0.2"/>
<path d="M321.042 77.0132V81.7373H319.694V77.0132H321.042ZM326.953 80.4922V86H322.844V84.7549H325.605V80.873C325.605 80.082 325.566 79.5229 325.488 79.1958C325.41 78.8589 325.273 78.6196 325.078 78.478C324.887 78.3315 324.611 78.2583 324.25 78.2583H323.261V77.0132H324.206C324.987 77.0132 325.559 77.1206 325.92 77.3354C326.281 77.5552 326.542 77.9141 326.704 78.4121C326.87 78.9053 326.953 79.5986 326.953 80.4922ZM330.651 83.0483L330.065 86H328.645L329.26 83.0776C329.436 82.2378 329.597 81.647 329.743 81.3052C329.89 80.9585 330.073 80.6777 330.292 80.4629C330.517 80.248 330.817 80.0649 331.193 79.9136L329.077 77.0132H330.739L334.042 81.5615C334.409 81.2197 334.699 80.8071 334.914 80.3237C335.134 79.8354 335.278 79.2764 335.346 78.6465L335.515 77.0132H336.906L336.738 78.6172C336.684 79.1543 336.586 79.6255 336.445 80.0308C336.347 80.3091 336.23 80.5752 336.093 80.8291C335.957 81.0781 335.781 81.3369 335.566 81.6055C335.356 81.874 335.083 82.1743 334.746 82.5063L337.39 86H335.676L331.809 80.7485C331.418 80.939 331.14 81.2686 330.974 81.7373C330.925 81.8594 330.874 82.0303 330.82 82.25C330.771 82.4697 330.715 82.7358 330.651 83.0483Z" fill="black"/>
<path d="M321.665 138.734V144H320.31V138.719C320.31 137.821 320.126 137.186 319.76 136.815C319.399 136.444 318.771 136.258 317.878 136.258H314.465V135.013H317.9C318.798 135.013 319.523 135.14 320.075 135.394C320.627 135.643 321.03 136.041 321.284 136.588C321.538 137.13 321.665 137.845 321.665 138.734ZM315.959 138.163V144H314.611V138.163H315.959ZM325.883 142.608C325.717 143.102 325.454 143.458 325.092 143.678C324.731 143.893 324.162 144 323.386 144H323.305V142.755H323.43C323.767 142.755 324.035 142.691 324.235 142.564C324.431 142.438 324.57 142.245 324.653 141.986C324.736 141.722 324.777 141.324 324.777 140.792V136.258H323.386V135.013H328.242C329.589 135.013 330.556 135.301 331.142 135.877C331.728 136.449 332.021 137.401 332.021 138.734V144H330.673V138.719C330.673 137.821 330.49 137.186 330.124 136.815C329.763 136.444 329.13 136.258 328.227 136.258H326.125V140.521C326.125 141.419 326.044 142.115 325.883 142.608ZM335.72 141.048L335.134 144H333.713L334.328 141.078C334.504 140.238 334.665 139.647 334.812 139.305C334.958 138.958 335.141 138.678 335.361 138.463C335.585 138.248 335.886 138.065 336.262 137.914L334.145 135.013H335.808L339.111 139.562C339.477 139.22 339.768 138.807 339.982 138.324C340.202 137.835 340.346 137.276 340.415 136.646L340.583 135.013H341.975L341.806 136.617C341.752 137.154 341.655 137.625 341.513 138.031C341.416 138.309 341.298 138.575 341.162 138.829C341.025 139.078 340.849 139.337 340.634 139.605C340.424 139.874 340.151 140.174 339.814 140.506L342.458 144H340.744L336.877 138.749C336.486 138.939 336.208 139.269 336.042 139.737C335.993 139.859 335.942 140.03 335.888 140.25C335.839 140.47 335.783 140.736 335.72 141.048Z" fill="black"/>
<path d="M319.579 260.048L318.993 263H317.572L318.188 260.078C318.363 259.238 318.524 258.647 318.671 258.305C318.817 257.958 319 257.678 319.22 257.463C319.445 257.248 319.745 257.065 320.121 256.914L318.004 254.013H319.667L322.97 258.562C323.336 258.22 323.627 257.807 323.842 257.324C324.062 256.835 324.206 256.276 324.274 255.646L324.442 254.013H325.834L325.666 255.617C325.612 256.154 325.514 256.625 325.373 257.031C325.275 257.309 325.158 257.575 325.021 257.829C324.884 258.078 324.708 258.337 324.494 258.605C324.284 258.874 324.01 259.174 323.673 259.506L326.317 263H324.604L320.736 257.749C320.346 257.939 320.067 258.269 319.901 258.737C319.853 258.859 319.801 259.03 319.748 259.25C319.699 259.47 319.643 259.736 319.579 260.048ZM329.13 254.013V263H327.782V254.013H329.13ZM338.717 257.734V263H337.362V257.719C337.362 256.821 337.179 256.186 336.813 255.815C336.452 255.444 335.824 255.258 334.931 255.258H331.518V254.013H334.953C335.851 254.013 336.576 254.14 337.128 254.394C337.68 254.643 338.083 255.041 338.336 255.588C338.59 256.13 338.717 256.845 338.717 257.734ZM333.012 257.163V263H331.664V257.163H333.012Z" fill="black"/>
<path d="M599.628 256.734V262H591.931V253.013H595.864C597.211 253.013 598.176 253.301 598.757 253.877C599.338 254.454 599.628 255.406 599.628 256.734ZM593.278 260.755H598.273V256.719C598.273 255.831 598.093 255.198 597.731 254.822C597.375 254.446 596.748 254.258 595.849 254.258H593.278V260.755ZM609.15 256.734V262H607.795V256.719C607.795 255.821 607.612 255.186 607.246 254.815C606.884 254.444 606.257 254.258 605.363 254.258H601.95V253.013H605.385C606.284 253.013 607.009 253.14 607.561 253.394C608.112 253.643 608.515 254.041 608.769 254.588C609.023 255.13 609.15 255.845 609.15 256.734ZM603.444 256.163V262H602.097V256.163H603.444Z" fill="black"/>
<path d="M596.42 314.013V325.82H595.073V314.013H596.42ZM606.008 317.734V323H604.653V317.719C604.653 316.821 604.47 316.186 604.104 315.815C603.742 315.444 603.115 315.258 602.221 315.258H598.808V314.013H602.243C603.142 314.013 603.867 314.14 604.418 314.394C604.97 314.643 605.373 315.041 605.627 315.588C605.881 316.13 606.008 316.845 606.008 317.734ZM600.302 317.163V323H598.955V317.163H600.302Z" fill="black"/>
<path d="M319.579 320.048L318.993 323H317.572L318.188 320.078C318.363 319.238 318.524 318.647 318.671 318.305C318.817 317.958 319 317.678 319.22 317.463C319.445 317.248 319.745 317.065 320.121 316.914L318.004 314.013H319.667L322.97 318.562C323.336 318.22 323.627 317.807 323.842 317.324C324.062 316.835 324.206 316.276 324.274 315.646L324.442 314.013H325.834L325.666 315.617C325.612 316.154 325.514 316.625 325.373 317.031C325.275 317.309 325.158 317.575 325.021 317.829C324.884 318.078 324.708 318.337 324.494 318.605C324.284 318.874 324.01 319.174 323.673 319.506L326.317 323H324.604L320.736 317.749C320.346 317.939 320.067 318.269 319.901 318.737C319.853 318.859 319.801 319.03 319.748 319.25C319.699 319.47 319.643 319.736 319.579 320.048ZM329.13 314.013V318.737H327.782V314.013H329.13ZM338.717 317.734V323H337.362V317.719C337.362 316.821 337.179 316.186 336.813 315.815C336.452 315.444 335.824 315.258 334.931 315.258H331.518V314.013H334.953C335.851 314.013 336.576 314.14 337.128 314.394C337.68 314.643 338.083 315.041 338.336 315.588C338.59 316.13 338.717 316.845 338.717 317.734ZM333.012 317.163V323H331.664V317.163H333.012Z" fill="black"/>
<path d="M321.13 200.608C320.964 201.102 320.7 201.458 320.339 201.678C319.978 201.893 319.409 202 318.632 202H318.552V200.755H318.676C319.013 200.755 319.282 200.691 319.482 200.564C319.677 200.438 319.816 200.245 319.899 199.986C319.982 199.722 320.024 199.324 320.024 198.792V194.258H318.632V193.013H323.488C324.836 193.013 325.803 193.301 326.389 193.877C326.975 194.449 327.268 195.401 327.268 196.734V202H325.92V196.719C325.92 195.821 325.737 195.186 325.371 194.815C325.009 194.444 324.377 194.258 323.474 194.258H321.372V198.521C321.372 199.419 321.291 200.115 321.13 200.608ZM330.966 199.048L330.38 202H328.959L329.575 199.078C329.75 198.238 329.912 197.647 330.058 197.305C330.205 196.958 330.388 196.678 330.607 196.463C330.832 196.248 331.132 196.065 331.508 195.914L329.392 193.013H331.054L334.357 197.562C334.724 197.22 335.014 196.807 335.229 196.324C335.449 195.835 335.593 195.276 335.661 194.646L335.83 193.013H337.221L337.053 194.617C336.999 195.154 336.901 195.625 336.76 196.031C336.662 196.309 336.545 196.575 336.408 196.829C336.271 197.078 336.096 197.337 335.881 197.605C335.671 197.874 335.397 198.174 335.061 198.506L337.705 202H335.991L332.124 196.749C331.733 196.939 331.455 197.269 331.289 197.737C331.24 197.859 331.188 198.03 331.135 198.25C331.086 198.47 331.03 198.736 330.966 199.048Z" fill="black"/>
<path d="M586.683 77.0132V86H585.335V77.0132H586.683ZM592.594 80.4922V86H588.485V84.7549H591.246V80.873C591.246 80.082 591.207 79.5229 591.129 79.1958C591.051 78.8589 590.914 78.6196 590.719 78.478C590.528 78.3315 590.252 78.2583 589.891 78.2583H588.902V77.0132H589.847C590.628 77.0132 591.2 77.1206 591.561 77.3354C591.922 77.5552 592.184 77.9141 592.345 78.4121C592.511 78.9053 592.594 79.5986 592.594 80.4922ZM601.119 80.7192C601.119 79.8306 600.938 79.1982 600.577 78.8223C600.221 78.4463 599.593 78.2583 598.695 78.2583H596.424V86H595.077V77.0132H598.709C600.057 77.0132 601.021 77.3013 601.603 77.8774C602.184 78.4536 602.474 79.4058 602.474 80.7339V86H601.119V80.7192ZM608.312 80.4922V86H604.203V84.7549H606.964V80.873C606.964 80.082 606.925 79.5229 606.847 79.1958C606.769 78.8589 606.632 78.6196 606.437 78.478C606.246 78.3315 605.97 78.2583 605.609 78.2583H604.62V77.0132H605.565C606.346 77.0132 606.917 77.1206 607.279 77.3354C607.64 77.5552 607.901 77.9141 608.062 78.4121C608.229 78.9053 608.312 79.5986 608.312 80.4922ZM612.01 83.0483L611.424 86H610.003L610.619 83.0776C610.794 82.2378 610.956 81.647 611.102 81.3052C611.249 80.9585 611.432 80.6777 611.651 80.4629C611.876 80.248 612.176 80.0649 612.552 79.9136L610.436 77.0132H612.098L615.401 81.5615C615.768 81.2197 616.058 80.8071 616.273 80.3237C616.493 79.8354 616.637 79.2764 616.705 78.6465L616.874 77.0132H618.265L618.097 78.6172C618.043 79.1543 617.945 79.6255 617.804 80.0308C617.706 80.3091 617.589 80.5752 617.452 80.8291C617.315 81.0781 617.14 81.3369 616.925 81.6055C616.715 81.874 616.441 82.1743 616.104 82.5063L618.749 86H617.035L613.167 80.7485C612.777 80.939 612.499 81.2686 612.333 81.7373C612.284 81.8594 612.232 82.0303 612.179 82.25C612.13 82.4697 612.074 82.7358 612.01 83.0483Z" fill="black"/>
<path d="M594.987 140.734V146H587.289V137.013H591.222C592.57 137.013 593.534 137.301 594.115 137.877C594.696 138.454 594.987 139.406 594.987 140.734ZM588.637 144.755H593.632V140.719C593.632 139.831 593.451 139.198 593.09 138.822C592.733 138.446 592.106 138.258 591.208 138.258H588.637V144.755ZM599.22 144.608C599.054 145.102 598.791 145.458 598.429 145.678C598.068 145.893 597.499 146 596.723 146H596.642V144.755H596.767C597.104 144.755 597.372 144.691 597.572 144.564C597.768 144.438 597.907 144.245 597.99 143.986C598.073 143.722 598.114 143.324 598.114 142.792V138.258H596.723V137.013H601.579C602.926 137.013 603.893 137.301 604.479 137.877C605.065 138.449 605.358 139.401 605.358 140.734V146H604.01V140.719C604.01 139.821 603.827 139.186 603.461 138.815C603.1 138.444 602.467 138.258 601.564 138.258H599.462V142.521C599.462 143.419 599.381 144.115 599.22 144.608ZM609.057 143.048L608.471 146H607.05L607.665 143.078C607.841 142.238 608.002 141.647 608.148 141.305C608.295 140.958 608.478 140.678 608.698 140.463C608.922 140.248 609.223 140.065 609.599 139.914L607.482 137.013H609.145L612.448 141.562C612.814 141.22 613.104 140.807 613.319 140.324C613.539 139.835 613.683 139.276 613.751 138.646L613.92 137.013H615.312L615.143 138.617C615.089 139.154 614.992 139.625 614.85 140.031C614.752 140.309 614.635 140.575 614.499 140.829C614.362 141.078 614.186 141.337 613.971 141.605C613.761 141.874 613.488 142.174 613.151 142.506L615.795 146H614.081L610.214 140.749C609.823 140.939 609.545 141.269 609.379 141.737C609.33 141.859 609.279 142.03 609.225 142.25C609.176 142.47 609.12 142.736 609.057 143.048Z" fill="black"/>
<path d="M591.779 193.013V204.82H590.431V193.013H591.779ZM596.078 200.608C595.912 201.102 595.648 201.458 595.287 201.678C594.926 201.893 594.357 202 593.581 202H593.5V200.755H593.625C593.961 200.755 594.23 200.691 594.43 200.564C594.625 200.438 594.765 200.245 594.848 199.986C594.931 199.722 594.972 199.324 594.972 198.792V194.258H593.581V193.013H598.437C599.784 193.013 600.751 193.301 601.337 193.877C601.923 194.449 602.216 195.401 602.216 196.734V202H600.868V196.719C600.868 195.821 600.685 195.186 600.319 194.815C599.958 194.444 599.325 194.258 598.422 194.258H596.32V198.521C596.32 199.419 596.239 200.115 596.078 200.608ZM605.915 199.048L605.329 202H603.908L604.523 199.078C604.699 198.238 604.86 197.647 605.006 197.305C605.153 196.958 605.336 196.678 605.556 196.463C605.78 196.248 606.081 196.065 606.457 195.914L604.34 193.013H606.002L609.306 197.562C609.672 197.22 609.962 196.807 610.177 196.324C610.397 195.835 610.541 195.276 610.609 194.646L610.778 193.013H612.169L612.001 194.617C611.947 195.154 611.85 195.625 611.708 196.031C611.61 196.309 611.493 196.575 611.356 196.829C611.22 197.078 611.044 197.337 610.829 197.605C610.619 197.874 610.346 198.174 610.009 198.506L612.653 202H610.939L607.072 196.749C606.681 196.939 606.403 197.269 606.237 197.737C606.188 197.859 606.137 198.03 606.083 198.25C606.034 198.47 605.978 198.736 605.915 199.048Z" fill="black"/>
<path d="M13.7321 182V180.097L18.7818 175.146C19.2647 174.659 19.6672 174.225 19.9892 173.847C20.3111 173.468 20.5526 173.101 20.7136 172.746C20.8746 172.391 20.9551 172.012 20.9551 171.609C20.9551 171.15 20.8509 170.757 20.6426 170.43C20.4342 170.099 20.1478 169.843 19.7832 169.663C19.4186 169.483 19.0043 169.393 18.5403 169.393C18.0621 169.393 17.6431 169.493 17.2832 169.692C16.9234 169.886 16.644 170.163 16.4451 170.523C16.251 170.883 16.1539 171.311 16.1539 171.808H13.6468C13.6468 170.885 13.8575 170.082 14.2789 169.401C14.7003 168.719 15.2804 168.191 16.019 167.817C16.7624 167.443 17.6146 167.256 18.5758 167.256C19.5512 167.256 20.4082 167.438 21.1468 167.803C21.8855 168.167 22.4584 168.667 22.8656 169.301C23.2775 169.936 23.4835 170.66 23.4835 171.474C23.4835 172.019 23.3793 172.554 23.171 173.08C22.9627 173.605 22.5957 174.187 22.0701 174.827C21.5493 175.466 20.8178 176.24 19.8755 177.149L17.3684 179.699V179.798H23.7037V182H13.7321ZM27.6099 170.537V174.727H25.671V167.455H27.5176V168.726H27.6028C27.7638 168.309 28.0337 167.98 28.4125 167.739C28.796 167.492 29.2553 167.369 29.7903 167.369C30.5337 167.369 31.135 167.611 31.5943 168.094C32.0583 168.577 32.2903 169.249 32.2903 170.111V174.727H30.3514V170.445C30.3514 169.985 30.2306 169.628 29.9892 169.372C29.7524 169.116 29.4305 168.989 29.0233 168.989C28.6113 168.989 28.2728 169.124 28.0076 169.393C27.7425 169.663 27.6099 170.045 27.6099 170.537ZM40.6745 174.727H38.7711V173.584H38.6788C38.5936 173.75 38.4705 173.932 38.3095 174.131C38.1485 174.33 37.9307 174.5 37.6561 174.642C37.3862 174.784 37.0405 174.855 36.6191 174.855C36.0652 174.855 35.5633 174.713 35.1135 174.429C34.6636 174.14 34.3062 173.716 34.041 173.158C33.7806 172.599 33.6504 171.915 33.6504 171.105C33.6504 170.286 33.7853 169.599 34.0552 169.045C34.3251 168.487 34.685 168.068 35.1348 167.788C35.5846 167.509 36.0794 167.369 36.6191 167.369C37.0311 167.369 37.3743 167.44 37.649 167.582C37.9236 167.72 38.1414 167.89 38.3024 168.094C38.4681 168.293 38.5936 168.482 38.6788 168.662H38.7427V165.04H40.6745V174.727ZM38.7853 171.091C38.7853 170.442 38.648 169.919 38.3734 169.521C38.1035 169.119 37.7153 168.918 37.2086 168.918C36.6878 168.918 36.2924 169.124 36.0225 169.536C35.7574 169.947 35.6248 170.466 35.6248 171.091C35.6248 171.522 35.6864 171.903 35.8095 172.234C35.9326 172.566 36.1101 172.826 36.3422 173.016C36.5789 173.2 36.8677 173.293 37.2086 173.293C37.5401 173.293 37.8242 173.2 38.0609 173.016C38.2976 172.831 38.4776 172.575 38.6007 172.249C38.7238 171.917 38.7853 171.531 38.7853 171.091Z" fill="black"/>
<path d="M59.3464 145V134.091H61.8038V135.945H61.9316C62.1589 135.32 62.5353 134.832 63.0609 134.482C63.5865 134.126 64.2138 133.949 64.943 133.949C65.6816 133.949 66.3043 134.129 66.8109 134.489C67.3223 134.844 67.6821 135.329 67.8904 135.945H68.0041C68.2456 135.339 68.6528 134.856 69.2257 134.496C69.8033 134.131 70.4875 133.949 71.2782 133.949C72.282 133.949 73.1011 134.266 73.7356 134.901C74.3701 135.535 74.6873 136.461 74.6873 137.678V145H72.1092V138.075C72.1092 137.398 71.9293 136.903 71.5694 136.591C71.2096 136.274 70.7692 136.115 70.2484 136.115C69.6281 136.115 69.1428 136.309 68.7924 136.697C68.4468 137.081 68.274 137.58 68.274 138.196V145H65.7527V137.969C65.7527 137.405 65.5822 136.955 65.2413 136.619C64.9051 136.283 64.4648 136.115 63.9203 136.115C63.551 136.115 63.2148 136.21 62.9118 136.399C62.6087 136.584 62.3672 136.847 62.1873 137.188C62.0074 137.524 61.9174 137.917 61.9174 138.366V145H59.3464Z" fill="black"/>
<path d="M70.0771 194.091V196.08H63.6282V194.091H70.0771ZM65.2404 205V193.061C65.2404 192.327 65.3919 191.716 65.695 191.229C66.0027 190.741 66.4147 190.376 66.9308 190.135C67.4469 189.893 68.0198 189.773 68.6495 189.773C69.0946 189.773 69.4899 189.808 69.8356 189.879C70.1812 189.95 70.4369 190.014 70.6026 190.071L70.0913 192.06C69.9824 192.027 69.8451 191.993 69.6793 191.96C69.5136 191.922 69.329 191.903 69.1254 191.903C68.6471 191.903 68.3086 192.019 68.1097 192.251C67.9156 192.479 67.8185 192.805 67.8185 193.232V205H65.2404Z" fill="black"/>
<line x1="51.5" y1="110" x2="51.5" y2="230" stroke="black" stroke-opacity="0.35"/>
<path d="M20.6046 302.199C19.5819 302.199 18.6728 302.024 17.8773 301.673C17.0866 301.323 16.4616 300.835 16.0023 300.21C15.543 299.585 15.2992 298.863 15.2708 298.044H17.9412C17.9649 298.437 18.0951 298.78 18.3319 299.074C18.5686 299.363 18.8835 299.588 19.2765 299.749C19.6694 299.91 20.1098 299.99 20.5975 299.99C21.1183 299.99 21.58 299.9 21.9824 299.72C22.3849 299.536 22.6998 299.28 22.927 298.953C23.1543 298.626 23.2656 298.25 23.2608 297.824C23.2656 297.384 23.1519 296.995 22.9199 296.659C22.6879 296.323 22.3517 296.06 21.9114 295.871C21.4758 295.681 20.9502 295.587 20.3347 295.587H19.0492V293.555H20.3347C20.8413 293.555 21.284 293.468 21.6628 293.293C22.0463 293.117 22.347 292.871 22.5648 292.554C22.7826 292.232 22.8891 291.86 22.8844 291.439C22.8891 291.027 22.7968 290.67 22.6074 290.366C22.4228 290.059 22.16 289.82 21.8191 289.649C21.4829 289.479 21.0875 289.393 20.633 289.393C20.1879 289.393 19.776 289.474 19.3972 289.635C19.0184 289.796 18.713 290.026 18.481 290.324C18.249 290.617 18.1259 290.968 18.1117 291.375H15.5762C15.5951 290.561 15.8295 289.846 16.2793 289.23C16.7338 288.61 17.3399 288.127 18.0975 287.781C18.8551 287.431 19.705 287.256 20.6472 287.256C21.6178 287.256 22.4606 287.438 23.1756 287.803C23.8953 288.162 24.4516 288.648 24.8446 289.259C25.2376 289.869 25.4341 290.544 25.4341 291.283C25.4389 292.102 25.1974 292.788 24.7097 293.342C24.2267 293.896 23.5923 294.259 22.8063 294.429V294.543C23.829 294.685 24.6126 295.063 25.1571 295.679C25.7064 296.29 25.9786 297.05 25.9739 297.959C25.9739 298.773 25.7419 299.502 25.2779 300.146C24.8186 300.786 24.1841 301.287 23.3745 301.652C22.5695 302.017 21.6462 302.199 20.6046 302.199ZM27.9288 294.727V287.455H29.818V288.697H29.889C30.0169 288.262 30.2394 287.93 30.5566 287.703C30.8786 287.471 31.2432 287.355 31.6504 287.355C31.854 287.355 32.0339 287.381 32.1902 287.433C32.3511 287.481 32.4979 287.547 32.6305 287.632L32.0481 289.223C31.9487 289.18 31.8398 289.145 31.7214 289.116C31.6078 289.083 31.4847 289.067 31.3521 289.067C30.9402 289.067 30.5898 289.209 30.301 289.493C30.0121 289.777 29.8677 290.137 29.8677 290.572V294.727H27.9288ZM40.0222 294.727H38.1188V293.584H38.0265C37.9412 293.75 37.8181 293.932 37.6571 294.131C37.4962 294.33 37.2783 294.5 37.0037 294.642C36.7338 294.784 36.3882 294.855 35.9668 294.855C35.4128 294.855 34.9109 294.713 34.4611 294.429C34.0113 294.14 33.6538 293.716 33.3887 293.158C33.1283 292.599 32.998 291.915 32.998 291.105C32.998 290.286 33.133 289.599 33.4029 289.045C33.6728 288.487 34.0326 288.068 34.4824 287.788C34.9322 287.509 35.427 287.369 35.9668 287.369C36.3787 287.369 36.722 287.44 36.9966 287.582C37.2712 287.72 37.4891 287.89 37.65 288.094C37.8158 288.293 37.9412 288.482 38.0265 288.662H38.0904V285.04H40.0222V294.727ZM38.133 291.091C38.133 290.442 37.9957 289.919 37.7211 289.521C37.4512 289.119 37.0629 288.918 36.5563 288.918C36.0355 288.918 35.6401 289.124 35.3702 289.536C35.1051 289.947 34.9725 290.466 34.9725 291.091C34.9725 291.522 35.034 291.903 35.1571 292.234C35.2802 292.566 35.4578 292.826 35.6898 293.016C35.9266 293.2 36.2154 293.293 36.5563 293.293C36.8877 293.293 37.1718 293.2 37.4086 293.016C37.6453 292.831 37.8252 292.575 37.9483 292.249C38.0714 291.917 38.133 291.531 38.133 291.091Z" fill="black"/>
<path d="M59.3464 265V254.091H61.8038V255.945H61.9316C62.1589 255.32 62.5353 254.832 63.0609 254.482C63.5865 254.126 64.2138 253.949 64.943 253.949C65.6816 253.949 66.3043 254.129 66.8109 254.489C67.3223 254.844 67.6821 255.329 67.8904 255.945H68.0041C68.2456 255.339 68.6528 254.856 69.2257 254.496C69.8033 254.131 70.4875 253.949 71.2782 253.949C72.282 253.949 73.1011 254.266 73.7356 254.901C74.3701 255.535 74.6873 256.461 74.6873 257.678V265H72.1092V258.075C72.1092 257.398 71.9293 256.903 71.5694 256.591C71.2096 256.274 70.7692 256.115 70.2484 256.115C69.6281 256.115 69.1428 256.309 68.7924 256.697C68.4468 257.081 68.274 257.58 68.274 258.196V265H65.7527V257.969C65.7527 257.405 65.5822 256.955 65.2413 256.619C64.9051 256.283 64.4648 256.115 63.9203 256.115C63.551 256.115 63.2148 256.21 62.9118 256.399C62.6087 256.584 62.3672 256.847 62.1873 257.188C62.0074 257.524 61.9174 257.917 61.9174 258.366V265H59.3464Z" fill="black"/>
<path d="M70.0771 314.091V316.08H63.6282V314.091H70.0771ZM65.2404 325V313.061C65.2404 312.327 65.3919 311.716 65.695 311.229C66.0027 310.741 66.4147 310.376 66.9308 310.135C67.4469 309.893 68.0198 309.773 68.6495 309.773C69.0946 309.773 69.4899 309.808 69.8356 309.879C70.1812 309.95 70.4369 310.014 70.6026 310.071L70.0913 312.06C69.9824 312.027 69.8451 311.993 69.6793 311.96C69.5136 311.922 69.329 311.903 69.1254 311.903C68.6471 311.903 68.3086 312.019 68.1097 312.251C67.9156 312.479 67.8185 312.805 67.8185 313.232V325H65.2404Z" fill="black"/>
<line x1="51.5" y1="230" x2="51.5" y2="350" stroke="black" stroke-opacity="0.35"/>
</svg>
