<svg width="581" height="350" viewBox="0 0 581 350" fill="none" xmlns="http://www.w3.org/2000/svg">
<path d="M0 20C0 8.9543 8.95431 0 20 0H560C571.046 0 580 8.95431 580 20V330C580 341.046 571.046 350 560 350H20C8.95432 350 0 341.046 0 330V20Z" fill="white"/>
<path d="M0.5 20C0.5 9.23045 9.23045 0.5 20 0.5H560C570.77 0.5 579.5 9.23045 579.5 20V330C579.5 340.77 570.77 349.5 560 349.5H20C9.23046 349.5 0.5 340.77 0.5 330V20Z" stroke="black" stroke-opacity="0.5"/>
<line x1="531.5" y1="50" x2="531.5" y2="350" stroke="black" stroke-opacity="0.2"/>
<path d="M1 110L581 110" stroke="black" stroke-opacity="0.5"/>
<path d="M1 230L581 230" stroke="black" stroke-opacity="0.5"/>
<line x1="1" y1="49.5" x2="581" y2="49.5" stroke="black" stroke-opacity="0.5"/>
<path d="M331 0L331 350" stroke="black" stroke-opacity="0.5"/>
<line x1="81.5" y1="2.18557e-08" x2="81.5" y2="350" stroke="black" stroke-opacity="0.5"/>
<path d="M175.402 22.4531C175.336 21.8329 175.056 21.3499 174.564 21.0043C174.076 20.6586 173.442 20.4858 172.661 20.4858C172.111 20.4858 171.64 20.5687 171.247 20.7344C170.854 20.9001 170.554 21.125 170.345 21.4091C170.137 21.6932 170.03 22.0175 170.026 22.3821C170.026 22.6851 170.094 22.9479 170.232 23.1705C170.374 23.393 170.565 23.5824 170.807 23.7386C171.048 23.8902 171.316 24.018 171.609 24.1222C171.903 24.2263 172.199 24.3139 172.497 24.3849L173.861 24.7259C174.41 24.8537 174.938 25.0265 175.445 25.2443C175.956 25.4621 176.413 25.7367 176.815 26.0682C177.223 26.3996 177.545 26.7997 177.781 27.2685C178.018 27.7372 178.136 28.2865 178.136 28.9162C178.136 29.7685 177.919 30.5189 177.483 31.1676C177.047 31.8116 176.418 32.3158 175.594 32.6804C174.775 33.0402 173.783 33.2202 172.618 33.2202C171.486 33.2202 170.504 33.045 169.67 32.6946C168.842 32.3442 168.193 31.8329 167.724 31.1605C167.26 30.4882 167.009 29.669 166.972 28.7031H169.564C169.602 29.2098 169.758 29.6312 170.033 29.9673C170.307 30.3035 170.665 30.5545 171.105 30.7202C171.55 30.8859 172.047 30.9688 172.597 30.9688C173.17 30.9688 173.671 30.8835 174.102 30.7131C174.538 30.5379 174.879 30.2964 175.125 29.9886C175.371 29.6761 175.497 29.3116 175.501 28.8949C175.497 28.5161 175.385 28.2036 175.168 27.9574C174.95 27.7064 174.644 27.4981 174.251 27.3324C173.863 27.1619 173.409 27.0104 172.888 26.8778L171.233 26.4517C170.035 26.1439 169.088 25.6776 168.392 25.0526C167.701 24.4228 167.355 23.5871 167.355 22.5455C167.355 21.6884 167.587 20.938 168.051 20.294C168.52 19.6501 169.157 19.1506 169.962 18.7955C170.767 18.4356 171.678 18.2557 172.696 18.2557C173.728 18.2557 174.633 18.4356 175.409 18.7955C176.19 19.1506 176.804 19.6454 177.249 20.2798C177.694 20.9096 177.923 21.634 177.938 22.4531H175.402ZM183.12 18.4545V33H180.485V18.4545H183.12ZM197.927 18.4545V33H195.583L188.729 23.0923H188.609V33H185.974V18.4545H188.332L195.178 28.3693H195.306V18.4545H197.927ZM210.542 23.0994C210.424 22.7159 210.261 22.3726 210.052 22.0696C209.849 21.7618 209.602 21.4991 209.314 21.2812C209.029 21.0634 208.703 20.9001 208.333 20.7912C207.964 20.6776 207.562 20.6207 207.126 20.6207C206.345 20.6207 205.649 20.8172 205.038 21.2102C204.427 21.6032 203.947 22.1809 203.596 22.9432C203.251 23.7008 203.078 24.6241 203.078 25.7131C203.078 26.8116 203.251 27.742 203.596 28.5043C203.942 29.2666 204.422 29.8466 205.038 30.2443C205.654 30.6373 206.368 30.8338 207.183 30.8338C207.922 30.8338 208.561 30.6918 209.1 30.4077C209.645 30.1236 210.064 29.7211 210.358 29.2003C210.651 28.6747 210.798 28.0592 210.798 27.3537L211.395 27.446H207.446V25.3864H213.348V27.1335C213.348 28.3788 213.083 29.456 212.552 30.3651C212.022 31.2741 211.293 31.9749 210.365 32.4673C209.437 32.955 208.371 33.1989 207.169 33.1989C205.829 33.1989 204.652 32.8982 203.639 32.2969C202.63 31.6908 201.842 30.8314 201.274 29.7188C200.71 28.6013 200.429 27.2756 200.429 25.7415C200.429 24.5672 200.594 23.5185 200.926 22.5952C201.262 21.6719 201.731 20.8883 202.332 20.2443C202.933 19.5956 203.639 19.1032 204.449 18.767C205.258 18.4261 206.139 18.2557 207.091 18.2557C207.895 18.2557 208.646 18.3741 209.342 18.6108C210.038 18.8428 210.656 19.1742 211.196 19.6051C211.74 20.036 212.188 20.5473 212.538 21.1392C212.888 21.7311 213.118 22.3845 213.227 23.0994H210.542ZM215.896 33V18.4545H218.531V30.7912H224.937V33H215.896ZM227.224 33V18.4545H236.684V20.6634H229.859V24.6122H236.194V26.821H229.859V30.7912H236.741V33H227.224Z" fill="black"/>
<path d="M417.597 33V18.4545H423.051C424.169 18.4545 425.106 18.6629 425.864 19.0795C426.626 19.4962 427.201 20.0691 427.59 20.7983C427.983 21.5227 428.179 22.3466 428.179 23.2699C428.179 24.2027 427.983 25.0312 427.59 25.7557C427.197 26.4801 426.617 27.0507 425.85 27.4673C425.083 27.8793 424.138 28.0852 423.016 28.0852H419.401V25.919H422.661C423.314 25.919 423.849 25.8054 424.266 25.5781C424.682 25.3509 424.99 25.0384 425.189 24.6406C425.393 24.2429 425.494 23.786 425.494 23.2699C425.494 22.7538 425.393 22.2992 425.189 21.9062C424.99 21.5133 424.68 21.2079 424.259 20.9901C423.842 20.7675 423.305 20.6562 422.646 20.6562H420.232V33H417.597ZM430.468 33V18.4545H433.103V30.7912H439.509V33H430.468ZM450.965 18.4545H453.6V27.9574C453.6 28.9991 453.354 29.9152 452.861 30.706C452.374 31.4967 451.687 32.1146 450.802 32.5597C449.916 33 448.882 33.2202 447.698 33.2202C446.51 33.2202 445.473 33 444.587 32.5597C443.702 32.1146 443.015 31.4967 442.528 30.706C442.04 29.9152 441.796 28.9991 441.796 27.9574V18.4545H444.431V27.7372C444.431 28.3433 444.564 28.883 444.829 29.3565C445.099 29.83 445.477 30.2017 445.965 30.4716C446.453 30.7367 447.03 30.8693 447.698 30.8693C448.366 30.8693 448.943 30.7367 449.431 30.4716C449.923 30.2017 450.302 29.83 450.567 29.3565C450.832 28.883 450.965 28.3433 450.965 27.7372V18.4545ZM456.464 33V18.4545H461.919C463.036 18.4545 463.973 18.6487 464.731 19.0369C465.493 19.4252 466.069 19.9697 466.457 20.6705C466.85 21.3665 467.046 22.1785 467.046 23.1065C467.046 24.0393 466.847 24.849 466.45 25.5355C466.057 26.2173 465.477 26.7453 464.71 27.1193C463.943 27.4886 463 27.6733 461.883 27.6733H457.998V25.4858H461.528C462.181 25.4858 462.716 25.3958 463.133 25.2159C463.55 25.0312 463.857 24.7637 464.056 24.4134C464.26 24.0582 464.362 23.6226 464.362 23.1065C464.362 22.5904 464.26 22.1501 464.056 21.7855C463.853 21.4162 463.543 21.1368 463.126 20.9474C462.709 20.7533 462.172 20.6562 461.514 20.6562H459.099V33H456.464ZM463.978 26.4091L467.579 33H464.639L461.102 26.4091H463.978ZM471.34 33H468.527L473.648 18.4545H476.901L482.029 33H479.216L475.331 21.4375H475.218L471.34 33ZM471.432 27.2969H479.102V29.4134H471.432V27.2969ZM483.944 33V18.4545H486.579V30.7912H492.986V33H483.944Z" fill="black"/>
<path d="M81 0H561C572.046 0 581 8.95431 581 20V50H81V0Z" fill="#3EB489" fill-opacity="0.15"/>
<path d="M1 50H81V350H21C9.95431 350 1 341.046 1 330V50Z" fill="#D9D9D9" fill-opacity="0.35"/>
<rect x="477" y="275" width="20" height="20" fill="white"/>
<rect x="477.5" y="275.5" width="19" height="19" stroke="black" stroke-opacity="0.5"/>
<rect x="447" y="275" width="20" height="20" fill="white"/>
<rect x="447.5" y="275.5" width="19" height="19" stroke="black" stroke-opacity="0.5"/>
<rect x="417" y="275" width="20" height="20" fill="white"/>
<rect x="417.5" y="275.5" width="19" height="19" stroke="black" stroke-opacity="0.5"/>
<line x1="393.983" y1="267.026" x2="399.786" y2="264.32" stroke="black" stroke-opacity="0.5" stroke-width="1.5"/>
<line x1="394.317" y1="266.954" x2="400.12" y2="269.66" stroke="black" stroke-opacity="0.5" stroke-width="1.5"/>
<rect x="387" y="275" width="20" height="20" fill="white"/>
<rect x="387.5" y="275.5" width="19" height="19" stroke="black" stroke-opacity="0.5"/>
<ellipse cx="427.318" cy="306" rx="1.81818" ry="2" fill="#8B0000"/>
<ellipse cx="427.318" cy="301" rx="1.81818" ry="2" fill="#8B0000"/>
<ellipse cx="486.818" cy="306" rx="1.81818" ry="2" fill="#8B0000"/>
<ellipse cx="486.818" cy="301" rx="1.81818" ry="2" fill="#8B0000"/>
<path d="M376.623 278.022V293H374.377V278.022H376.623Z" fill="#8B0000"/>
<ellipse cx="369.818" cy="286" rx="1.81818" ry="2" fill="#8B0000"/>
<ellipse cx="510.818" cy="300" rx="1.81818" ry="2" fill="#8B0000"/>
<path d="M516.933 284.223V293H514.674V284.199C514.674 282.701 514.369 281.643 513.759 281.025C513.157 280.406 512.111 280.097 510.622 280.097H504.933V278.022H510.658C512.156 278.022 513.364 278.234 514.284 278.657C515.203 279.072 515.875 279.735 516.298 280.646C516.721 281.55 516.933 282.742 516.933 284.223ZM507.423 283.271V293H505.177V283.271H507.423Z" fill="#8B0000"/>
<path d="M453 300H461" stroke="#8B0000" stroke-width="2"/>
<ellipse cx="427.318" cy="285" rx="1.81818" ry="2" fill="black" fill-opacity="0.5"/>
<ellipse cx="457.318" cy="285" rx="1.81818" ry="2" fill="black" fill-opacity="0.5"/>
<rect x="477" y="186" width="20" height="20" fill="white"/>
<rect x="477.5" y="186.5" width="19" height="19" stroke="black" stroke-opacity="0.5"/>
<rect x="447" y="186" width="20" height="20" fill="white"/>
<rect x="447.5" y="186.5" width="19" height="19" stroke="black" stroke-opacity="0.5"/>
<rect x="417" y="186" width="20" height="20" fill="white"/>
<rect x="417.5" y="186.5" width="19" height="19" stroke="black" stroke-opacity="0.5"/>
<line x1="367.983" y1="178.026" x2="373.786" y2="175.32" stroke="black" stroke-opacity="0.5" stroke-width="1.5"/>
<line x1="368.317" y1="177.954" x2="374.12" y2="180.66" stroke="black" stroke-opacity="0.5" stroke-width="1.5"/>
<rect x="387" y="186" width="20" height="20" fill="white"/>
<rect x="387.5" y="186.5" width="19" height="19" stroke="black" stroke-opacity="0.5"/>
<path d="M367.399 201.681C367.122 202.503 366.683 203.097 366.081 203.463C365.478 203.821 364.53 204 363.236 204H363.102V201.925H363.31C363.871 201.925 364.319 201.819 364.652 201.607C364.978 201.396 365.21 201.074 365.348 200.643C365.486 200.204 365.556 199.54 365.556 198.653V191.097H363.236V189.022H371.33C373.576 189.022 375.187 189.502 376.164 190.462C377.14 191.415 377.628 193.001 377.628 195.223V204H375.382V195.199C375.382 193.701 375.077 192.643 374.467 192.025C373.865 191.406 372.811 191.097 371.305 191.097H367.802V198.202C367.802 199.699 367.667 200.859 367.399 201.681Z" fill="#8B0000"/>
<path d="M352.623 189.022V208.7H350.377V189.022H352.623Z" fill="#8B0000"/>
<ellipse cx="367.818" cy="211" rx="1.81818" ry="2" fill="#8B0000"/>
<ellipse cx="374.182" cy="211" rx="1.81818" ry="2" fill="#8B0000"/>
<ellipse cx="370.818" cy="216" rx="1.81818" ry="2" fill="#8B0000"/>
<ellipse cx="371.318" cy="196" rx="1.81818" ry="2" fill="black" fill-opacity="0.5"/>
<path d="M423 211H431" stroke="#8B0000" stroke-width="2"/>
<path d="M453 211H461" stroke="#8B0000" stroke-width="2"/>
<ellipse cx="397.318" cy="216" rx="1.81818" ry="2" fill="#8B0000"/>
<ellipse cx="397.318" cy="211" rx="1.81818" ry="2" fill="#8B0000"/>
<ellipse cx="486.818" cy="216" rx="1.81818" ry="2" fill="#8B0000"/>
<ellipse cx="486.818" cy="211" rx="1.81818" ry="2" fill="#8B0000"/>
<ellipse cx="510.818" cy="211" rx="1.81818" ry="2" fill="#8B0000"/>
<path d="M516.933 195.223V204H514.674V195.199C514.674 193.701 514.369 192.643 513.759 192.025C513.157 191.406 512.111 191.097 510.622 191.097H504.933V189.022H510.658C512.156 189.022 513.364 189.234 514.284 189.657C515.203 190.072 515.875 190.735 516.298 191.646C516.721 192.55 516.933 193.742 516.933 195.223ZM507.423 194.271V204H505.177V194.271H507.423Z" fill="#8B0000"/>
<ellipse cx="427.318" cy="196" rx="1.81818" ry="2" fill="black" fill-opacity="0.5"/>
<ellipse cx="457.318" cy="196" rx="1.81818" ry="2" fill="black" fill-opacity="0.5"/>
<rect x="477" y="129" width="20" height="20" fill="white"/>
<rect x="477.5" y="129.5" width="19" height="19" stroke="black" stroke-opacity="0.5"/>
<rect x="447" y="129" width="20" height="20" fill="white"/>
<rect x="447.5" y="129.5" width="19" height="19" stroke="black" stroke-opacity="0.5"/>
<rect x="417" y="129" width="20" height="20" fill="white"/>
<rect x="417.5" y="129.5" width="19" height="19" stroke="black" stroke-opacity="0.5"/>
<line x1="367.983" y1="121.026" x2="373.786" y2="118.32" stroke="black" stroke-opacity="0.5" stroke-width="1.5"/>
<line x1="368.317" y1="120.954" x2="374.12" y2="123.66" stroke="black" stroke-opacity="0.5" stroke-width="1.5"/>
<rect x="387" y="129" width="20" height="20" fill="white"/>
<rect x="387.5" y="129.5" width="19" height="19" stroke="black" stroke-opacity="0.5"/>
<path d="M367.399 144.681C367.122 145.503 366.683 146.097 366.081 146.463C365.478 146.821 364.53 147 363.236 147H363.102V144.925H363.31C363.871 144.925 364.319 144.819 364.652 144.607C364.978 144.396 365.21 144.074 365.348 143.643C365.486 143.204 365.556 142.54 365.556 141.653V134.097H363.236V132.022H371.33C373.576 132.022 375.187 132.502 376.164 133.462C377.14 134.415 377.628 136.001 377.628 138.223V147H375.382V138.199C375.382 136.701 375.077 135.643 374.467 135.025C373.865 134.406 372.811 134.097 371.305 134.097H367.802V141.202C367.802 142.699 367.667 143.859 367.399 144.681Z" fill="#8B0000"/>
<path d="M352.97 138.223V147H340.14V132.022H346.695C348.941 132.022 350.549 132.502 351.517 133.462C352.486 134.423 352.97 136.01 352.97 138.223ZM342.386 144.925H350.711V138.199C350.711 136.718 350.41 135.664 349.808 135.037C349.214 134.41 348.168 134.097 346.671 134.097H342.386V144.925Z" fill="#8B0000"/>
<ellipse cx="367.818" cy="154" rx="1.81818" ry="2" fill="#8B0000"/>
<ellipse cx="374.182" cy="154" rx="1.81818" ry="2" fill="#8B0000"/>
<ellipse cx="370.818" cy="159" rx="1.81818" ry="2" fill="#8B0000"/>
<ellipse cx="371.318" cy="139" rx="1.81818" ry="2" fill="black" fill-opacity="0.5"/>
<path d="M423 154H431" stroke="#8B0000" stroke-width="2"/>
<path d="M453 154H461" stroke="#8B0000" stroke-width="2"/>
<ellipse cx="397.318" cy="159" rx="1.81818" ry="2" fill="#8B0000"/>
<ellipse cx="397.318" cy="154" rx="1.81818" ry="2" fill="#8B0000"/>
<ellipse cx="486.818" cy="159" rx="1.81818" ry="2" fill="#8B0000"/>
<ellipse cx="486.818" cy="154" rx="1.81818" ry="2" fill="#8B0000"/>
<ellipse cx="510.818" cy="154" rx="1.81818" ry="2" fill="#8B0000"/>
<path d="M516.933 138.223V147H514.674V138.199C514.674 136.701 514.369 135.643 513.759 135.025C513.157 134.406 512.111 134.097 510.622 134.097H504.933V132.022H510.658C512.156 132.022 513.364 132.234 514.284 132.657C515.203 133.072 515.875 133.735 516.298 134.646C516.721 135.55 516.933 136.742 516.933 138.223ZM507.423 137.271V147H505.177V137.271H507.423Z" fill="#8B0000"/>
<ellipse cx="427.318" cy="139" rx="1.81818" ry="2" fill="black" fill-opacity="0.5"/>
<ellipse cx="457.318" cy="139" rx="1.81818" ry="2" fill="black" fill-opacity="0.5"/>
<rect x="477" y="69" width="20" height="20" fill="white"/>
<rect x="477.5" y="69.5" width="19" height="19" stroke="black" stroke-opacity="0.5"/>
<path d="M447 69H467V89H447V69Z" fill="white"/>
<path d="M447.5 69.5H466.5V88.5H447.5V69.5Z" stroke="black" stroke-opacity="0.5"/>
<path d="M417 69H437V89H417V69Z" fill="white"/>
<path d="M417.5 69.5H436.5V88.5H417.5V69.5Z" stroke="black" stroke-opacity="0.5"/>
<path d="M376.856 77.8203V87H370.008V84.9248H374.61V78.4551C374.61 77.1367 374.545 76.2049 374.415 75.6597C374.285 75.0981 374.057 74.6994 373.731 74.4634C373.414 74.2192 372.954 74.0972 372.352 74.0972H370.704V72.022H372.279C373.581 72.022 374.533 72.201 375.135 72.5591C375.737 72.9253 376.173 73.5234 376.441 74.3535C376.718 75.1755 376.856 76.3311 376.856 77.8203Z" fill="#8B0000"/>
<path d="M362.623 72.022V87H360.377V72.022H362.623Z" fill="#8B0000"/>
<rect x="387" y="69" width="20" height="20" fill="white"/>
<rect x="387.5" y="69.5" width="19" height="19" stroke="black" stroke-opacity="0.5"/>
<line x1="423.983" y1="61.0261" x2="429.786" y2="58.3203" stroke="black" stroke-opacity="0.5" stroke-width="1.5"/>
<line x1="424.317" y1="60.9537" x2="430.12" y2="63.6595" stroke="black" stroke-opacity="0.5" stroke-width="1.5"/>
<path d="M423 94H431" stroke="#8B0000" stroke-width="2"/>
<path d="M453 94H461" stroke="#8B0000" stroke-width="2"/>
<ellipse cx="396.818" cy="99" rx="1.81818" ry="2" fill="#8B0000"/>
<ellipse cx="396.818" cy="94" rx="1.81818" ry="2" fill="#8B0000"/>
<ellipse cx="486.818" cy="99" rx="1.81818" ry="2" fill="#8B0000"/>
<ellipse cx="486.818" cy="94" rx="1.81818" ry="2" fill="#8B0000"/>
<ellipse cx="355.818" cy="80" rx="1.81818" ry="2" fill="#8B0000"/>
<ellipse cx="427.318" cy="79" rx="1.81818" ry="2" fill="black" fill-opacity="0.5"/>
<ellipse cx="457.318" cy="79" rx="1.81818" ry="2" fill="black" fill-opacity="0.5"/>
<ellipse cx="510.818" cy="94" rx="1.81818" ry="2" fill="#8B0000"/>
<path d="M516.933 78.2231V87H514.674V78.1987C514.674 76.7013 514.369 75.6434 513.759 75.0249C513.157 74.4064 512.111 74.0972 510.622 74.0972H504.933V72.022H510.658C512.156 72.022 513.364 72.2336 514.284 72.6567C515.203 73.0718 515.875 73.735 516.298 74.6465C516.721 75.5498 516.933 76.742 516.933 78.2231ZM507.423 77.271V87H505.177V77.271H507.423Z" fill="#8B0000"/>
<rect x="221" y="307" width="20" height="20" fill="white"/>
<rect x="221.5" y="307.5" width="19" height="19" stroke="black" stroke-opacity="0.5"/>
<rect x="191" y="307" width="20" height="20" fill="white"/>
<rect x="191.5" y="307.5" width="19" height="19" stroke="black" stroke-opacity="0.5"/>
<rect x="161" y="307" width="20" height="20" fill="white"/>
<rect x="161.5" y="307.5" width="19" height="19" stroke="black" stroke-opacity="0.5"/>
<line x1="137.983" y1="299.026" x2="143.786" y2="296.32" stroke="black" stroke-opacity="0.5" stroke-width="1.5"/>
<line x1="138.317" y1="298.954" x2="144.12" y2="301.66" stroke="black" stroke-opacity="0.5" stroke-width="1.5"/>
<rect x="131" y="307" width="20" height="20" fill="white"/>
<rect x="131.5" y="307.5" width="19" height="19" stroke="black" stroke-opacity="0.5"/>
<path d="M141 338V332" stroke="#8B0000" stroke-width="2"/>
<path d="M137 332H145" stroke="#8B0000" stroke-width="2"/>
<ellipse cx="170.818" cy="338" rx="1.81818" ry="2" fill="#8B0000"/>
<ellipse cx="170.818" cy="333" rx="1.81818" ry="2" fill="#8B0000"/>
<ellipse cx="230.818" cy="338" rx="1.81818" ry="2" fill="#8B0000"/>
<ellipse cx="230.818" cy="333" rx="1.81818" ry="2" fill="#8B0000"/>
<path d="M120.933 316.223V325H118.674V316.199C118.674 314.701 118.369 313.643 117.759 313.025C117.157 312.406 116.111 312.097 114.622 312.097H108.933V310.022H114.658C116.156 310.022 117.364 310.234 118.284 310.657C119.203 311.072 119.875 311.735 120.298 312.646C120.721 313.55 120.933 314.742 120.933 316.223ZM111.423 315.271V325H109.177V315.271H111.423Z" fill="#8B0000"/>
<ellipse cx="256.818" cy="333" rx="1.81818" ry="2" fill="#8B0000"/>
<path d="M262.933 316.223V325H260.674V316.199C260.674 314.701 260.369 313.643 259.759 313.025C259.157 312.406 258.111 312.097 256.622 312.097H250.933V310.022H256.658C258.156 310.022 259.364 310.234 260.284 310.657C261.203 311.072 261.875 311.735 262.298 312.646C262.721 313.55 262.933 314.742 262.933 316.223ZM253.423 315.271V325H251.177V315.271H253.423Z" fill="#8B0000"/>
<ellipse cx="171.318" cy="317" rx="1.81818" ry="2" fill="black" fill-opacity="0.5"/>
<ellipse cx="201.318" cy="317" rx="1.81818" ry="2" fill="black" fill-opacity="0.5"/>
<path d="M197 333H205" stroke="#8B0000" stroke-width="2"/>
<rect x="221" y="247" width="20" height="20" fill="white"/>
<rect x="221.5" y="247.5" width="19" height="19" stroke="black" stroke-opacity="0.5"/>
<rect x="191" y="247" width="20" height="20" fill="white"/>
<rect x="191.5" y="247.5" width="19" height="19" stroke="black" stroke-opacity="0.5"/>
<rect x="161" y="247" width="20" height="20" fill="white"/>
<rect x="161.5" y="247.5" width="19" height="19" stroke="black" stroke-opacity="0.5"/>
<line x1="167.983" y1="239.026" x2="173.786" y2="236.32" stroke="black" stroke-opacity="0.5" stroke-width="1.5"/>
<line x1="168.317" y1="238.954" x2="174.12" y2="241.66" stroke="black" stroke-opacity="0.5" stroke-width="1.5"/>
<rect x="131" y="247" width="20" height="20" fill="white"/>
<rect x="131.5" y="247.5" width="19" height="19" stroke="black" stroke-opacity="0.5"/>
<ellipse cx="167.818" cy="272" rx="1.81818" ry="2" fill="#8B0000"/>
<ellipse cx="174.182" cy="272" rx="1.81818" ry="2" fill="#8B0000"/>
<ellipse cx="230.818" cy="277" rx="1.81818" ry="2" fill="#8B0000"/>
<ellipse cx="230.818" cy="272" rx="1.81818" ry="2" fill="#8B0000"/>
<ellipse cx="256.818" cy="271" rx="1.81818" ry="2" fill="#8B0000"/>
<path d="M262.933 255.223V264H260.674V255.199C260.674 253.701 260.369 252.643 259.759 252.025C259.157 251.406 258.111 251.097 256.622 251.097H250.933V249.022H256.658C258.156 249.022 259.364 249.234 260.284 249.657C261.203 250.072 261.875 250.735 262.298 251.646C262.721 252.55 262.933 253.742 262.933 255.223ZM253.423 254.271V264H251.177V254.271H253.423Z" fill="#8B0000"/>
<path d="M197 272H205" stroke="#8B0000" stroke-width="2"/>
<path d="M173.136 257C173.136 258.105 172.322 259 171.318 259C170.314 259 169.5 258.105 169.5 257C169.5 255.895 170.314 255 171.318 255C172.322 255 173.136 255.895 173.136 257Z" fill="black" fill-opacity="0.5"/>
<path d="M203.136 257C203.136 258.105 202.322 259 201.318 259C200.314 259 199.5 258.105 199.5 257C199.5 255.895 200.314 255 201.318 255C202.322 255 203.136 255.895 203.136 257Z" fill="black" fill-opacity="0.5"/>
<rect x="221" y="187" width="20" height="20" fill="white"/>
<rect x="221.5" y="187.5" width="19" height="19" stroke="black" stroke-opacity="0.5"/>
<rect x="191" y="187" width="20" height="20" fill="white"/>
<rect x="191.5" y="187.5" width="19" height="19" stroke="black" stroke-opacity="0.5"/>
<rect x="161" y="187" width="20" height="20" fill="white"/>
<rect x="161.5" y="187.5" width="19" height="19" stroke="black" stroke-opacity="0.5"/>
<line x1="167.983" y1="179.026" x2="173.786" y2="176.32" stroke="black" stroke-opacity="0.5" stroke-width="1.5"/>
<line x1="168.317" y1="178.954" x2="174.12" y2="181.66" stroke="black" stroke-opacity="0.5" stroke-width="1.5"/>
<rect x="131" y="187" width="20" height="20" fill="white"/>
<rect x="131.5" y="187.5" width="19" height="19" stroke="black" stroke-opacity="0.5"/>
<path d="M111.399 202.681C111.122 203.503 110.683 204.097 110.081 204.463C109.478 204.821 108.53 205 107.236 205H107.102V202.925H107.31C107.871 202.925 108.319 202.819 108.652 202.607C108.978 202.396 109.21 202.074 109.348 201.643C109.486 201.204 109.556 200.54 109.556 199.653V192.097H107.236V190.022H115.33C117.576 190.022 119.187 190.502 120.164 191.462C121.14 192.415 121.628 194.001 121.628 196.223V205H119.382V196.199C119.382 194.701 119.077 193.643 118.467 193.025C117.865 192.406 116.811 192.097 115.305 192.097H111.802V199.202C111.802 200.699 111.667 201.859 111.399 202.681Z" fill="#8B0000"/>
<ellipse cx="115.318" cy="197" rx="1.81818" ry="2" fill="black" fill-opacity="0.5"/>
<path d="M167 212H175" stroke="#8B0000" stroke-width="2"/>
<path d="M197 212H205" stroke="#8B0000" stroke-width="2"/>
<ellipse cx="141.318" cy="217" rx="1.81818" ry="2" fill="#8B0000"/>
<ellipse cx="141.318" cy="212" rx="1.81818" ry="2" fill="#8B0000"/>
<ellipse cx="230.818" cy="217" rx="1.81818" ry="2" fill="#8B0000"/>
<ellipse cx="230.818" cy="212" rx="1.81818" ry="2" fill="#8B0000"/>
<ellipse cx="114.818" cy="217" rx="1.81818" ry="2" fill="#8B0000"/>
<ellipse cx="114.818" cy="212" rx="1.81818" ry="2" fill="#8B0000"/>
<ellipse cx="256.818" cy="213" rx="1.81818" ry="2" fill="#8B0000"/>
<path d="M262.933 195.223V204H260.674V195.199C260.674 193.701 260.369 192.643 259.759 192.025C259.157 191.406 258.111 191.097 256.622 191.097H250.933V189.022H256.658C258.156 189.022 259.364 189.234 260.284 189.657C261.203 190.072 261.875 190.735 262.298 191.646C262.721 192.55 262.933 193.742 262.933 195.223ZM253.423 194.271V204H251.177V194.271H253.423Z" fill="#8B0000"/>
<ellipse cx="171.318" cy="197" rx="1.81818" ry="2" fill="black" fill-opacity="0.5"/>
<ellipse cx="201.318" cy="197" rx="1.81818" ry="2" fill="black" fill-opacity="0.5"/>
<rect x="221" y="129" width="20" height="20" fill="white"/>
<rect x="221.5" y="129.5" width="19" height="19" stroke="black" stroke-opacity="0.5"/>
<rect x="191" y="129" width="20" height="20" fill="white"/>
<rect x="191.5" y="129.5" width="19" height="19" stroke="black" stroke-opacity="0.5"/>
<rect x="161" y="129" width="20" height="20" fill="white"/>
<rect x="161.5" y="129.5" width="19" height="19" stroke="black" stroke-opacity="0.5"/>
<line x1="167.983" y1="121.026" x2="173.786" y2="118.32" stroke="black" stroke-opacity="0.5" stroke-width="1.5"/>
<line x1="168.317" y1="120.954" x2="174.12" y2="123.66" stroke="black" stroke-opacity="0.5" stroke-width="1.5"/>
<rect x="131" y="129" width="20" height="20" fill="white"/>
<rect x="131.5" y="129.5" width="19" height="19" stroke="black" stroke-opacity="0.5"/>
<path d="M111.399 144.681C111.122 145.503 110.683 146.097 110.081 146.463C109.478 146.821 108.53 147 107.236 147H107.102V144.925H107.31C107.871 144.925 108.319 144.819 108.652 144.607C108.978 144.396 109.21 144.074 109.348 143.643C109.486 143.204 109.556 142.54 109.556 141.653V134.097H107.236V132.022H115.33C117.576 132.022 119.187 132.502 120.164 133.462C121.14 134.415 121.628 136.001 121.628 138.223V147H119.382V138.199C119.382 136.701 119.077 135.643 118.467 135.025C117.865 134.406 116.811 134.097 115.305 134.097H111.802V141.202C111.802 142.699 111.667 143.859 111.399 144.681Z" fill="#8B0000"/>
<ellipse cx="115.318" cy="139" rx="1.81818" ry="2" fill="black" fill-opacity="0.5"/>
<path d="M167 154H175" stroke="#8B0000" stroke-width="2"/>
<path d="M197 154H205" stroke="#8B0000" stroke-width="2"/>
<ellipse cx="141.318" cy="159" rx="1.81818" ry="2" fill="#8B0000"/>
<ellipse cx="141.318" cy="154" rx="1.81818" ry="2" fill="#8B0000"/>
<ellipse cx="230.818" cy="159" rx="1.81818" ry="2" fill="#8B0000"/>
<ellipse cx="230.818" cy="154" rx="1.81818" ry="2" fill="#8B0000"/>
<path d="M115 160V154" stroke="#8B0000" stroke-width="2"/>
<path d="M111 154H119" stroke="#8B0000" stroke-width="2"/>
<ellipse cx="171.318" cy="139" rx="1.81818" ry="2" fill="black" fill-opacity="0.5"/>
<ellipse cx="201.318" cy="139" rx="1.81818" ry="2" fill="black" fill-opacity="0.5"/>
<ellipse cx="256.818" cy="155" rx="1.81818" ry="2" fill="#8B0000"/>
<path d="M262.933 138.223V147H260.674V138.199C260.674 136.701 260.369 135.643 259.759 135.025C259.157 134.406 258.111 134.097 256.622 134.097H250.933V132.022H256.658C258.156 132.022 259.364 132.234 260.284 132.657C261.203 133.072 261.875 133.735 262.298 134.646C262.721 135.55 262.933 136.742 262.933 138.223ZM253.423 137.271V147H251.177V137.271H253.423Z" fill="#8B0000"/>
<path d="M96.623 72.022V79.8955H94.377V72.022H96.623Z" fill="#8B0000"/>
<ellipse cx="115.318" cy="96" rx="1.81818" ry="2" fill="#8B0000"/>
<ellipse cx="256.818" cy="96" rx="1.81818" ry="2" fill="#8B0000"/>
<rect x="191" y="71" width="20" height="20" fill="white"/>
<rect x="191.5" y="71.5" width="19" height="19" stroke="black" stroke-opacity="0.5"/>
<rect x="221" y="71" width="20" height="20" fill="white"/>
<rect x="221.5" y="71.5" width="19" height="19" stroke="black" stroke-opacity="0.5"/>
<rect x="161" y="71" width="20" height="20" fill="white"/>
<rect x="161.5" y="71.5" width="19" height="19" stroke="black" stroke-opacity="0.5"/>
<line x1="167.983" y1="63.0261" x2="173.786" y2="60.3203" stroke="black" stroke-opacity="0.5" stroke-width="1.5"/>
<line x1="168.317" y1="62.9537" x2="174.12" y2="65.6595" stroke="black" stroke-opacity="0.5" stroke-width="1.5"/>
<rect x="131" y="71" width="20" height="20" fill="white"/>
<rect x="131.5" y="71.5" width="19" height="19" stroke="black" stroke-opacity="0.5"/>
<path d="M111.399 86.6807C111.122 87.5026 110.683 88.0967 110.081 88.4629C109.478 88.821 108.53 89 107.236 89H107.102V86.9248H107.31C107.871 86.9248 108.319 86.819 108.652 86.6074C108.978 86.3958 109.21 86.0744 109.348 85.6431C109.486 85.2036 109.556 84.5404 109.556 83.6533V76.0972H107.236V74.022H115.33C117.576 74.022 119.187 74.5021 120.164 75.4624C121.14 76.4146 121.628 78.0015 121.628 80.2231V89H119.382V80.1987C119.382 78.7013 119.077 77.6434 118.467 77.0249C117.865 76.4064 116.811 76.0972 115.305 76.0972H111.802V83.2017C111.802 84.6991 111.667 85.8587 111.399 86.6807Z" fill="#8B0000"/>
<path d="M262.933 80.2231V89H260.674V80.1987C260.674 78.7013 260.369 77.6434 259.759 77.0249C259.157 76.4064 258.111 76.0972 256.622 76.0972H250.933V74.022H256.658C258.156 74.022 259.364 74.2336 260.284 74.6567C261.203 75.0718 261.875 75.735 262.298 76.6465C262.721 77.5498 262.933 78.742 262.933 80.2231ZM253.423 79.271V89H251.177V79.271H253.423Z" fill="#8B0000"/>
<ellipse cx="115.318" cy="81" rx="1.81818" ry="2" fill="black" fill-opacity="0.5"/>
<ellipse cx="171.318" cy="81" rx="1.81818" ry="2" fill="black" fill-opacity="0.5"/>
<ellipse cx="201.318" cy="81" rx="1.81818" ry="2" fill="black" fill-opacity="0.5"/>
<path d="M167 96H175" stroke="#8B0000" stroke-width="2"/>
<path d="M197 96H205" stroke="#8B0000" stroke-width="2"/>
<ellipse cx="141.318" cy="101" rx="1.81818" ry="2" fill="#8B0000"/>
<ellipse cx="141.318" cy="96" rx="1.81818" ry="2" fill="#8B0000"/>
<ellipse cx="230.818" cy="101" rx="1.81818" ry="2" fill="#8B0000"/>
<ellipse cx="230.818" cy="96" rx="1.81818" ry="2" fill="#8B0000"/>
<path d="M38.0955 72.4545V87H35.4606V75.0185H35.3754L31.9734 77.1918V74.777L35.5884 72.4545H38.0955ZM47.2717 74.4858L45.5032 74.6207C45.4558 74.4077 45.3304 74.2135 45.1268 74.0384C44.9232 73.8632 44.632 73.7756 44.2532 73.7756C43.9502 73.7756 43.6826 73.8419 43.4506 73.9744C43.2186 74.1023 43.1026 74.2822 43.1026 74.5142C43.1026 74.6941 43.176 74.8433 43.3228 74.9616C43.4743 75.0753 43.7205 75.17 44.0614 75.2457L45.3612 75.5156C46.024 75.6529 46.5354 75.8826 46.8952 76.2045C47.2598 76.5265 47.4421 76.9574 47.4421 77.4972C47.4421 77.9706 47.3024 78.3849 47.0231 78.7401C46.7437 79.0952 46.3626 79.3722 45.8796 79.571C45.3967 79.7699 44.8474 79.8693 44.2319 79.8693C43.2991 79.8693 42.5487 79.6728 41.9805 79.2798C41.4123 78.8868 41.0832 78.3494 40.9933 77.6676L42.8896 77.5256C42.9558 77.8333 43.105 78.063 43.337 78.2145C43.569 78.3613 43.8673 78.4347 44.2319 78.4347C44.587 78.4347 44.8806 78.366 45.1126 78.2287C45.3493 78.0866 45.4677 77.9044 45.4677 77.6818C45.4677 77.5066 45.3919 77.3575 45.2404 77.2344C45.0936 77.1113 44.8545 77.0166 44.5231 76.9503L43.266 76.6946C42.5605 76.5526 42.0373 76.3063 41.6964 75.956C41.3602 75.6056 41.1921 75.1605 41.1921 74.6207C41.1921 73.9247 41.4691 73.3755 42.0231 72.973C42.5818 72.5705 43.3157 72.3693 44.2248 72.3693C45.1339 72.3693 45.8441 72.5634 46.3555 72.9517C46.8716 73.3352 47.177 73.8466 47.2717 74.4858ZM52.5682 72.4545V73.9247H48.2358V72.4545H52.5682ZM49.2443 70.7216H51.1832V77.4901C51.1832 77.7741 51.2472 77.9683 51.375 78.0724C51.5028 78.1719 51.6709 78.2216 51.8793 78.2216C51.9787 78.2216 52.071 78.2145 52.1562 78.2003C52.2462 78.1861 52.3196 78.1742 52.3764 78.1648L52.6889 79.6349C52.5705 79.6681 52.4261 79.7036 52.2557 79.7415C52.09 79.7746 51.8793 79.7936 51.6236 79.7983C50.9228 79.822 50.3499 79.6705 49.9048 79.3438C49.4645 79.017 49.2443 78.4915 49.2443 77.767V70.7216Z" fill="black"/>
<line x1="281.5" y1="50" x2="281.5" y2="350" stroke="black" stroke-opacity="0.2"/>
<path d="M299.042 77.0132V81.7373H297.694V77.0132H299.042ZM304.953 80.4922V86H300.844V84.7549H303.605V80.873C303.605 80.082 303.566 79.5229 303.488 79.1958C303.41 78.8589 303.273 78.6196 303.078 78.478C302.887 78.3315 302.611 78.2583 302.25 78.2583H301.261V77.0132H302.206C302.987 77.0132 303.559 77.1206 303.92 77.3354C304.281 77.5552 304.542 77.9141 304.704 78.4121C304.87 78.9053 304.953 79.5986 304.953 80.4922ZM308.651 83.0483L308.065 86H306.645L307.26 83.0776C307.436 82.2378 307.597 81.647 307.743 81.3052C307.89 80.9585 308.073 80.6777 308.292 80.4629C308.517 80.248 308.817 80.0649 309.193 79.9136L307.077 77.0132H308.739L312.042 81.5615C312.409 81.2197 312.699 80.8071 312.914 80.3237C313.134 79.8354 313.278 79.2764 313.346 78.6465L313.515 77.0132H314.906L314.738 78.6172C314.684 79.1543 314.586 79.6255 314.445 80.0308C314.347 80.3091 314.23 80.5752 314.093 80.8291C313.957 81.0781 313.781 81.3369 313.566 81.6055C313.356 81.874 313.083 82.1743 312.746 82.5063L315.39 86H313.676L309.809 80.7485C309.418 80.939 309.14 81.2686 308.974 81.7373C308.925 81.8594 308.874 82.0303 308.82 82.25C308.771 82.4697 308.715 82.7358 308.651 83.0483Z" fill="black"/>
<path d="M299.665 138.734V144H298.31V138.719C298.31 137.821 298.126 137.186 297.76 136.815C297.399 136.444 296.771 136.258 295.878 136.258H292.465V135.013H295.9C296.798 135.013 297.523 135.14 298.075 135.394C298.627 135.643 299.03 136.041 299.284 136.588C299.538 137.13 299.665 137.845 299.665 138.734ZM293.959 138.163V144H292.611V138.163H293.959ZM303.883 142.608C303.717 143.102 303.454 143.458 303.092 143.678C302.731 143.893 302.162 144 301.386 144H301.305V142.755H301.43C301.767 142.755 302.035 142.691 302.235 142.564C302.431 142.438 302.57 142.245 302.653 141.986C302.736 141.722 302.777 141.324 302.777 140.792V136.258H301.386V135.013H306.242C307.589 135.013 308.556 135.301 309.142 135.877C309.728 136.449 310.021 137.401 310.021 138.734V144H308.673V138.719C308.673 137.821 308.49 137.186 308.124 136.815C307.763 136.444 307.13 136.258 306.227 136.258H304.125V140.521C304.125 141.419 304.044 142.115 303.883 142.608ZM313.72 141.048L313.134 144H311.713L312.328 141.078C312.504 140.238 312.665 139.647 312.812 139.305C312.958 138.958 313.141 138.678 313.361 138.463C313.585 138.248 313.886 138.065 314.262 137.914L312.145 135.013H313.808L317.111 139.562C317.477 139.22 317.768 138.807 317.982 138.324C318.202 137.835 318.346 137.276 318.415 136.646L318.583 135.013H319.975L319.806 136.617C319.752 137.154 319.655 137.625 319.513 138.031C319.416 138.309 319.298 138.575 319.162 138.829C319.025 139.078 318.849 139.337 318.634 139.605C318.424 139.874 318.151 140.174 317.814 140.506L320.458 144H318.744L314.877 138.749C314.486 138.939 314.208 139.269 314.042 139.737C313.993 139.859 313.942 140.03 313.888 140.25C313.839 140.47 313.783 140.736 313.72 141.048Z" fill="black"/>
<path d="M297.579 260.048L296.993 263H295.572L296.188 260.078C296.363 259.238 296.524 258.647 296.671 258.305C296.817 257.958 297 257.678 297.22 257.463C297.445 257.248 297.745 257.065 298.121 256.914L296.004 254.013H297.667L300.97 258.562C301.336 258.22 301.627 257.807 301.842 257.324C302.062 256.835 302.206 256.276 302.274 255.646L302.442 254.013H303.834L303.666 255.617C303.612 256.154 303.514 256.625 303.373 257.031C303.275 257.309 303.158 257.575 303.021 257.829C302.884 258.078 302.708 258.337 302.494 258.605C302.284 258.874 302.01 259.174 301.673 259.506L304.317 263H302.604L298.736 257.749C298.346 257.939 298.067 258.269 297.901 258.737C297.853 258.859 297.801 259.03 297.748 259.25C297.699 259.47 297.643 259.736 297.579 260.048ZM307.13 254.013V263H305.782V254.013H307.13ZM316.717 257.734V263H315.362V257.719C315.362 256.821 315.179 256.186 314.813 255.815C314.452 255.444 313.824 255.258 312.931 255.258H309.518V254.013H312.953C313.851 254.013 314.576 254.14 315.128 254.394C315.68 254.643 316.083 255.041 316.336 255.588C316.59 256.13 316.717 256.845 316.717 257.734ZM311.012 257.163V263H309.664V257.163H311.012Z" fill="black"/>
<path d="M554.128 256.734V262H546.431V253.013H550.364C551.711 253.013 552.676 253.301 553.257 253.877C553.838 254.454 554.128 255.406 554.128 256.734ZM547.778 260.755H552.773V256.719C552.773 255.831 552.593 255.198 552.231 254.822C551.875 254.446 551.248 254.258 550.349 254.258H547.778V260.755ZM563.65 256.734V262H562.295V256.719C562.295 255.821 562.112 255.186 561.746 254.815C561.384 254.444 560.757 254.258 559.863 254.258H556.45V253.013H559.885C560.784 253.013 561.509 253.14 562.061 253.394C562.612 253.643 563.015 254.041 563.269 254.588C563.523 255.13 563.65 255.845 563.65 256.734ZM557.944 256.163V262H556.597V256.163H557.944Z" fill="black"/>
<path d="M550.92 314.013V325.82H549.573V314.013H550.92ZM560.508 317.734V323H559.153V317.719C559.153 316.821 558.97 316.186 558.604 315.815C558.242 315.444 557.615 315.258 556.721 315.258H553.308V314.013H556.743C557.642 314.013 558.367 314.14 558.918 314.394C559.47 314.643 559.873 315.041 560.127 315.588C560.381 316.13 560.508 316.845 560.508 317.734ZM554.802 317.163V323H553.455V317.163H554.802Z" fill="black"/>
<path d="M297.579 320.048L296.993 323H295.572L296.188 320.078C296.363 319.238 296.524 318.647 296.671 318.305C296.817 317.958 297 317.678 297.22 317.463C297.445 317.248 297.745 317.065 298.121 316.914L296.004 314.013H297.667L300.97 318.562C301.336 318.22 301.627 317.807 301.842 317.324C302.062 316.835 302.206 316.276 302.274 315.646L302.442 314.013H303.834L303.666 315.617C303.612 316.154 303.514 316.625 303.373 317.031C303.275 317.309 303.158 317.575 303.021 317.829C302.884 318.078 302.708 318.337 302.494 318.605C302.284 318.874 302.01 319.174 301.673 319.506L304.317 323H302.604L298.736 317.749C298.346 317.939 298.067 318.269 297.901 318.737C297.853 318.859 297.801 319.03 297.748 319.25C297.699 319.47 297.643 319.736 297.579 320.048ZM307.13 314.013V318.737H305.782V314.013H307.13ZM316.717 317.734V323H315.362V317.719C315.362 316.821 315.179 316.186 314.813 315.815C314.452 315.444 313.824 315.258 312.931 315.258H309.518V314.013H312.953C313.851 314.013 314.576 314.14 315.128 314.394C315.68 314.643 316.083 315.041 316.336 315.588C316.59 316.13 316.717 316.845 316.717 317.734ZM311.012 317.163V323H309.664V317.163H311.012Z" fill="black"/>
<path d="M299.13 200.608C298.964 201.102 298.7 201.458 298.339 201.678C297.978 201.893 297.409 202 296.632 202H296.552V200.755H296.676C297.013 200.755 297.282 200.691 297.482 200.564C297.677 200.438 297.816 200.245 297.899 199.986C297.982 199.722 298.024 199.324 298.024 198.792V194.258H296.632V193.013H301.488C302.836 193.013 303.803 193.301 304.389 193.877C304.975 194.449 305.268 195.401 305.268 196.734V202H303.92V196.719C303.92 195.821 303.737 195.186 303.371 194.815C303.009 194.444 302.377 194.258 301.474 194.258H299.372V198.521C299.372 199.419 299.291 200.115 299.13 200.608ZM308.966 199.048L308.38 202H306.959L307.575 199.078C307.75 198.238 307.912 197.647 308.058 197.305C308.205 196.958 308.388 196.678 308.607 196.463C308.832 196.248 309.132 196.065 309.508 195.914L307.392 193.013H309.054L312.357 197.562C312.724 197.22 313.014 196.807 313.229 196.324C313.449 195.835 313.593 195.276 313.661 194.646L313.83 193.013H315.221L315.053 194.617C314.999 195.154 314.901 195.625 314.76 196.031C314.662 196.309 314.545 196.575 314.408 196.829C314.271 197.078 314.096 197.337 313.881 197.605C313.671 197.874 313.397 198.174 313.061 198.506L315.705 202H313.991L310.124 196.749C309.733 196.939 309.455 197.269 309.289 197.737C309.24 197.859 309.188 198.03 309.135 198.25C309.086 198.47 309.03 198.736 308.966 199.048Z" fill="black"/>
<path d="M541.183 77.0132V86H539.835V77.0132H541.183ZM547.094 80.4922V86H542.985V84.7549H545.746V80.873C545.746 80.082 545.707 79.5229 545.629 79.1958C545.551 78.8589 545.414 78.6196 545.219 78.478C545.028 78.3315 544.752 78.2583 544.391 78.2583H543.402V77.0132H544.347C545.128 77.0132 545.7 77.1206 546.061 77.3354C546.422 77.5552 546.684 77.9141 546.845 78.4121C547.011 78.9053 547.094 79.5986 547.094 80.4922ZM555.619 80.7192C555.619 79.8306 555.438 79.1982 555.077 78.8223C554.721 78.4463 554.093 78.2583 553.195 78.2583H550.924V86H549.577V77.0132H553.209C554.557 77.0132 555.521 77.3013 556.103 77.8774C556.684 78.4536 556.974 79.4058 556.974 80.7339V86H555.619V80.7192ZM562.812 80.4922V86H558.703V84.7549H561.464V80.873C561.464 80.082 561.425 79.5229 561.347 79.1958C561.269 78.8589 561.132 78.6196 560.937 78.478C560.746 78.3315 560.47 78.2583 560.109 78.2583H559.12V77.0132H560.065C560.846 77.0132 561.417 77.1206 561.779 77.3354C562.14 77.5552 562.401 77.9141 562.562 78.4121C562.729 78.9053 562.812 79.5986 562.812 80.4922ZM566.51 83.0483L565.924 86H564.503L565.119 83.0776C565.294 82.2378 565.456 81.647 565.602 81.3052C565.749 80.9585 565.932 80.6777 566.151 80.4629C566.376 80.248 566.676 80.0649 567.052 79.9136L564.936 77.0132H566.598L569.901 81.5615C570.268 81.2197 570.558 80.8071 570.773 80.3237C570.993 79.8354 571.137 79.2764 571.205 78.6465L571.374 77.0132H572.765L572.597 78.6172C572.543 79.1543 572.445 79.6255 572.304 80.0308C572.206 80.3091 572.089 80.5752 571.952 80.8291C571.815 81.0781 571.64 81.3369 571.425 81.6055C571.215 81.874 570.941 82.1743 570.604 82.5063L573.249 86H571.535L567.667 80.7485C567.277 80.939 566.999 81.2686 566.833 81.7373C566.784 81.8594 566.732 82.0303 566.679 82.25C566.63 82.4697 566.574 82.7358 566.51 83.0483Z" fill="black"/>
<path d="M549.487 140.734V146H541.789V137.013H545.722C547.07 137.013 548.034 137.301 548.615 137.877C549.196 138.454 549.487 139.406 549.487 140.734ZM543.137 144.755H548.132V140.719C548.132 139.831 547.951 139.198 547.59 138.822C547.233 138.446 546.606 138.258 545.708 138.258H543.137V144.755ZM553.72 144.608C553.554 145.102 553.291 145.458 552.929 145.678C552.568 145.893 551.999 146 551.223 146H551.142V144.755H551.267C551.604 144.755 551.872 144.691 552.072 144.564C552.268 144.438 552.407 144.245 552.49 143.986C552.573 143.722 552.614 143.324 552.614 142.792V138.258H551.223V137.013H556.079C557.426 137.013 558.393 137.301 558.979 137.877C559.565 138.449 559.858 139.401 559.858 140.734V146H558.51V140.719C558.51 139.821 558.327 139.186 557.961 138.815C557.6 138.444 556.967 138.258 556.064 138.258H553.962V142.521C553.962 143.419 553.881 144.115 553.72 144.608ZM563.557 143.048L562.971 146H561.55L562.165 143.078C562.341 142.238 562.502 141.647 562.648 141.305C562.795 140.958 562.978 140.678 563.198 140.463C563.422 140.248 563.723 140.065 564.099 139.914L561.982 137.013H563.645L566.948 141.562C567.314 141.22 567.604 140.807 567.819 140.324C568.039 139.835 568.183 139.276 568.251 138.646L568.42 137.013H569.812L569.643 138.617C569.589 139.154 569.492 139.625 569.35 140.031C569.252 140.309 569.135 140.575 568.999 140.829C568.862 141.078 568.686 141.337 568.471 141.605C568.261 141.874 567.988 142.174 567.651 142.506L570.295 146H568.581L564.714 140.749C564.323 140.939 564.045 141.269 563.879 141.737C563.83 141.859 563.779 142.03 563.725 142.25C563.676 142.47 563.62 142.736 563.557 143.048Z" fill="black"/>
<path d="M546.279 193.013V204.82H544.931V193.013H546.279ZM550.578 200.608C550.412 201.102 550.148 201.458 549.787 201.678C549.426 201.893 548.857 202 548.081 202H548V200.755H548.125C548.461 200.755 548.73 200.691 548.93 200.564C549.125 200.438 549.265 200.245 549.348 199.986C549.431 199.722 549.472 199.324 549.472 198.792V194.258H548.081V193.013H552.937C554.284 193.013 555.251 193.301 555.837 193.877C556.423 194.449 556.716 195.401 556.716 196.734V202H555.368V196.719C555.368 195.821 555.185 195.186 554.819 194.815C554.458 194.444 553.825 194.258 552.922 194.258H550.82V198.521C550.82 199.419 550.739 200.115 550.578 200.608ZM560.415 199.048L559.829 202H558.408L559.023 199.078C559.199 198.238 559.36 197.647 559.506 197.305C559.653 196.958 559.836 196.678 560.056 196.463C560.28 196.248 560.581 196.065 560.957 195.914L558.84 193.013H560.502L563.806 197.562C564.172 197.22 564.462 196.807 564.677 196.324C564.897 195.835 565.041 195.276 565.109 194.646L565.278 193.013H566.669L566.501 194.617C566.447 195.154 566.35 195.625 566.208 196.031C566.11 196.309 565.993 196.575 565.856 196.829C565.72 197.078 565.544 197.337 565.329 197.605C565.119 197.874 564.846 198.174 564.509 198.506L567.153 202H565.439L561.572 196.749C561.181 196.939 560.903 197.269 560.737 197.737C560.688 197.859 560.637 198.03 560.583 198.25C560.534 198.47 560.478 198.736 560.415 199.048Z" fill="black"/>
<path d="M13.7321 182V180.097L18.7818 175.146C19.2647 174.659 19.6672 174.225 19.9892 173.847C20.3111 173.468 20.5526 173.101 20.7136 172.746C20.8746 172.391 20.9551 172.012 20.9551 171.609C20.9551 171.15 20.8509 170.757 20.6426 170.43C20.4342 170.099 20.1478 169.843 19.7832 169.663C19.4186 169.483 19.0043 169.393 18.5403 169.393C18.0621 169.393 17.6431 169.493 17.2832 169.692C16.9234 169.886 16.644 170.163 16.4451 170.523C16.251 170.883 16.1539 171.311 16.1539 171.808H13.6468C13.6468 170.885 13.8575 170.082 14.2789 169.401C14.7003 168.719 15.2804 168.191 16.019 167.817C16.7624 167.443 17.6146 167.256 18.5758 167.256C19.5512 167.256 20.4082 167.438 21.1468 167.803C21.8855 168.167 22.4584 168.667 22.8656 169.301C23.2775 169.936 23.4835 170.66 23.4835 171.474C23.4835 172.019 23.3793 172.554 23.171 173.08C22.9627 173.605 22.5957 174.187 22.0701 174.827C21.5493 175.466 20.8178 176.24 19.8755 177.149L17.3684 179.699V179.798H23.7037V182H13.7321ZM27.6099 170.537V174.727H25.671V167.455H27.5176V168.726H27.6028C27.7638 168.309 28.0337 167.98 28.4125 167.739C28.796 167.492 29.2553 167.369 29.7903 167.369C30.5337 167.369 31.135 167.611 31.5943 168.094C32.0583 168.577 32.2903 169.249 32.2903 170.111V174.727H30.3514V170.445C30.3514 169.985 30.2306 169.628 29.9892 169.372C29.7524 169.116 29.4305 168.989 29.0233 168.989C28.6113 168.989 28.2728 169.124 28.0076 169.393C27.7425 169.663 27.6099 170.045 27.6099 170.537ZM40.6745 174.727H38.7711V173.584H38.6788C38.5936 173.75 38.4705 173.932 38.3095 174.131C38.1485 174.33 37.9307 174.5 37.6561 174.642C37.3862 174.784 37.0405 174.855 36.6191 174.855C36.0652 174.855 35.5633 174.713 35.1135 174.429C34.6636 174.14 34.3062 173.716 34.041 173.158C33.7806 172.599 33.6504 171.915 33.6504 171.105C33.6504 170.286 33.7853 169.599 34.0552 169.045C34.3251 168.487 34.685 168.068 35.1348 167.788C35.5846 167.509 36.0794 167.369 36.6191 167.369C37.0311 167.369 37.3743 167.44 37.649 167.582C37.9236 167.72 38.1414 167.89 38.3024 168.094C38.4681 168.293 38.5936 168.482 38.6788 168.662H38.7427V165.04H40.6745V174.727ZM38.7853 171.091C38.7853 170.442 38.648 169.919 38.3734 169.521C38.1035 169.119 37.7153 168.918 37.2086 168.918C36.6878 168.918 36.2924 169.124 36.0225 169.536C35.7574 169.947 35.6248 170.466 35.6248 171.091C35.6248 171.522 35.6864 171.903 35.8095 172.234C35.9326 172.566 36.1101 172.826 36.3422 173.016C36.5789 173.2 36.8677 173.293 37.2086 173.293C37.5401 173.293 37.8242 173.2 38.0609 173.016C38.2976 172.831 38.4776 172.575 38.6007 172.249C38.7238 171.917 38.7853 171.531 38.7853 171.091Z" fill="black"/>
<path d="M59.3464 145V134.091H61.8038V135.945H61.9316C62.1589 135.32 62.5353 134.832 63.0609 134.482C63.5865 134.126 64.2138 133.949 64.943 133.949C65.6816 133.949 66.3043 134.129 66.8109 134.489C67.3223 134.844 67.6821 135.329 67.8904 135.945H68.0041C68.2456 135.339 68.6528 134.856 69.2257 134.496C69.8033 134.131 70.4875 133.949 71.2782 133.949C72.282 133.949 73.1011 134.266 73.7356 134.901C74.3701 135.535 74.6873 136.461 74.6873 137.678V145H72.1092V138.075C72.1092 137.398 71.9293 136.903 71.5694 136.591C71.2096 136.274 70.7692 136.115 70.2484 136.115C69.6281 136.115 69.1428 136.309 68.7924 136.697C68.4468 137.081 68.274 137.58 68.274 138.196V145H65.7527V137.969C65.7527 137.405 65.5822 136.955 65.2413 136.619C64.9051 136.283 64.4648 136.115 63.9203 136.115C63.551 136.115 63.2148 136.21 62.9118 136.399C62.6087 136.584 62.3672 136.847 62.1873 137.188C62.0074 137.524 61.9174 137.917 61.9174 138.366V145H59.3464Z" fill="black"/>
<path d="M70.0771 194.091V196.08H63.6282V194.091H70.0771ZM65.2404 205V193.061C65.2404 192.327 65.3919 191.716 65.695 191.229C66.0027 190.741 66.4147 190.376 66.9308 190.135C67.4469 189.893 68.0198 189.773 68.6495 189.773C69.0946 189.773 69.4899 189.808 69.8356 189.879C70.1812 189.95 70.4369 190.014 70.6026 190.071L70.0913 192.06C69.9824 192.027 69.8451 191.993 69.6793 191.96C69.5136 191.922 69.329 191.903 69.1254 191.903C68.6471 191.903 68.3086 192.019 68.1097 192.251C67.9156 192.479 67.8185 192.805 67.8185 193.232V205H65.2404Z" fill="black"/>
<line x1="51.5" y1="110" x2="51.5" y2="230" stroke="black" stroke-opacity="0.35"/>
<path d="M20.6046 302.199C19.5819 302.199 18.6728 302.024 17.8773 301.673C17.0866 301.323 16.4616 300.835 16.0023 300.21C15.543 299.585 15.2992 298.863 15.2708 298.044H17.9412C17.9649 298.437 18.0951 298.78 18.3319 299.074C18.5686 299.363 18.8835 299.588 19.2765 299.749C19.6694 299.91 20.1098 299.99 20.5975 299.99C21.1183 299.99 21.58 299.9 21.9824 299.72C22.3849 299.536 22.6998 299.28 22.927 298.953C23.1543 298.626 23.2656 298.25 23.2608 297.824C23.2656 297.384 23.1519 296.995 22.9199 296.659C22.6879 296.323 22.3517 296.06 21.9114 295.871C21.4758 295.681 20.9502 295.587 20.3347 295.587H19.0492V293.555H20.3347C20.8413 293.555 21.284 293.468 21.6628 293.293C22.0463 293.117 22.347 292.871 22.5648 292.554C22.7826 292.232 22.8891 291.86 22.8844 291.439C22.8891 291.027 22.7968 290.67 22.6074 290.366C22.4228 290.059 22.16 289.82 21.8191 289.649C21.4829 289.479 21.0875 289.393 20.633 289.393C20.1879 289.393 19.776 289.474 19.3972 289.635C19.0184 289.796 18.713 290.026 18.481 290.324C18.249 290.617 18.1259 290.968 18.1117 291.375H15.5762C15.5951 290.561 15.8295 289.846 16.2793 289.23C16.7338 288.61 17.3399 288.127 18.0975 287.781C18.8551 287.431 19.705 287.256 20.6472 287.256C21.6178 287.256 22.4606 287.438 23.1756 287.803C23.8953 288.162 24.4516 288.648 24.8446 289.259C25.2376 289.869 25.4341 290.544 25.4341 291.283C25.4389 292.102 25.1974 292.788 24.7097 293.342C24.2267 293.896 23.5923 294.259 22.8063 294.429V294.543C23.829 294.685 24.6126 295.063 25.1571 295.679C25.7064 296.29 25.9786 297.05 25.9739 297.959C25.9739 298.773 25.7419 299.502 25.2779 300.146C24.8186 300.786 24.1841 301.287 23.3745 301.652C22.5695 302.017 21.6462 302.199 20.6046 302.199ZM27.9288 294.727V287.455H29.818V288.697H29.889C30.0169 288.262 30.2394 287.93 30.5566 287.703C30.8786 287.471 31.2432 287.355 31.6504 287.355C31.854 287.355 32.0339 287.381 32.1902 287.433C32.3511 287.481 32.4979 287.547 32.6305 287.632L32.0481 289.223C31.9487 289.18 31.8398 289.145 31.7214 289.116C31.6078 289.083 31.4847 289.067 31.3521 289.067C30.9402 289.067 30.5898 289.209 30.301 289.493C30.0121 289.777 29.8677 290.137 29.8677 290.572V294.727H27.9288ZM40.0222 294.727H38.1188V293.584H38.0265C37.9412 293.75 37.8181 293.932 37.6571 294.131C37.4962 294.33 37.2783 294.5 37.0037 294.642C36.7338 294.784 36.3882 294.855 35.9668 294.855C35.4128 294.855 34.9109 294.713 34.4611 294.429C34.0113 294.14 33.6538 293.716 33.3887 293.158C33.1283 292.599 32.998 291.915 32.998 291.105C32.998 290.286 33.133 289.599 33.4029 289.045C33.6728 288.487 34.0326 288.068 34.4824 287.788C34.9322 287.509 35.427 287.369 35.9668 287.369C36.3787 287.369 36.722 287.44 36.9966 287.582C37.2712 287.72 37.4891 287.89 37.65 288.094C37.8158 288.293 37.9412 288.482 38.0265 288.662H38.0904V285.04H40.0222V294.727ZM38.133 291.091C38.133 290.442 37.9957 289.919 37.7211 289.521C37.4512 289.119 37.0629 288.918 36.5563 288.918C36.0355 288.918 35.6401 289.124 35.3702 289.536C35.1051 289.947 34.9725 290.466 34.9725 291.091C34.9725 291.522 35.034 291.903 35.1571 292.234C35.2802 292.566 35.4578 292.826 35.6898 293.016C35.9266 293.2 36.2154 293.293 36.5563 293.293C36.8877 293.293 37.1718 293.2 37.4086 293.016C37.6453 292.831 37.8252 292.575 37.9483 292.249C38.0714 291.917 38.133 291.531 38.133 291.091Z" fill="black"/>
<path d="M59.3464 265V254.091H61.8038V255.945H61.9316C62.1589 255.32 62.5353 254.832 63.0609 254.482C63.5865 254.126 64.2138 253.949 64.943 253.949C65.6816 253.949 66.3043 254.129 66.8109 254.489C67.3223 254.844 67.6821 255.329 67.8904 255.945H68.0041C68.2456 255.339 68.6528 254.856 69.2257 254.496C69.8033 254.131 70.4875 253.949 71.2782 253.949C72.282 253.949 73.1011 254.266 73.7356 254.901C74.3701 255.535 74.6873 256.461 74.6873 257.678V265H72.1092V258.075C72.1092 257.398 71.9293 256.903 71.5694 256.591C71.2096 256.274 70.7692 256.115 70.2484 256.115C69.6281 256.115 69.1428 256.309 68.7924 256.697C68.4468 257.081 68.274 257.58 68.274 258.196V265H65.7527V257.969C65.7527 257.405 65.5822 256.955 65.2413 256.619C64.9051 256.283 64.4648 256.115 63.9203 256.115C63.551 256.115 63.2148 256.21 62.9118 256.399C62.6087 256.584 62.3672 256.847 62.1873 257.188C62.0074 257.524 61.9174 257.917 61.9174 258.366V265H59.3464Z" fill="black"/>
<path d="M70.0771 314.091V316.08H63.6282V314.091H70.0771ZM65.2404 325V313.061C65.2404 312.327 65.3919 311.716 65.695 311.229C66.0027 310.741 66.4147 310.376 66.9308 310.135C67.4469 309.893 68.0198 309.773 68.6495 309.773C69.0946 309.773 69.4899 309.808 69.8356 309.879C70.1812 309.95 70.4369 310.014 70.6026 310.071L70.0913 312.06C69.9824 312.027 69.8451 311.993 69.6793 311.96C69.5136 311.922 69.329 311.903 69.1254 311.903C68.6471 311.903 68.3086 312.019 68.1097 312.251C67.9156 312.479 67.8185 312.805 67.8185 313.232V325H65.2404Z" fill="black"/>
<line x1="51.5" y1="230" x2="51.5" y2="350" stroke="black" stroke-opacity="0.35"/>
</svg>
