<svg width="580" height="170" viewBox="0 0 580 170" fill="none" xmlns="http://www.w3.org/2000/svg">
<path d="M0 20C0 8.9543 8.95431 0 20 0H560C571.046 0 580 8.95431 580 20V150C580 161.046 571.046 170 560 170H20C8.95432 170 0 161.046 0 150V20Z" fill="white"/>
<path d="M0.5 20C0.5 9.23045 9.23045 0.5 20 0.5H560C570.77 0.5 579.5 9.23045 579.5 20V150C579.5 160.77 570.77 169.5 560 169.5H20C9.23046 169.5 0.5 160.77 0.5 150V20Z" stroke="black" stroke-opacity="0.5"/>
<path d="M0 110L580 110" stroke="black" stroke-opacity="0.5"/>
<line y1="49.5" x2="580" y2="49.5" stroke="black" stroke-opacity="0.5"/>
<path d="M330 1.85774e-08L330 170" stroke="black" stroke-opacity="0.5"/>
<line x1="80.5" y1="2.18557e-08" x2="80.5" y2="170" stroke="black" stroke-opacity="0.5"/>
<path d="M174.402 22.4531C174.336 21.8329 174.056 21.3499 173.564 21.0043C173.076 20.6586 172.442 20.4858 171.661 20.4858C171.111 20.4858 170.64 20.5687 170.247 20.7344C169.854 20.9001 169.554 21.125 169.345 21.4091C169.137 21.6932 169.03 22.0175 169.026 22.3821C169.026 22.6851 169.094 22.9479 169.232 23.1705C169.374 23.393 169.565 23.5824 169.807 23.7386C170.048 23.8902 170.316 24.018 170.609 24.1222C170.903 24.2263 171.199 24.3139 171.497 24.3849L172.861 24.7259C173.41 24.8537 173.938 25.0265 174.445 25.2443C174.956 25.4621 175.413 25.7367 175.815 26.0682C176.223 26.3996 176.545 26.7997 176.781 27.2685C177.018 27.7372 177.136 28.2865 177.136 28.9162C177.136 29.7685 176.919 30.5189 176.483 31.1676C176.047 31.8116 175.418 32.3158 174.594 32.6804C173.775 33.0402 172.783 33.2202 171.618 33.2202C170.486 33.2202 169.504 33.045 168.67 32.6946C167.842 32.3442 167.193 31.8329 166.724 31.1605C166.26 30.4882 166.009 29.669 165.972 28.7031H168.564C168.602 29.2098 168.758 29.6312 169.033 29.9673C169.307 30.3035 169.665 30.5545 170.105 30.7202C170.55 30.8859 171.047 30.9688 171.597 30.9688C172.17 30.9688 172.671 30.8835 173.102 30.7131C173.538 30.5379 173.879 30.2964 174.125 29.9886C174.371 29.6761 174.497 29.3116 174.501 28.8949C174.497 28.5161 174.385 28.2036 174.168 27.9574C173.95 27.7064 173.644 27.4981 173.251 27.3324C172.863 27.1619 172.409 27.0104 171.888 26.8778L170.233 26.4517C169.035 26.1439 168.088 25.6776 167.392 25.0526C166.701 24.4228 166.355 23.5871 166.355 22.5455C166.355 21.6884 166.587 20.938 167.051 20.294C167.52 19.6501 168.157 19.1506 168.962 18.7955C169.767 18.4356 170.678 18.2557 171.696 18.2557C172.728 18.2557 173.633 18.4356 174.409 18.7955C175.19 19.1506 175.804 19.6454 176.249 20.2798C176.694 20.9096 176.923 21.634 176.938 22.4531H174.402ZM182.12 18.4545V33H179.485V18.4545H182.12ZM196.927 18.4545V33H194.583L187.729 23.0923H187.609V33H184.974V18.4545H187.332L194.178 28.3693H194.306V18.4545H196.927ZM209.542 23.0994C209.424 22.7159 209.261 22.3726 209.052 22.0696C208.849 21.7618 208.602 21.4991 208.314 21.2812C208.029 21.0634 207.703 20.9001 207.333 20.7912C206.964 20.6776 206.562 20.6207 206.126 20.6207C205.345 20.6207 204.649 20.8172 204.038 21.2102C203.427 21.6032 202.947 22.1809 202.596 22.9432C202.251 23.7008 202.078 24.6241 202.078 25.7131C202.078 26.8116 202.251 27.742 202.596 28.5043C202.942 29.2666 203.422 29.8466 204.038 30.2443C204.654 30.6373 205.368 30.8338 206.183 30.8338C206.922 30.8338 207.561 30.6918 208.1 30.4077C208.645 30.1236 209.064 29.7211 209.358 29.2003C209.651 28.6747 209.798 28.0592 209.798 27.3537L210.395 27.446H206.446V25.3864H212.348V27.1335C212.348 28.3788 212.083 29.456 211.552 30.3651C211.022 31.2741 210.293 31.9749 209.365 32.4673C208.437 32.955 207.371 33.1989 206.169 33.1989C204.829 33.1989 203.652 32.8982 202.639 32.2969C201.63 31.6908 200.842 30.8314 200.274 29.7188C199.71 28.6013 199.429 27.2756 199.429 25.7415C199.429 24.5672 199.594 23.5185 199.926 22.5952C200.262 21.6719 200.731 20.8883 201.332 20.2443C201.933 19.5956 202.639 19.1032 203.449 18.767C204.258 18.4261 205.139 18.2557 206.091 18.2557C206.895 18.2557 207.646 18.3741 208.342 18.6108C209.038 18.8428 209.656 19.1742 210.196 19.6051C210.74 20.036 211.188 20.5473 211.538 21.1392C211.888 21.7311 212.118 22.3845 212.227 23.0994H209.542ZM214.896 33V18.4545H217.531V30.7912H223.937V33H214.896ZM226.224 33V18.4545H235.684V20.6634H228.859V24.6122H235.194V26.821H228.859V30.7912H235.741V33H226.224Z" fill="black"/>
<path d="M416.597 33V18.4545H422.051C423.169 18.4545 424.106 18.6629 424.864 19.0795C425.626 19.4962 426.201 20.0691 426.59 20.7983C426.983 21.5227 427.179 22.3466 427.179 23.2699C427.179 24.2027 426.983 25.0312 426.59 25.7557C426.197 26.4801 425.617 27.0507 424.85 27.4673C424.083 27.8793 423.138 28.0852 422.016 28.0852H418.401V25.919H421.661C422.314 25.919 422.849 25.8054 423.266 25.5781C423.682 25.3509 423.99 25.0384 424.189 24.6406C424.393 24.2429 424.494 23.786 424.494 23.2699C424.494 22.7538 424.393 22.2992 424.189 21.9062C423.99 21.5133 423.68 21.2079 423.259 20.9901C422.842 20.7675 422.305 20.6562 421.646 20.6562H419.232V33H416.597ZM429.468 33V18.4545H432.103V30.7912H438.509V33H429.468ZM449.965 18.4545H452.6V27.9574C452.6 28.9991 452.354 29.9152 451.861 30.706C451.374 31.4967 450.687 32.1146 449.802 32.5597C448.916 33 447.882 33.2202 446.698 33.2202C445.51 33.2202 444.473 33 443.587 32.5597C442.702 32.1146 442.015 31.4967 441.528 30.706C441.04 29.9152 440.796 28.9991 440.796 27.9574V18.4545H443.431V27.7372C443.431 28.3433 443.564 28.883 443.829 29.3565C444.099 29.83 444.477 30.2017 444.965 30.4716C445.453 30.7367 446.03 30.8693 446.698 30.8693C447.366 30.8693 447.943 30.7367 448.431 30.4716C448.923 30.2017 449.302 29.83 449.567 29.3565C449.832 28.883 449.965 28.3433 449.965 27.7372V18.4545ZM455.464 33V18.4545H460.919C462.036 18.4545 462.973 18.6487 463.731 19.0369C464.493 19.4252 465.069 19.9697 465.457 20.6705C465.85 21.3665 466.046 22.1785 466.046 23.1065C466.046 24.0393 465.847 24.849 465.45 25.5355C465.057 26.2173 464.477 26.7453 463.71 27.1193C462.943 27.4886 462 27.6733 460.883 27.6733H456.998V25.4858H460.528C461.181 25.4858 461.716 25.3958 462.133 25.2159C462.55 25.0312 462.857 24.7637 463.056 24.4134C463.26 24.0582 463.362 23.6226 463.362 23.1065C463.362 22.5904 463.26 22.1501 463.056 21.7855C462.853 21.4162 462.543 21.1368 462.126 20.9474C461.709 20.7533 461.172 20.6562 460.514 20.6562H458.099V33H455.464ZM462.978 26.4091L466.579 33H463.639L460.102 26.4091H462.978ZM470.34 33H467.527L472.648 18.4545H475.901L481.029 33H478.216L474.331 21.4375H474.218L470.34 33ZM470.432 27.2969H478.102V29.4134H470.432V27.2969ZM482.944 33V18.4545H485.579V30.7912H491.986V33H482.944Z" fill="black"/>
<path d="M33.3464 87V76.0909H35.8038V77.9446H35.9316C36.1589 77.3196 36.5353 76.8319 37.0609 76.4815C37.5865 76.1264 38.2138 75.9489 38.943 75.9489C39.6816 75.9489 40.3043 76.1288 40.8109 76.4886C41.3223 76.8437 41.6821 77.3291 41.8904 77.9446H42.0041C42.2456 77.3385 42.6528 76.8556 43.2257 76.4957C43.8033 76.1312 44.4875 75.9489 45.2782 75.9489C46.282 75.9489 47.1011 76.2661 47.7356 76.9006C48.3701 77.535 48.6873 78.4607 48.6873 79.6776V87H46.1092V80.0753C46.1092 79.3982 45.9293 78.9034 45.5694 78.5909C45.2096 78.2737 44.7692 78.1151 44.2484 78.1151C43.6281 78.1151 43.1428 78.3092 42.7924 78.6974C42.4468 79.081 42.274 79.5805 42.274 80.196V87H39.7527V79.9688C39.7527 79.4053 39.5822 78.9555 39.2413 78.6193C38.9051 78.2831 38.4648 78.1151 37.9203 78.1151C37.551 78.1151 37.2148 78.2098 36.9118 78.3991C36.6087 78.5838 36.3672 78.8466 36.1873 79.1875C36.0074 79.5237 35.9174 79.9167 35.9174 80.3665V87H33.3464Z" fill="black"/>
<path d="M44.0771 135.091V137.08H37.6282V135.091H44.0771ZM39.2404 146V134.061C39.2404 133.327 39.3919 132.716 39.695 132.229C40.0027 131.741 40.4147 131.376 40.9308 131.135C41.4469 130.893 42.0198 130.773 42.6495 130.773C43.0946 130.773 43.4899 130.808 43.8356 130.879C44.1812 130.95 44.4369 131.014 44.6026 131.071L44.0913 133.06C43.9824 133.027 43.8451 132.993 43.6793 132.96C43.5136 132.922 43.329 132.903 43.1254 132.903C42.6471 132.903 42.3086 133.019 42.1097 133.251C41.9156 133.479 41.8185 133.805 41.8185 134.232V146H39.2404Z" fill="black"/>
<path d="M80 0H560C571.046 0 580 8.95431 580 20V50H80V0Z" fill="#3EB489" fill-opacity="0.15"/>
<path d="M0 50H80V170H20C8.95431 170 0 161.046 0 150V50Z" fill="#D9D9D9" fill-opacity="0.35"/>
<rect x="494" y="130" width="20" height="20" fill="white"/>
<rect x="494.5" y="130.5" width="19" height="19" stroke="black" stroke-opacity="0.5"/>
<rect x="464" y="130" width="20" height="20" fill="white"/>
<rect x="464.5" y="130.5" width="19" height="19" stroke="black" stroke-opacity="0.5"/>
<rect x="434" y="130" width="20" height="20" fill="white"/>
<rect x="434.5" y="130.5" width="19" height="19" stroke="black" stroke-opacity="0.5"/>
<circle cx="393" cy="127" r="2" fill="#8B0000"/>
<path d="M372.399 145.681C372.122 146.503 371.683 147.097 371.081 147.463C370.478 147.821 369.53 148 368.236 148H368.102V145.925H368.31C368.871 145.925 369.319 145.819 369.652 145.607C369.978 145.396 370.21 145.074 370.348 144.643C370.486 144.204 370.556 143.54 370.556 142.653V135.097H368.236V133.022H376.33C378.576 133.022 380.187 133.502 381.164 134.462C382.14 135.415 382.628 137.001 382.628 139.223V148H380.382V139.199C380.382 137.701 380.077 136.643 379.467 136.025C378.865 135.406 377.811 135.097 376.305 135.097H372.802V142.202C372.802 143.699 372.667 144.859 372.399 145.681Z" fill="#8B0000"/>
<path d="M393.898 133.018V148.76H392.102V133.018H393.898Z" fill="#8B0000"/>
<rect x="404" y="130" width="20" height="20" fill="white"/>
<rect x="404.5" y="130.5" width="19" height="19" stroke="black" stroke-opacity="0.5"/>
<line x1="410.983" y1="122.026" x2="416.786" y2="119.32" stroke="black" stroke-opacity="0.5" stroke-width="1.5"/>
<line x1="411.317" y1="121.954" x2="417.12" y2="124.66" stroke="black" stroke-opacity="0.5" stroke-width="1.5"/>
<ellipse cx="503.818" cy="162" rx="1.81818" ry="2" fill="#8B0000"/>
<ellipse cx="503.818" cy="157" rx="1.81818" ry="2" fill="#8B0000"/>
<path d="M470 157H478" stroke="#8B0000" stroke-width="2"/>
<path d="M530.903 132.778C532.873 132.778 534.309 133.38 535.212 134.584C536.124 135.781 536.58 137.685 536.58 140.297V148H529.231V145.925H534.309V140.578C534.309 138.584 534.053 137.136 533.54 136.232C533.027 135.329 532.157 134.877 530.928 134.877C529.829 134.877 528.926 135.374 528.218 136.367C527.502 137.376 526.847 139.13 526.252 141.628L524.727 148H522.31L523.982 141.445C524.169 140.68 524.36 139.988 524.556 139.37C524.751 138.751 524.942 138.202 525.129 137.722L522.078 133.022H524.727L526.252 135.5C526.887 134.54 527.567 133.848 528.291 133.425C529.015 132.993 529.886 132.778 530.903 132.778Z" fill="#8B0000"/>
<ellipse cx="529.818" cy="157" rx="1.81818" ry="2" fill="#8B0000"/>
<ellipse cx="448.818" cy="162" rx="1.81818" ry="2" fill="#8B0000"/>
<ellipse cx="448.818" cy="157" rx="1.81818" ry="2" fill="#8B0000"/>
<path d="M437 157H445" stroke="#8B0000" stroke-width="2"/>
<ellipse cx="474.318" cy="140" rx="1.81818" ry="2" fill="black" fill-opacity="0.5"/>
<rect x="494" y="71" width="20" height="20" fill="white"/>
<rect x="494.5" y="71.5" width="19" height="19" stroke="black" stroke-opacity="0.5"/>
<rect x="434" y="71" width="20" height="20" fill="white"/>
<rect x="434.5" y="71.5" width="19" height="19" stroke="black" stroke-opacity="0.5"/>
<rect x="464" y="71" width="20" height="20" fill="white"/>
<rect x="464.5" y="71.5" width="19" height="19" stroke="black" stroke-opacity="0.5"/>
<path d="M395.623 74.022V81.8955H393.377V74.022H395.623Z" fill="#8B0000"/>
<ellipse cx="503.818" cy="103" rx="1.81818" ry="2" fill="#8B0000"/>
<ellipse cx="503.818" cy="98" rx="1.81818" ry="2" fill="#8B0000"/>
<ellipse cx="413.818" cy="98" rx="1.81818" ry="2" fill="#8B0000"/>
<ellipse cx="529.818" cy="98" rx="1.81818" ry="2" fill="#8B0000"/>
<path d="M382.97 80.2231V89H370.14V74.022H376.695C378.941 74.022 380.549 74.5021 381.517 75.4624C382.486 76.4227 382.97 78.0096 382.97 80.2231ZM372.386 86.9248H380.711V80.1987C380.711 78.7176 380.41 77.6637 379.808 77.0371C379.214 76.4105 378.168 76.0972 376.671 76.0972H372.386V86.9248Z" fill="#8B0000"/>
<rect x="404" y="71" width="20" height="20" fill="white"/>
<rect x="404.5" y="71.5" width="19" height="19" stroke="black" stroke-opacity="0.5"/>
<line x1="410.983" y1="63.0261" x2="416.786" y2="60.3203" stroke="black" stroke-opacity="0.5" stroke-width="1.5"/>
<line x1="411.317" y1="62.9537" x2="417.12" y2="65.6595" stroke="black" stroke-opacity="0.5" stroke-width="1.5"/>
<path d="M530.903 73.7778C532.873 73.7778 534.309 74.38 535.212 75.5845C536.124 76.7808 536.58 78.6851 536.58 81.2974V89H529.231V86.9248H534.309V81.5781C534.309 79.5843 534.053 78.1357 533.54 77.2324C533.027 76.3291 532.157 75.8774 530.928 75.8774C529.829 75.8774 528.926 76.3739 528.218 77.3667C527.502 78.3758 526.847 80.1296 526.252 82.6279L524.727 89H522.31L523.982 82.4448C524.169 81.6799 524.36 80.9881 524.556 80.3696C524.751 79.7511 524.942 79.2018 525.129 78.7217L522.078 74.022H524.727L526.252 76.5C526.887 75.5397 527.567 74.848 528.291 74.4248C529.015 73.9935 529.886 73.7778 530.903 73.7778Z" fill="#8B0000"/>
<path d="M470 98H478" stroke="#8B0000" stroke-width="2"/>
<ellipse cx="448.818" cy="103" rx="1.81818" ry="2" fill="#8B0000"/>
<ellipse cx="448.818" cy="98" rx="1.81818" ry="2" fill="#8B0000"/>
<path d="M437 98H445" stroke="#8B0000" stroke-width="2"/>
<ellipse cx="474.318" cy="81" rx="1.81818" ry="2" fill="black" fill-opacity="0.5"/>
<rect x="224" y="130" width="20" height="20" fill="white"/>
<rect x="224.5" y="130.5" width="19" height="19" stroke="black" stroke-opacity="0.5"/>
<rect x="164" y="130" width="20" height="20" fill="white"/>
<rect x="164.5" y="130.5" width="19" height="19" stroke="black" stroke-opacity="0.5"/>
<rect x="194" y="130" width="20" height="20" fill="white"/>
<rect x="194.5" y="130.5" width="19" height="19" stroke="black" stroke-opacity="0.5"/>
<path d="M114.399 145.681C114.122 146.503 113.683 147.097 113.081 147.463C112.478 147.821 111.53 148 110.236 148H110.102V145.925H110.31C110.871 145.925 111.319 145.819 111.652 145.607C111.978 145.396 112.21 145.074 112.348 144.643C112.486 144.204 112.556 143.54 112.556 142.653V135.097H110.236V133.022H118.33C120.576 133.022 122.187 133.502 123.164 134.462C124.14 135.415 124.628 137.001 124.628 139.223V148H122.382V139.199C122.382 137.701 122.077 136.643 121.467 136.025C120.865 135.406 119.811 135.097 118.305 135.097H114.802V142.202C114.802 143.699 114.667 144.859 114.399 145.681Z" fill="#8B0000"/>
<ellipse cx="170.818" cy="157" rx="1.81818" ry="2" fill="#8B0000"/>
<ellipse cx="177.182" cy="157" rx="1.81818" ry="2" fill="#8B0000"/>
<ellipse cx="173.818" cy="162" rx="1.81818" ry="2" fill="#8B0000"/>
<ellipse cx="140.818" cy="157" rx="1.81818" ry="2" fill="#8B0000"/>
<ellipse cx="147.182" cy="157" rx="1.81818" ry="2" fill="#8B0000"/>
<ellipse cx="143.818" cy="162" rx="1.81818" ry="2" fill="#8B0000"/>
<rect x="134" y="130" width="20" height="20" fill="white"/>
<rect x="134.5" y="130.5" width="19" height="19" stroke="black" stroke-opacity="0.5"/>
<line x1="170.983" y1="122.026" x2="176.786" y2="119.32" stroke="black" stroke-opacity="0.5" stroke-width="1.5"/>
<line x1="171.317" y1="121.954" x2="177.12" y2="124.66" stroke="black" stroke-opacity="0.5" stroke-width="1.5"/>
<path d="M200 157H208" stroke="#8B0000" stroke-width="2"/>
<ellipse cx="233.818" cy="162" rx="1.81818" ry="2" fill="#8B0000"/>
<ellipse cx="233.818" cy="157" rx="1.81818" ry="2" fill="#8B0000"/>
<path d="M260.903 132.778C262.873 132.778 264.309 133.38 265.212 134.584C266.124 135.781 266.58 137.685 266.58 140.297V148H259.231V145.925H264.309V140.578C264.309 138.584 264.053 137.136 263.54 136.232C263.027 135.329 262.157 134.877 260.928 134.877C259.829 134.877 258.926 135.374 258.218 136.367C257.502 137.376 256.847 139.13 256.252 141.628L254.727 148H252.31L253.982 141.445C254.169 140.68 254.36 139.988 254.556 139.37C254.751 138.751 254.942 138.202 255.129 137.722L252.078 133.022H254.727L256.252 135.5C256.887 134.54 257.567 133.848 258.291 133.425C259.015 132.993 259.886 132.778 260.903 132.778Z" fill="#8B0000"/>
<ellipse cx="259.818" cy="159" rx="1.81818" ry="2" fill="#8B0000"/>
<ellipse cx="204.318" cy="141" rx="1.81818" ry="2" fill="black" fill-opacity="0.5"/>
<ellipse cx="259.818" cy="98" rx="1.81818" ry="2" fill="#8B0000"/>
<path d="M260.903 73.7778C262.873 73.7778 264.309 74.38 265.212 75.5845C266.124 76.7808 266.58 78.6851 266.58 81.2974V89H259.231V86.9248H264.309V81.5781C264.309 79.5843 264.053 78.1357 263.54 77.2324C263.027 76.3291 262.157 75.8774 260.928 75.8774C259.829 75.8774 258.926 76.3739 258.218 77.3667C257.502 78.3758 256.847 80.1296 256.252 82.6279L254.727 89H252.31L253.982 82.4448C254.169 81.6799 254.36 80.9881 254.556 80.3696C254.751 79.7511 254.942 79.2018 255.129 78.7217L252.078 74.022H254.727L256.252 76.5C256.887 75.5397 257.567 74.848 258.291 74.4248C259.015 73.9935 259.886 73.7778 260.903 73.7778Z" fill="#8B0000"/>
<path d="M200 98H208" stroke="#8B0000" stroke-width="2"/>
<ellipse cx="233.818" cy="102" rx="1.81818" ry="2" fill="#8B0000"/>
<ellipse cx="233.818" cy="97" rx="1.81818" ry="2" fill="#8B0000"/>
<rect x="224" y="71" width="20" height="20" fill="white"/>
<rect x="224.5" y="71.5" width="19" height="19" stroke="black" stroke-opacity="0.5"/>
<rect x="164" y="71" width="20" height="20" fill="white"/>
<rect x="164.5" y="71.5" width="19" height="19" stroke="black" stroke-opacity="0.5"/>
<rect x="194" y="71" width="20" height="20" fill="white"/>
<rect x="194.5" y="71.5" width="19" height="19" stroke="black" stroke-opacity="0.5"/>
<ellipse cx="170.818" cy="98" rx="1.81818" ry="2" fill="#8B0000"/>
<ellipse cx="177.182" cy="98" rx="1.81818" ry="2" fill="#8B0000"/>
<line x1="170.983" y1="63.0261" x2="176.786" y2="60.3203" stroke="black" stroke-opacity="0.5" stroke-width="1.5"/>
<line x1="171.317" y1="62.9537" x2="177.12" y2="65.6595" stroke="black" stroke-opacity="0.5" stroke-width="1.5"/>
<rect x="134" y="71" width="20" height="20" fill="white"/>
<rect x="134.5" y="71.5" width="19" height="19" stroke="black" stroke-opacity="0.5"/>
<ellipse cx="204.318" cy="81" rx="1.81818" ry="2" fill="black" fill-opacity="0.5"/>
</svg>
