<svg width="205" height="46" viewBox="0 0 205 46" fill="none" xmlns="http://www.w3.org/2000/svg">
<rect x="185.5" y="12.5" width="19" height="19" stroke="black" stroke-opacity="0.5"/>
<rect x="145.5" y="12.5" width="19" height="19" stroke="black" stroke-opacity="0.5"/>
<path d="M176.309 16.2158V30.3838H174.691V16.2158H176.309Z" fill="#8B0000"/>
<circle cx="175.5" cy="9" r="2" fill="#8B0000"/>
<path d="M96.9072 27.3301C96.708 27.9219 96.3916 28.3496 95.958 28.6133C95.5244 28.8711 94.8418 29 93.9102 29H93.8135V27.5059H93.9629C94.3672 27.5059 94.6895 27.4297 94.9297 27.2773C95.1641 27.125 95.3311 26.8936 95.4307 26.583C95.5303 26.2666 95.5801 25.7891 95.5801 25.1504V19.71H93.9102V18.2158H99.7373C101.354 18.2158 102.515 18.5615 103.218 19.2529C103.921 19.9385 104.272 21.0811 104.272 22.6807V29H102.655V22.6631C102.655 21.585 102.436 20.8232 101.996 20.3779C101.562 19.9326 100.804 19.71 99.7197 19.71H97.1973V24.8252C97.1973 25.9033 97.1006 26.7383 96.9072 27.3301Z" fill="#8B0000"/>
<ellipse cx="151.818" cy="39" rx="1.81818" ry="2" fill="#8B0000"/>
<ellipse cx="158.182" cy="39" rx="1.81818" ry="2" fill="#8B0000"/>
<ellipse cx="154.818" cy="44" rx="1.81818" ry="2" fill="#8B0000"/>
<ellipse cx="121.818" cy="39" rx="1.81818" ry="2" fill="#8B0000"/>
<ellipse cx="128.182" cy="39" rx="1.81818" ry="2" fill="#8B0000"/>
<ellipse cx="124.818" cy="44" rx="1.81818" ry="2" fill="#8B0000"/>
<rect x="115.5" y="12.5" width="19" height="19" stroke="black" stroke-opacity="0.5"/>
<line x1="151.983" y1="4.02611" x2="157.786" y2="1.32027" stroke="black" stroke-opacity="0.5" stroke-width="1.5"/>
<line x1="152.317" y1="3.9537" x2="158.12" y2="6.65954" stroke="black" stroke-opacity="0.5" stroke-width="1.5"/>
<path d="M191.924 27.5762C193.049 27.1602 194.01 26.6328 194.807 25.9941C195.609 25.3613 196.219 24.6699 196.635 23.9199C197.057 23.1699 197.268 22.4082 197.268 21.6348C197.268 20.3516 196.582 19.71 195.211 19.71H190.843V14.3662H192.46V18.2158H195.378C197.728 18.2158 198.902 19.2617 198.902 21.3535C198.902 22.4316 198.645 23.4658 198.129 24.4561C197.613 25.4463 196.887 26.3369 195.949 27.1279C194.836 28.0771 193.494 28.833 191.924 29.3955V27.5762Z" fill="black"/>
<path d="M156.15 18.04C157.568 18.04 158.603 18.4736 159.253 19.3408C159.909 20.2021 160.237 21.5732 160.237 23.4541V29H154.946V27.5059H158.603V23.6562C158.603 22.2207 158.418 21.1777 158.049 20.5273C157.68 19.877 157.053 19.5518 156.168 19.5518C155.377 19.5518 154.727 19.9092 154.217 20.624C153.701 21.3506 153.229 22.6133 152.802 24.4121L151.703 29H149.963L151.167 24.2803C151.302 23.7295 151.439 23.2314 151.58 22.7861C151.721 22.3408 151.858 21.9453 151.993 21.5996L149.796 18.2158H151.703L152.802 20C153.259 19.3086 153.748 18.8105 154.27 18.5059C154.791 18.1953 155.418 18.04 156.15 18.04Z" fill="black"/>
<path d="M128.146 19.71V29H126.521V19.71H120.368V18.2158H129.491V19.71H128.146Z" fill="black"/>
<path d="M83.7071 24.7071C84.0976 24.3166 84.0976 23.6834 83.7071 23.2929L77.3431 16.9289C76.9526 16.5384 76.3195 16.5384 75.9289 16.9289C75.5384 17.3195 75.5384 17.9526 75.9289 18.3431L81.5858 24L75.9289 29.6569C75.5384 30.0474 75.5384 30.6805 75.9289 31.0711C76.3195 31.4616 76.9526 31.4616 77.3431 31.0711L83.7071 24.7071ZM63 25H83V23H63V25Z" fill="black" fill-opacity="0.5"/>
<path d="M44.9238 28.5762C46.0488 28.1602 47.0098 27.6328 47.8066 26.9941C48.6094 26.3613 49.2188 25.6699 49.6348 24.9199C50.0566 24.1699 50.2676 23.4082 50.2676 22.6348C50.2676 21.3516 49.582 20.71 48.2109 20.71H43.8428V15.3662H45.46V19.2158H48.3779C50.7275 19.2158 51.9023 20.2617 51.9023 22.3535C51.9023 23.4316 51.6445 24.4658 51.1289 25.4561C50.6133 26.4463 49.8867 27.3369 48.9492 28.1279C47.8359 29.0771 46.4941 29.833 44.9238 30.3955V28.5762Z" fill="black"/>
<path d="M27.1504 18.04C28.5684 18.04 29.6025 18.4736 30.2529 19.3408C30.9092 20.2021 31.2373 21.5732 31.2373 23.4541V29H25.9463V27.5059H29.6025V23.6562C29.6025 22.2207 29.418 21.1777 29.0488 20.5273C28.6797 19.877 28.0527 19.5518 27.168 19.5518C26.377 19.5518 25.7266 19.9092 25.2168 20.624C24.7012 21.3506 24.2295 22.6133 23.8018 24.4121L22.7031 29H20.9629L22.167 24.2803C22.3018 23.7295 22.4395 23.2314 22.5801 22.7861C22.7207 22.3408 22.8584 21.9453 22.9932 21.5996L20.7959 18.2158H22.7031L23.8018 20C24.2588 19.3086 24.748 18.8105 25.2695 18.5059C25.791 18.1953 26.418 18.04 27.1504 18.04Z" fill="black"/>
<path d="M8.14648 19.71V29H6.52051V19.71H0.368164V18.2158H9.49121V19.71H8.14648Z" fill="black"/>
<line x1="12" y1="23.5" x2="19" y2="23.5" stroke="black"/>
<line x1="35" y1="23.5" x2="42" y2="23.5" stroke="black"/>
</svg>
